<?xml version="1.0" encoding="UTF-8"?>
<svg id="Capa_1" data-name="Capa 1" xmlns="http://www.w3.org/2000/svg" viewBox="0 0 774.9 894.12">
  <defs>
    <style>
      .cls-1 {
        fill: red;
      }
    </style>
  </defs>
  <rect class="cls-1" width="774.9" height="894.12" rx="12.05" ry="12.05"/>
  <g>
    <path d="M333.74,685.36c28.24.6,64.95-4.56,85.93-25.25,17.55-17.3,34.93-61.5,32.88-85.91-1.92-22.9-20.57-45.71-30.55-65.93l1.73-1.73,153.54,97.65c.32,1.93-1.59,1.1-2.91,1.16-45.24,2.19-39.28,12.17-54.18,48.2-9.64,23.32-22.97,43.77-43.03,59.33-63.42,49.2-150.95,31.35-225.77,34.83v-280.59c0-11.07-9.26-35.15-14.68-45.32l-37.08-56.44,36.37,21.86,97.75,63.43v234.71Z"/>
    <path d="M260.8,143l131.23-.05c72.56,4.61,124.21,49.85,145.83,117.71,23.65,74.23,20.28,154.67,20.59,231.76l-5.1-1.37-112.5-72.21-1.23-1.7c11.94,1.43,25.62-3.23,30.29-15.02,4.71-11.9-1.27-60.86-3.39-76-3.92-27.86-11.58-65.81-29.82-87.83-23.18-27.99-58.86-33.82-93.55-32.93v149.41l-124.7-78.24c9.41-1.95,18.21,2.62,27.7-.52,5.28-1.75,14.65-10.25,14.65-15.94v-117.06Z"/>
  </g>
</svg>