<?xml version="1.0" encoding="UTF-8"?>
<svg id="Capa_1" data-name="Capa 1" xmlns="http://www.w3.org/2000/svg" xmlns:xlink="http://www.w3.org/1999/xlink" viewBox="0 0 1055.99 1007.69">
  <defs>
    <style>
      .cls-1 {
        stroke: url(#Degradado_sin_nombre_872);
      }

      .cls-1, .cls-2, .cls-3, .cls-4, .cls-5, .cls-6, .cls-7, .cls-8, .cls-9, .cls-10, .cls-11, .cls-12, .cls-13, .cls-14, .cls-15, .cls-16, .cls-17 {
        fill: none;
        stroke-miterlimit: 10;
        stroke-width: 1.03px;
      }

      .cls-2 {
        stroke: url(#Degradado_sin_nombre_867);
      }

      .cls-3 {
        stroke: url(#Degradado_sin_nombre_866);
      }

      .cls-4 {
        stroke: url(#Degradado_sin_nombre_859);
      }

      .cls-5 {
        stroke: url(#Degradado_sin_nombre_858);
      }

      .cls-6 {
        stroke: url(#Degradado_sin_nombre_870);
      }

      .cls-7 {
        stroke: url(#Degradado_sin_nombre_868);
      }

      .cls-8 {
        stroke: #000;
      }

      .cls-9 {
        stroke: url(#Degradado_sin_nombre_862);
      }

      .cls-10 {
        stroke: url(#Degradado_sin_nombre_863);
      }

      .cls-11 {
        stroke: url(#Degradado_sin_nombre_869);
      }

      .cls-12 {
        stroke: url(#Degradado_sin_nombre_860);
      }

      .cls-13 {
        stroke: url(#Degradado_sin_nombre_861);
      }

      .cls-14 {
        stroke: url(#Degradado_sin_nombre_865);
      }

      .cls-15 {
        stroke: url(#Degradado_sin_nombre_864);
      }

      .cls-16 {
        stroke: url(#Degradado_sin_nombre_2209);
      }

      .cls-17 {
        stroke: url(#Degradado_sin_nombre_871);
      }
    </style>
    <linearGradient id="Degradado_sin_nombre_2209" data-name="Degradado sin nombre 2209" x1="0" y1="263.31" x2="1055.99" y2="263.31" gradientUnits="userSpaceOnUse">
      <stop offset="0" stop-color="#a3005a"/>
      <stop offset="1" stop-color="#951004"/>
    </linearGradient>
    <linearGradient id="Degradado_sin_nombre_872" data-name="Degradado sin nombre 872" x1="8" y1="295.78" x2="1052.27" y2="295.78" gradientUnits="userSpaceOnUse">
      <stop offset="0" stop-color="#990054"/>
      <stop offset="1" stop-color="#8c0f04"/>
    </linearGradient>
    <linearGradient id="Degradado_sin_nombre_871" data-name="Degradado sin nombre 871" x1="16" y1="325.63" x2="1048.59" y2="325.63" gradientUnits="userSpaceOnUse">
      <stop offset="0" stop-color="#8f004f"/>
      <stop offset="1" stop-color="#820e04"/>
    </linearGradient>
    <linearGradient id="Degradado_sin_nombre_870" data-name="Degradado sin nombre 870" x1="24.01" y1="351.71" x2="1044.9" y2="351.71" gradientUnits="userSpaceOnUse">
      <stop offset="0" stop-color="#840049"/>
      <stop offset="1" stop-color="#790d03"/>
    </linearGradient>
    <linearGradient id="Degradado_sin_nombre_869" data-name="Degradado sin nombre 869" x1="32.01" y1="377.82" x2="1041.21" y2="377.82" gradientUnits="userSpaceOnUse">
      <stop offset="0" stop-color="#7a0044"/>
      <stop offset="1" stop-color="#700c03"/>
    </linearGradient>
    <linearGradient id="Degradado_sin_nombre_868" data-name="Degradado sin nombre 868" x1="40.01" y1="403.96" x2="1037.52" y2="403.96" gradientUnits="userSpaceOnUse">
      <stop offset="0" stop-color="#70003e"/>
      <stop offset="1" stop-color="#660b03"/>
    </linearGradient>
    <linearGradient id="Degradado_sin_nombre_867" data-name="Degradado sin nombre 867" x1="48.02" y1="430.12" x2="1033.84" y2="430.12" gradientUnits="userSpaceOnUse">
      <stop offset="0" stop-color="#660038"/>
      <stop offset="1" stop-color="#5d0a03"/>
    </linearGradient>
    <linearGradient id="Degradado_sin_nombre_866" data-name="Degradado sin nombre 866" x1="56.02" y1="456.32" x2="1030.15" y2="456.32" gradientUnits="userSpaceOnUse">
      <stop offset="0" stop-color="#5c0033"/>
      <stop offset="1" stop-color="#540902"/>
    </linearGradient>
    <linearGradient id="Degradado_sin_nombre_865" data-name="Degradado sin nombre 865" x1="64.02" y1="482.57" x2="1026.46" y2="482.57" gradientUnits="userSpaceOnUse">
      <stop offset="0" stop-color="#52002d"/>
      <stop offset="1" stop-color="#4b0802"/>
    </linearGradient>
    <linearGradient id="Degradado_sin_nombre_864" data-name="Degradado sin nombre 864" x1="72.03" y1="508.89" x2="1022.78" y2="508.89" gradientUnits="userSpaceOnUse">
      <stop offset="0" stop-color="#470027"/>
      <stop offset="1" stop-color="#410702"/>
    </linearGradient>
    <linearGradient id="Degradado_sin_nombre_863" data-name="Degradado sin nombre 863" x1="80.03" y1="535.29" x2="1019.09" y2="535.29" gradientUnits="userSpaceOnUse">
      <stop offset="0" stop-color="#3d0022"/>
      <stop offset="1" stop-color="#380602"/>
    </linearGradient>
    <linearGradient id="Degradado_sin_nombre_862" data-name="Degradado sin nombre 862" x1="88.03" y1="561.81" x2="1015.4" y2="561.81" gradientUnits="userSpaceOnUse">
      <stop offset="0" stop-color="#33001c"/>
      <stop offset="1" stop-color="#2f0501"/>
    </linearGradient>
    <linearGradient id="Degradado_sin_nombre_861" data-name="Degradado sin nombre 861" x1="96.04" y1="588.5" x2="1011.71" y2="588.5" gradientUnits="userSpaceOnUse">
      <stop offset="0" stop-color="#290017"/>
      <stop offset="1" stop-color="#250401"/>
    </linearGradient>
    <linearGradient id="Degradado_sin_nombre_860" data-name="Degradado sin nombre 860" x1="104.04" y1="615.43" x2="1008.03" y2="615.43" gradientUnits="userSpaceOnUse">
      <stop offset="0" stop-color="#1f0011"/>
      <stop offset="1" stop-color="#1c0301"/>
    </linearGradient>
    <linearGradient id="Degradado_sin_nombre_859" data-name="Degradado sin nombre 859" x1="112.04" y1="642.71" x2="1004.34" y2="642.71" gradientUnits="userSpaceOnUse">
      <stop offset="0" stop-color="#14000b"/>
      <stop offset="1" stop-color="#130201"/>
    </linearGradient>
    <linearGradient id="Degradado_sin_nombre_858" data-name="Degradado sin nombre 858" x1="120.04" y1="670.63" x2="1000.65" y2="670.63" gradientUnits="userSpaceOnUse">
      <stop offset="0" stop-color="#0a0006"/>
      <stop offset="1" stop-color="#090100"/>
    </linearGradient>
  </defs>
  <path class="cls-16" d="M.5,20.51s43.27,143.21,227.18,143.43c102.35.12,173.33-80.65,290.47-146.52,127.6-71.76,381.32,104.46,388.12,164.83,7.89,69.97-78.81,228.93-21.22,274.23,8.81,6.93,18.33,13.73,28.59,20.27,97.96,62.44,142.2,47.89,142.2,47.89"/>
  <path class="cls-1" d="M8.5,43.69c.66,2.35,43.65,140.72,220.01,144.45,46.65.98,87.07-14.68,128.78-38.63,24.48-13.96,49.35-30.66,75.95-48.22,25.06-16.47,51.62-33.9,81.31-49.64,50.41-26.72,116.84-15.03,179.33,11.78,48.08,20.63,93.25,51.08,128.03,80.42,37.41,31.56,63.43,62.83,65.77,83.17,2.67,23.24-3.63,55.15-10.79,88.63-15.01,69.04-35.93,146.43,4.3,175.23,8.99,6.43,18.6,12.74,28.85,18.91,95.58,57.53,139.71,44.08,142.12,43.44"/>
  <path class="cls-17" d="M16.5,66.87c1.32,4.69,44.05,138.3,212.84,145.46,45.28,1.92,84.94-11.78,126.21-33.91,24.23-13,48.95-28.6,75.12-45.28,24.84-15.71,50.97-32.65,80.28-47.26,51.73-25.8,116.74-11.54,176.5,16.94,46.34,22.09,88.33,54.39,120.63,84.55,34.08,31.83,58.5,63.13,61.01,84.44,2.77,23.68-2.26,55.29-7.45,87.56-10.67,66.35-26,138.89,15.67,165.93,9.15,5.94,18.87,11.76,29.11,17.55,93.11,52.67,137.23,40.27,142.05,39"/>
  <path class="cls-6" d="M24.5,90.05c1.98,7.04,44.48,135.94,205.67,146.48,43.93,2.87,82.86-8.82,123.64-29.19,24.01-11.99,48.51-26.61,74.29-42.35s50.35-31.36,79.25-44.88c53.1-24.85,116.66-8.03,173.67,22.09,44.61,23.57,83.39,57.63,113.22,88.67,30.76,32.01,53.57,63.43,56.25,85.71,2.86,24.13-.95,55.42-4.1,86.49-6.45,63.62-16.1,131.36,27.04,156.63,9.3,5.45,19.12,10.78,29.37,16.19,90.56,47.89,134.75,36.46,141.97,34.56"/>
  <path class="cls-11" d="M32.51,113.23c2.63,9.38,44.94,133.65,198.5,147.5,42.58,3.84,80.77-5.86,121.06-24.46,23.8-10.99,48.11-24.58,73.46-39.42,24.36-14.26,49.75-30.05,78.22-42.51,54.49-23.86,116.57-4.48,170.85,27.25,42.88,25.07,78.44,60.78,105.82,92.8,27.45,32.1,48.64,63.73,51.48,86.98,2.96,24.57.36,55.53-.75,85.43-2.25,60.87-6.24,123.86,38.41,147.33,9.45,4.97,19.37,9.8,29.63,14.83,87.92,43.19,132.26,32.65,141.9,30.12"/>
  <path class="cls-7" d="M40.51,136.41c3.29,11.73,45.41,131.46,191.33,148.52,41.24,4.82,78.69-2.9,118.49-19.74,23.58-9.98,47.71-22.54,72.63-36.49s49.17-28.7,77.19-40.13c55.92-22.83,116.48-.9,168.02,32.41,41.15,26.59,73.48,63.84,98.42,96.92,24.18,32.08,43.71,64.02,46.72,88.24,3.06,25.02,1.65,55.64,2.6,84.36,1.93,58.12,3.58,116.39,49.78,138.04,9.58,4.49,19.61,8.82,29.89,13.47,85.2,38.58,129.78,28.84,141.82,25.68"/>
  <path class="cls-2" d="M48.51,159.59c3.95,14.07,45.91,129.35,184.15,149.54,39.91,5.83,76.62.06,115.92-15.02,23.37-8.97,47.31-20.49,71.8-33.56s48.61-27.32,76.16-37.76c57.38-21.75,116.38,2.71,165.2,37.57,39.42,28.14,68.55,66.8,91.02,101.05,20.96,31.95,38.78,64.32,41.95,89.51,3.16,25.46,2.93,55.75,5.95,83.29,6.08,55.36,13.38,108.96,61.15,128.74,9.71,4.02,19.84,7.86,30.15,12.12,82.4,34.06,127.29,25.03,141.75,21.24"/>
  <path class="cls-3" d="M56.52,182.77c4.61,16.42,46.42,127.36,176.98,150.56,38.58,6.86,74.55,3.03,113.34-10.29,23.17-7.96,46.92-18.44,70.97-30.63s48.07-25.91,75.13-35.38c58.87-20.61,116.27,6.36,162.37,42.73,37.67,29.72,63.67,69.66,83.61,105.17,17.81,31.72,33.85,64.62,37.19,90.78,3.26,25.91,4.19,55.86,9.3,82.22,10.19,52.59,23.15,101.56,72.52,119.44,9.84,3.56,20.06,6.9,30.41,10.76,79.51,29.66,124.81,21.22,141.67,16.8"/>
  <path class="cls-14" d="M64.52,205.95c5.27,18.76,46.93,125.48,169.81,151.58,37.26,7.91,72.49,6.01,110.77-5.57,22.96-6.95,46.52-16.39,70.14-27.7,23.47-11.24,47.54-24.47,74.1-33.01,60.39-19.42,116.14,10.04,159.55,47.89,35.92,31.31,58.87,72.43,76.21,109.3,14.76,31.39,28.92,64.92,32.43,92.04,3.35,26.35,5.44,55.97,12.65,81.15,14.28,49.84,32.91,94.2,83.89,110.14,9.96,3.11,20.28,5.95,30.67,9.4,76.55,25.38,122.32,17.41,141.6,12.36"/>
  <path class="cls-15" d="M72.52,229.12c5.93,21.11,47.44,123.73,162.64,152.6,35.94,9,70.43,8.99,108.2-.85,22.76-5.93,46.13-14.33,69.31-24.76s47.02-22.99,73.07-30.63c61.93-18.16,115.99,13.74,156.72,53.04,34.14,32.94,54.19,75.11,68.81,113.42,11.83,31,23.99,65.22,27.66,93.31,3.45,26.8,6.67,56.09,16,80.08,18.33,47.11,42.65,86.9,95.26,100.84,10.08,2.67,20.48,5.02,30.93,8.04,73.53,21.24,119.84,13.6,141.52,7.92"/>
  <path class="cls-10" d="M80.53,252.3c6.59,23.45,47.93,122.12,155.47,153.62,34.61,10.14,68.38,11.98,105.62,3.88,22.57-4.91,45.75-12.26,68.49-21.83s46.5-21.49,72.04-28.26c63.48-16.81,115.81,17.47,153.9,58.2,32.34,34.58,49.66,77.74,61.4,117.55,9.01,30.55,19.06,65.52,22.9,94.58,3.55,27.24,7.88,56.23,19.35,79.01,22.35,44.4,52.39,79.63,106.63,91.54,10.2,2.24,20.68,4.11,31.19,6.68,70.46,17.23,117.35,9.79,141.45,3.48"/>
  <path class="cls-9" d="M88.53,275.48c7.25,25.8,48.38,120.66,148.3,154.63,33.27,11.31,66.33,14.97,103.05,8.6,22.37-3.88,45.36-10.19,67.66-18.9s45.99-19.96,71.01-25.88c65.05-15.39,115.6,21.23,151.07,63.36,30.52,36.25,45.31,80.34,54,121.67,6.33,30.09,14.14,65.82,18.14,95.84,3.65,27.69,9.06,56.4,22.7,77.94,26.31,41.76,62.12,72.42,118,82.25,10.32,1.81,20.88,3.22,31.45,5.32,67.36,13.38,114.87,5.98,141.37-.96"/>
  <path class="cls-13" d="M96.53,298.66c7.9,28.15,48.78,119.35,141.13,155.65,31.91,12.54,64.29,17.98,100.47,13.32,22.18-2.85,44.98-8.12,66.83-15.97s45.48-18.4,69.98-23.5c66.63-13.87,115.35,25,148.24,68.52,28.66,37.93,41.16,82.95,46.6,125.8,3.76,29.64,9.21,66.12,13.37,97.11,3.75,28.13,10.28,56.56,26.05,76.87,30.35,39.11,71.86,65.25,129.37,72.95,10.44,1.4,21.07,2.36,31.71,3.96,64.24,9.67,112.39,2.17,141.3-5.4"/>
  <path class="cls-12" d="M104.54,321.84c8.56,30.49,49.08,118.2,133.96,156.67,30.52,13.83,62.25,20.99,97.9,18.05,21.99-1.82,44.59-6.03,66-13.04,22.42-7.34,44.97-16.82,68.95-21.13,68.21-12.26,115.08,28.78,145.42,73.68,26.77,39.62,37.22,85.62,39.19,129.92,1.3,29.25,4.28,66.41,8.61,98.38,3.84,28.57,11.48,56.76,29.4,75.81,34.35,36.52,81.61,58.12,140.74,63.65,10.56.99,21.26,1.53,31.97,2.6,61.14,6.13,109.9-1.65,141.22-9.84"/>
  <path class="cls-4" d="M112.54,345.02c9.22,32.84,49.26,117.19,126.79,157.69,29.08,15.19,60.2,24.02,95.33,22.77,21.8-.77,44.22-3.92,65.17-10.11,22.22-6.51,44.45-15.21,67.92-18.75,69.79-10.53,114.76,32.56,142.59,78.84,24.85,41.31,33.47,88.38,31.79,134.05-1.06,28.94-.65,66.71,3.84,99.65,3.94,29.02,12.69,56.97,32.75,74.74,38.36,33.97,91.38,51.04,152.11,54.35,10.69.58,21.46.74,32.23,1.24,58.08,2.73,107.42-5.46,141.15-14.28"/>
  <path class="cls-5" d="M120.54,368.2c9.88,35.18,49.27,116.31,119.62,158.71,27.57,16.62,58.19,26.09,92.75,27.5,21.59.88,43.83-1.86,64.34-7.17,22.01-5.74,43.93-13.58,66.89-16.38,71.36-8.7,114.41,36.34,139.77,83.99,22.89,43.01,29.89,91.27,24.39,138.17-3.37,28.73-5.58,67.01-.92,100.91,4.04,29.46,13.9,57.21,36.1,73.67,42.4,31.45,101.16,43.99,163.48,45.05,10.81.18,21.67-.41,32.49-.11,55.09,1.5,104.93-9.27,141.08-18.72"/>
  <path class="cls-8" d="M128.55,391.38c14.86,52.9,85.34,186.21,202.63,191.95,21.4,1.62,43.43.2,63.51-4.24,21.79-4.97,43.38-12.07,65.86-14,72.87-7.21,114.02,40.12,136.94,89.15,20.9,44.7,26.43,94.32,16.99,142.3-10.48,53.2-18.3,141.03,33.76,174.78,93.75,56.12,255.28,35.53,348.6,11.12"/>
</svg>