<?xml version="1.0" encoding="UTF-8"?>
<svg id="Capa_1" data-name="Capa 1" xmlns="http://www.w3.org/2000/svg" viewBox="0 0 1728.4 563.21">
  <defs>
    <style>
      .cls-1 {
        fill: #fff;
      }

      .cls-2 {
        fill: #3c3c3b;
      }

      .cls-3 {
        fill: #1d1e1c;
      }

      .cls-4 {
        fill: #585856;
      }
    </style>
  </defs>
  <g>
    <g>
      <g>
        <path class="cls-1" d="M1709.97,369.63c-1.77-12.03-10.49-21.59-19.35-29.59-21.13-19.08-51.94-41.17-78.22-51.33l-.9,4.13c-2.54-20.81,7.22-42.74,17.24-80.59q5.57-21.03,2.16-64.47c-2.02-25.8-5.29-40.23-47.85-76.29-13.33-11.3-37.67-22.93-60.21-30.69,1.48-3.75.8-8.47-2.73-11.43-3.28-2.75-7.04-4.93-10.98-6.52-7.45-3.02-15.51-4.09-23.5-4.54-3.31-.19-6.77-.25-9.79,1.16-3.77,1.76-6.1,5.94-6.33,10.17-18.74-1.95-37.85-2.5-56-.05-25.28,3.41-53.72,6.35-76.51,16.81-23.48,10.77-41.96,21.32-59.06,39.88-19.61,21.28-30.02,44.13-35.93,71.24-4.27,19.58-8.11,39.66-8.12,59.82h-.02s.02.01.02.01c0,5.7.28,11.4.97,17.11,0,0,.92.11,2.66.31-1.08.35-2.16.73-3.22,1.15h0s0,0,0,0c-.14.06-.28.1-.42.16l.44.07c1.84,14.55-21.99,34.86-16.45,58.5,1.86,7.92,8.52,26.63,10.03,34.64,4.34,23.14-7.02,49.16-4.2,72.54,1.57,12.99,5.78,25.46,9.97,37.82,2.85,8.41,9.5,18.87,14.18,26.35,4.82,7.7,7.62,12.1,14.4,18,17.73,15.43,37.86,28.5,60.25,34.72,22.38,6.22,47.23,5.1,67.57-6.39h0c1,9.51-4.37,23.06-6.29,32.42,44.14,2.35,88.83-7.55,128.16-28.39,6.99-3.7,14.46-8.59,16.29-16.49-9.67-15.89-16.7-33.49-20.71-51.8l.18.15c-.07.5.1.93.4,1.29l8.38,26.98c12.17-4.85,31.16-7.84,43.22-2.73,10.84,4.59,20.9,13.15,32.59,12.38-7.71-5.66-10.84-15.98-11.62-25.72-.78-9.74.52-22.84-1.13-32.47l-1.49.42c.1-.09.2-.18.3-.26,1.56-1.42,3.1-2.89,4.58-4.4h0c2.21.46,4.75.8,7.53,1.04,3.98,1.25,8.07,1.26,12.24.44,19.58-.06,44.17-3.11,57.2-6.16,12.42-2.92,24.98-6.92,34.98-15.08,10-8.17,17.03-21.29,15.11-34.32ZM1518.84,306.76c.83,3.74,1.02,8.08,0,12.96.7-4.29.71-8.69,0-12.96ZM1526.21,352.21s3.96-3.72,10.12-8c-3.49,2.51-6.85,5.23-10.12,8ZM1611.41,293.21l-.26,1.17c-2.18-1.26-4.36-2.53-6.57-3.75,4.44,1.28,6.18,2.09,6.82,2.58ZM1486.24,276.38h.08c-2.77,9.14-9.26,23.26-10.9,26.75l10.81-26.75ZM1498.2,290.65c1.42-.34,2.85-.6,4.31-.76,2.51-.28,5.21-.23,7.33,1.18,0,0,.09.08.25.22-.16-.06-.31-.15-.48-.2,0,0-4.39-1.67-11.41-.43ZM1558.05,333.25c-.47.13-.93.27-1.4.41,8.21-2.68,17-3.39,24.9.53-7.34-2.82-15.83-2.98-23.5-.94Z"/>
        <g>
          <path class="cls-1" d="M1727.49,364.8c-4.49-24.63-27.4-41.44-46.01-55.78-19.85-15.29-40.89-28.6-64.25-37.84-8.81-3.48-20.43,3.87-22.36,12.69-.3,1.38-.6,2.75-.9,4.13,11.9,1.61,23.8,3.22,35.7,4.83-.49-4.49-.34-8.86-.09-13.35.2-3.45.03-.55-.07.18.2-1.34.43-2.67.68-4,.53-2.81,1.16-5.6,1.84-8.38,3.11-12.66,7.19-25.08,10.76-37.62,4.54-15.93,9.02-31.68,8.54-48.4-.32-11.17-1.37-22.35-2.27-33.49-.67-8.26-1.41-16.66-3.52-24.7-5.04-19.22-17.98-34.96-31.97-48.54-11.57-11.23-23.87-21.93-37.89-29.99-15.16-8.71-31.54-15.51-48.03-21.27,4.23,7.45,8.46,14.9,12.69,22.36,7.41-24.52-17.21-39.7-37.95-43.54-10-1.85-21.57-3.54-31.4-.15-12.54,4.32-18.13,15.28-19.67,27.7,6.06-6.06,12.12-12.12,18.17-18.17-26.08-2.62-50.89-.81-76.77,2.72-24.53,3.35-47.68,8.31-70.16,18.97-20.26,9.62-39.47,21.57-55.15,37.79-16.75,17.34-29.17,37.89-37.08,60.64-9.34,26.87-14.39,57.36-14.64,85.75,7.67-5.84,15.34-11.68,23-17.52h-.02c-7.95-1.69-16.29,1.11-20.52,8.35-3.82,6.54-3.26,16.89,2.84,22.02l.02.02c-1.77-4.28-3.55-8.57-5.32-12.85.04,5.73.34,11.41.97,17.11,1.18,10.66,7.44,16.95,18.17,18.17.89.1,1.77.2,2.66.31-1.61-11.9-3.22-23.8-4.83-35.7-1.09.35-2.16.73-3.22,1.15,6.84,2.78,13.68,5.57,20.52,8.35h0c-8.5-14.95-35.38-9.26-33.87,9.17h0c4.45-5.84,8.89-11.68,13.34-17.52l-.42.16c-7.6,2.78-13.34,9.06-13.34,17.52,0,7.36,5.58,16.28,13.34,17.52l.44.07c-4.45-5.84-8.89-11.68-13.34-17.52.13,1.71-.7,4.31.41.09-.23.87-.36,1.74-.66,2.6-.31.91-.62,1.8-.96,2.7,1.53-4.08-.47.77-.75,1.33-2.61,5.24-5.53,10.32-7.94,15.66-6.11,13.55-9.28,27.32-5.63,42.1,2.7,10.9,7.18,21.34,9.51,32.33,2.36,11.17-1.11,25.63-2.89,38.06-2.52,17.56-2.52,33.68,1.91,51.01,4.05,15.83,9.63,31.14,18.07,45.17,7.31,12.14,14.8,23.54,25.76,32.71,12.54,10.5,25.98,20.18,40.81,27.18,33.51,15.81,72.1,19.1,105.45.94-9.12-5.23-18.23-10.46-27.35-15.69.34,5.34-.22,6.88-1.68,12.51-1.3,5.03-2.84,10-3.97,15.08-2.64,11.9,5.34,22.42,17.52,23,40.8,1.96,81.29-5.9,118.74-22,17.08-7.35,41.03-17.44,43.56-38.64,1.27-10.65-8.23-21.47-12.31-31.04-3.84-9-6.57-18.49-8.73-28.01-10.13,5.89-20.25,11.79-30.38,17.68.06.05.12.1.18.15-1.56-2.67-3.12-5.35-4.67-8.02,2.93,9.42,5.86,18.85,8.78,28.27,2.7,8.7,12.92,16.3,22.36,12.69,4.28-1.63,12.25-3.86,14.7-4.23,3.49-.52,7-.44,10.52-.47.6,0,3.14.21,1.16-.05,1.56.21,3.12.63,4.62,1.1,2.85.89-1.92-.95,1.26.48,1.7.77,3.35,1.71,4.99,2.59,2.97,1.59,5.9,3.26,8.96,4.7,7.99,3.75,15.84,6.35,24.78,6.19,7.21-.13,13.9-4.44,16.61-11.17,2.48-6.17,1.91-15.29-3.76-19.85-1.02-.75-1.97-1.58-2.85-2.5.79,1.29.59,1.01-.58-.84-2.03-2.79-.3.63-1.32-2.73-.4-1.26-.75-2.53-1.04-3.82-.35-2.11-.47-2.6-.37-1.49.09,1.11.04.61-.15-1.5-.11-1.35-.18-2.7-.21-4.06-.38-11.22.09-22.07-1.56-33.24-1.43-9.69-13.82-15.1-22.36-12.69-.5.14-1,.28-1.49.42,5.89,10.13,11.79,20.25,17.68,30.38,1.68-1.5,3.28-3.07,4.88-4.67-10.13-5.89-20.25-11.79-30.38-17.68h0c-2.16,8.94,2.79,20.49,12.69,22.36,15.67,2.95,30.15,2.49,46.74,1.06,14.07-1.21,28.34-2.88,42.08-6.27,15.68-3.86,31.18-10.06,43.1-21.26,11.99-11.27,19.98-28.51,18.13-45.13-1.09-9.75-7.58-18.17-18.17-18.17-8.98,0-19.27,8.36-18.17,18.17.15,1.37.22,2.73.31,4.11.03.46-.16,3.15.1,1.27-.18,1.33-.59,2.7-.99,3.97-.07.22-1.17,2.88-.48,1.39-2.11,4.55-4.48,7.54-8.71,10.66-8.44,6.25-19.37,8.91-29.94,11.13-10.95,2.29-18.3,3.09-29.52,3.97-6.27.5-12.55.54-18.83.88-2.54.14-5.14.67-7.27.52-2.3-.17-4.74-.73-7.05-1.05-3.6-.49,3.8.74-1.68-.29,4.23,7.45,8.46,14.9,12.69,22.36h0c4.2-17.37-17.26-30.81-30.38-17.68-1.59,1.59-3.19,3.17-4.88,4.67-13.83,12.3.8,35.14,17.68,30.38.5-.14,1-.28,1.49-.42-7.45-4.23-14.9-8.46-22.36-12.69-.23-1.51-.22-1.08.02,1.31.09,1.46.15,2.93.18,4.39.07,3.02.03,6.05.02,9.07-.02,5.63.02,11.19.71,16.78,1.58,12.91,6,26.21,16.5,34.66,4.28-10.34,8.57-20.68,12.85-31.02-1.87.03-3.62-.09-5.44-.75-3.45-1.26-6.72-3.43-9.96-5.17-6.49-3.48-13.2-6.81-20.52-7.98-14.94-2.37-30.59-.51-44.72,4.89,7.45,4.23,14.9,8.46,22.36,12.69-1.67-5.36-3.33-10.72-5-16.08-1.91-6.15-3.64-16.14-8.64-20.36-13.74-11.59-34.56-.75-30.38,17.68,4.48,19.74,12.16,38.78,22.55,56.14-.61-4.67-1.22-9.34-1.83-14,.84-1.17.67-.82-.5,1.04.79-1.15.45-.9-1.03.75.82-.72-3.71,2.35-4.65,2.88-5.49,3.1-11.25,5.85-17.02,8.37-10.36,4.54-21.19,8.13-32.12,11.06-23.5,6.3-47.27,8.61-71.61,7.43,5.84,7.67,11.68,15.34,17.52,23,2.72-12.26,7.75-24.47,6.94-37.25-.88-13.81-14.74-22.55-27.35-15.69-21.06,11.47-46.79,9.29-68.76-.94-12.01-5.59-23.31-13.01-33.46-21.5-10.03-8.38-13.51-14.31-20.65-26.3-3.47-5.84-5.87-10.24-7.68-15.55-2.53-7.41-4.97-14.89-6.78-22.51-3.02-12.71-1.96-25.04-.05-37.23,2.42-15.41,4.71-30.43,2.26-45.97-1.61-10.24-5.53-20.1-8.49-29.99-.68-2.26-1.34-4.53-1.89-6.82-1.34-5.56-.17,1.39-.17-1.78,0-1.05.1-4.22-.2-1.6.34-3.02,1.42-5.96,2.36-8.82,1.79-5.44-.76,1.47.63-1.57.63-1.38,1.29-2.73,1.97-4.08,5.55-11.05,13.52-22.87,12.5-35.82-.57-7.28-5.18-16.22-13.34-17.52l-.44-.07v35.05l.42-.16c7.06-2.58,14.02-9.22,13.34-17.52h0c-11.29,3.05-22.58,6.11-33.87,9.17h0c3.67,6.46,13.16,11.12,20.52,8.36,1.06-.42,2.14-.8,3.22-1.15,8.53-2.89,14.4-10.72,13.02-19.94-1.44-9.58-8.59-14.69-17.85-15.76-.89-.1-1.77-.2-2.66-.31,6.06,6.06,12.12,12.12,18.17,18.17-1-9.04,1.33-23.54-6.31-29.97-5.89,10.13-11.79,20.25-17.68,30.38h.02c11.52,2.45,22.9-5.17,23-17.52.2-22.76,4.36-46.02,10.72-67.85,5.11-17.54,13.36-33.8,25.67-47.76,27.06-30.71,65.36-45.38,105.82-51.35,24.55-3.62,49.76-5.13,75.23-2.57,10.6,1.07,17.07-9.26,18.17-18.17-1.2,9.75-1.47-.51-5.16,6.67-.3.03-.61.06-.91.09,1-.04,2.01-.02,3.01.04,3.62.12,7.1.46,10.48,1.17,3.22.68,6.17,1.46,8.71,2.73.91.45,3.36,2.11,3.43,1.89.5-1.43-2.58-4.14-1.94-6.25-2.98,9.86,3.6,19.18,12.69,22.36,12.55,4.38,24.74,9.54,36.4,15.95,5.22,2.87,10.37,5.95,15.15,9.51-1.96-1.45.38.34.64.55,1.35,1.11,2.67,2.28,4,3.42,3.03,2.63,6.03,5.29,8.97,8.01,4.19,3.88,8.29,7.87,12.17,12.07,1.55,1.68,3.04,3.4,4.53,5.13.34.39,2.48,3.02,1.05,1.21-1.4-1.76,1.37,1.88,1.65,2.29,2.11,3.03,3.92,6.18,5.63,9.44.37.7.65,1.44,1,2.14-.21-.42-1.34-4.02-.53-1.15.5,1.78,1.21,3.51,1.7,5.3.78,2.86,1.16,5.78,1.77,8.67-1.18-5.6-.04-.04.11,1.45.18,1.81.33,3.63.48,5.45.9,11.14,1.94,22.31,2.27,33.49.08,2.87.11,5.74-.05,8.61-.07,1.21-.27,2.44-.29,3.64-.05,3,.23-2.39.31-2.21.22.51-.32,2-.45,2.62-1.74,8.38-4.08,16.64-6.42,24.87-6.68,23.56-17.46,49.08-14.77,74.05.97,8.98,6.17,16.71,15.76,17.85,8.5,1.01,17.98-4.04,19.94-13.02.3-1.38.6-2.75.9-4.13-7.45,4.23-14.9,8.46-22.36,12.69,6.84,2.71,17.04,8.18,24.9,12.94,8.99,5.44,17.69,11.39,26.07,17.73,7.04,5.32,14.2,11.28,20.79,17.42,7.14,6.66,11.54,11.51,13.11,20.14,1.76,9.66,13.49,15.13,22.36,12.69,10.16-2.79,14.46-12.67,12.69-22.36Z"/>
          <path class="cls-1" d="M1501.31,311.59c.17.79.31,1.59.43,2.4-.22-1.61-.43-3.22-.65-4.83.35,2.69.34,5.4,0,8.09.22-1.61.43-3.22.65-4.83-.11.83-.25,1.66-.42,2.48,11.68,3.22,23.37,6.44,35.05,9.66.59-3.73,1.18-7.53,1.18-11.32,0-3.79-.57-7.58-1.18-11.31-.56-2.36-1.65-4.43-3.25-6.18-1.28-1.98-2.98-3.54-5.1-4.68-2.09-1.33-4.34-2.05-6.76-2.16-2.42-.54-4.83-.43-7.25.32-1.45.61-2.89,1.22-4.34,1.83-2.73,1.62-4.9,3.79-6.52,6.52-.61,1.45-1.22,2.89-1.83,4.34-.87,3.22-.87,6.44,0,9.66.07.41.13.82.18,1.24-.22-1.61-.43-3.22-.65-4.83.46,3.57.44,7.17-.04,10.73.22-1.61.43-3.22.65-4.83-.05.33-.1.66-.15.99-.76,2.42-.87,4.83-.32,7.25.11,2.42.83,4.67,2.16,6.76,1.14,2.12,2.7,3.82,4.68,5.1,1.76,1.61,3.82,2.69,6.18,3.25,1.61.22,3.22.43,4.83.65,3.28-.01,6.34-.84,9.17-2.48,1.23-.95,2.45-1.89,3.68-2.84,2.25-2.27,3.81-4.94,4.67-8.02.56-2.73.9-5.51,1.19-8.27.12-1.15.17-2.31.16-3.47-.01-1.08-.08-2.16-.21-3.24-.31-2.55-.58-5.13-1.13-7.64-.56-2.36-1.65-4.43-3.25-6.18-1.28-1.98-2.98-3.54-5.1-4.68-2.09-1.33-4.34-2.05-6.76-2.16-2.42-.54-4.83-.43-7.25.32-1.45.61-2.89,1.22-4.34,1.83-2.73,1.62-4.9,3.79-6.52,6.52-.61,1.45-1.22,2.89-1.83,4.34-.87,3.22-.87,6.44,0,9.66Z"/>
          <path class="cls-1" d="M1539.07,365.06c1.84-1.72,3.82-3.31,5.81-4.84-1.23.95-2.45,1.89-3.68,2.84,1.41-1.09,2.85-2.14,4.31-3.16-6.12-10.46-12.23-20.92-18.35-31.38-4.74,3.42-9.34,7.06-13.8,10.85-1.77,1.65-3.02,3.6-3.76,5.85-1.14,2.17-1.66,4.5-1.57,7-.09,2.5.43,4.84,1.57,7,.73,2.25,1.99,4.2,3.76,5.85,1.23.95,2.45,1.89,3.68,2.84,2.83,1.64,5.89,2.47,9.17,2.48,1.61-.22,3.22-.43,4.83-.65,3.08-.86,5.75-2.42,8.02-4.67,2.2-1.87,4.44-3.7,6.72-5.47-1.23.95-2.45,1.89-3.68,2.84,1.12-.86,2.25-1.71,3.4-2.54,2.12-1.14,3.82-2.7,5.1-4.68,1.61-1.76,2.69-3.82,3.25-6.18.76-2.42.87-4.83.32-7.25-.11-2.42-.83-4.67-2.16-6.76-.95-1.23-1.89-2.45-2.84-3.68-2.27-2.25-4.94-3.81-8.02-4.67-1.61-.22-3.22-.43-4.83-.65-3.28.01-6.34.84-9.17,2.48-3.78,2.64-7.45,5.46-11,8.41-.95.79-1.9,1.59-2.8,2.43-1.77,1.65-3.02,3.6-3.76,5.85-1.14,2.17-1.66,4.5-1.57,7-.09,2.5.43,4.84,1.57,7,.73,2.25,1.99,4.2,3.76,5.85,1.23.95,2.45,1.89,3.68,2.84,2.83,1.64,5.89,2.47,9.17,2.48,1.61-.22,3.22-.43,4.83-.65,3.08-.86,5.75-2.42,8.02-4.67Z"/>
          <path class="cls-1" d="M1593.89,288.38c-.09.39-.17.78-.26,1.17,8.9-3.62,17.8-7.24,26.7-10.86-2.18-1.26-4.36-2.53-6.57-3.75-4.67,11.07-9.34,22.14-14,33.22,1.77.51,3.55,1.04,5.25,1.75-1.45-.61-2.89-1.22-4.34-1.83.54.23,1.1.47,1.57.83,2.09,1.33,4.34,2.05,6.76,2.16,2.42.54,4.83.43,7.25-.32,2.36-.56,4.43-1.65,6.18-3.25,1.98-1.28,3.54-2.98,4.68-5.1.61-1.45,1.22-2.89,1.83-4.34.87-3.22.87-6.44,0-9.66-.61-1.45-1.22-2.89-1.83-4.34-1.62-2.73-3.79-4.9-6.52-6.52-.23-.17-.48-.31-.73-.44-1.79-.92-3.7-1.63-5.57-2.38-1.59-.63-3.23-1.13-4.87-1.6-2.42-.76-4.83-.87-7.25-.32-2.42.11-4.67.83-6.76,2.16-1.23.95-2.45,1.89-3.68,2.84-1.77,1.65-3.02,3.6-3.76,5.85-.82,1.42-1.24,2.95-1.24,4.59-.54,2.42-.43,4.83.32,7.25.61,1.45,1.22,2.89,1.83,4.34,1.62,2.73,3.79,4.9,6.52,6.52,2.2,1.23,4.38,2.49,6.57,3.75,2.83,1.64,5.89,2.47,9.17,2.48,2.5.09,4.84-.43,7-1.57,2.25-.73,4.2-1.99,5.85-3.76,2.25-2.27,3.81-4.94,4.67-8.02l.26-1.17c.76-2.42.87-4.83.32-7.25-.11-2.42-.83-4.67-2.16-6.76-1.14-2.12-2.7-3.82-4.68-5.1-1.76-1.61-3.82-2.69-6.18-3.25-1.61-.22-3.22-.43-4.83-.65-3.28.01-6.34.84-9.17,2.48-1.23.95-2.45,1.89-3.68,2.84-2.25,2.27-3.81,4.94-4.67,8.02Z"/>
          <path class="cls-1" d="M1481.4,293.91h.08c-4.23-7.44-8.46-14.89-12.69-22.34-1.5,4.91-3.44,9.7-5.43,14.43.61-1.45,1.22-2.89,1.83-4.34-1.75,4.13-3.56,8.24-5.47,12.3,11.07,4.67,22.14,9.34,33.22,14,3.15-7.79,6.3-15.58,9.45-23.37.45-1.13.91-2.25,1.36-3.38.76-2.42.87-4.83.32-7.25-.11-2.42-.83-4.67-2.16-6.76-2.21-3.77-6.53-7.37-10.86-8.35-4.65-1.06-9.87-.83-14,1.83-1.23.95-2.45,1.89-3.68,2.84-2.25,2.27-3.81,4.94-4.67,8.02-3.15,7.79-6.3,15.58-9.45,23.37-.45,1.13-.91,2.25-1.36,3.38-.76,2.42-.87,4.83-.32,7.25.11,2.42.83,4.67,2.16,6.76.95,1.23,1.89,2.45,2.84,3.68,1.65,1.77,3.6,3.02,5.85,3.76,1.42.82,2.95,1.24,4.59,1.24,2.42.54,4.83.43,7.25-.32,4.27-1.38,8.88-4.13,10.86-8.35,1.77-3.77,3.47-7.59,5.1-11.42,2.74-6.46,5.58-12.93,7.63-19.65.76-2.42.87-4.83.32-7.25-.11-2.42-.83-4.67-2.16-6.76-.95-1.23-1.89-2.45-2.84-3.68-2.27-2.25-4.94-3.81-8.02-4.67h-.08c-2.42-.77-4.83-.88-7.25-.34-2.42.11-4.67.83-6.76,2.16-3.77,2.21-7.37,6.53-8.35,10.86-1.06,4.65-.83,9.87,1.83,14,.95,1.23,1.89,2.45,2.84,3.68,2.27,2.25,4.94,3.81,8.02,4.67Z"/>
          <path class="cls-1" d="M1503.03,308.17c1.2-.28,2.4-.51,3.62-.68-1.61.22-3.22.43-4.83.65,1.53-.2,3.06-.3,4.59-.11-1.61-.22-3.22-.43-4.83-.65.77.11,1.51.29,2.23.58-1.45-.61-2.89-1.22-4.34-1.83.42.18.81.39,1.19.63-1.23-.95-2.45-1.89-3.68-2.84.08.07.17.15.25.22,7.34-9.51,14.68-19.03,22.02-28.54-2.77-1.19-4.9-2.28-7.77-2.69-2.77-.4-5.6-.89-8.41-.87-3.24.02-6.54.56-9.71,1.1-2.36.56-4.43,1.65-6.18,3.25-1.98,1.28-3.54,2.98-4.68,5.1-1.33,2.09-2.05,4.34-2.16,6.76-.54,2.42-.43,4.83.32,7.25.61,1.45,1.22,2.89,1.83,4.34,1.62,2.73,3.79,4.9,6.52,6.52,1.45.61,2.89,1.22,4.34,1.83,3.22.87,6.44.87,9.66,0,.38-.06.75-.12,1.13-.18-1.61.22-3.22.43-4.83.65,2.41-.32,4.85-.38,7.27-.06-1.61-.22-3.22-.43-4.83-.65,1.07.15,2.15.35,3.17.73-1.45-.61-2.89-1.22-4.34-1.83.11.05.21.09.32.14,2.09,1.33,4.34,2.05,6.76,2.16,2.42.54,4.83.43,7.25-.32,1.45-.61,2.89-1.22,4.34-1.83,2.12-1.14,3.82-2.7,5.1-4.68,1.13-1.13,1.91-2.47,2.34-4.01,1.14-2.17,1.66-4.5,1.57-7-.22-1.61-.43-3.22-.65-4.83-.86-3.08-2.42-5.75-4.67-8.02-.07-.07-.15-.13-.22-.2-.24-.21-3.43-2.69-3.71-2.87-.22-.14-.44-.27-.67-.39-1.56-.79-3.24-1.44-4.87-2.07-.24-.09-.48-.18-.72-.26-.49-.15-1-.24-1.51-.32-2.07-.3-4.18-.72-6.29-.75-1.86-.03-3.71.29-5.55.54-2.04.27-4.04.53-6.04,1-2.36.56-4.43,1.65-6.18,3.25-1.98,1.28-3.54,2.98-4.68,5.1-1.33,2.09-2.05,4.34-2.16,6.76-.54,2.42-.43,4.83.32,7.25.61,1.45,1.22,2.89,1.83,4.34,1.62,2.73,3.79,4.9,6.52,6.52,1.45.61,2.89,1.22,4.34,1.83,3.22.87,6.44.87,9.66,0Z"/>
          <path class="cls-1" d="M1553.22,315.72c-.47.13-.93.27-1.4.41,3.22,11.68,6.44,23.37,9.66,35.05,2.68-.86,5.41-1.53,8.2-1.91-1.61.22-3.22.43-4.83.65,2.9-.36,5.8-.4,8.7-.02-1.61-.22-3.22-.43-4.83-.65,2.34.35,4.59.97,6.76,1.88-1.45-.61-2.89-1.22-4.34-1.83.41.18.82.37,1.23.57,4.67-11.07,9.34-22.14,14-33.22-1.92-.72-3.89-1.28-5.91-1.66-3.46-.65-7.02-1.15-10.55-1.28-2.08-.07-4.15.03-6.22.27-3.52.41-7.05.84-10.48,1.73-4.38,1.14-8.58,4.46-10.86,8.35-1.33,2.09-2.05,4.34-2.16,6.76-.54,2.42-.43,4.83.32,7.25,1.42,4.4,4.15,8.64,8.35,10.86,4.36,2.3,9.15,3.1,14,1.83,1.72-.45,3.45-.79,5.21-1.03-1.61.22-3.22.43-4.83.65,3.54-.44,7.1-.45,10.63.02-1.61-.22-3.22-.43-4.83-.65,2.62.38,5.17,1.02,7.65,1.95,2.42.76,4.83.87,7.25.32,2.42-.11,4.67-.83,6.76-2.16,1.23-.95,2.45-1.89,3.68-2.84,1.77-1.65,3.02-3.6,3.76-5.85.82-1.42,1.24-2.95,1.24-4.59.54-2.42.43-4.83-.32-7.25-1.39-4.3-4.13-8.81-8.35-10.86-3.23-1.56-6.66-3.11-10.2-3.9-3.6-.8-7.39-1.32-11.09-1.32-5.89,0-12,1.05-17.61,2.86-4.47,1.44-8.45,4.24-10.86,8.35-1.33,2.09-2.05,4.34-2.16,6.76-.54,2.42-.43,4.83.32,7.25,1.42,4.4,4.15,8.64,8.35,10.86,4.27,2.26,9.26,3.26,14,1.83.47-.14.93-.28,1.4-.41,4.41-1.23,8.55-4.39,10.86-8.35,1.33-2.09,2.05-4.34,2.16-6.76.54-2.42.43-4.83-.32-7.25-1.42-4.4-4.15-8.64-8.35-10.86-4.32-2.28-9.2-3.17-14-1.83Z"/>
        </g>
      </g>
      <g>
        <g>
          <path class="cls-4" d="M1579.53,426.5c1.64,9.63.35,22.72,1.13,32.47.78,9.74,3.91,20.07,11.62,25.72-11.69.77-21.75-7.79-32.59-12.38-12.07-5.11-31.06-2.13-43.22,2.73l-8.78-28.27,71.84-20.26Z"/>
          <path class="cls-3" d="M1572.52,428.43c3.2,20.51-4.57,46.44,14.62,61.4,1.71-4.14,3.43-8.27,5.14-12.41-13.66.49-24.25-11.66-37.4-14.07-13.34-2.45-27.79-.2-40.34,4.67,2.98,1.69,5.96,3.38,8.94,5.08-2.93-9.42-5.86-18.85-8.78-28.27-1.69,2.98-3.38,5.96-5.08,8.94,20.93-5.9,41.87-11.81,62.8-17.71,3.01-.85,6.02-1.7,9.04-2.55,8.99-2.54,5.17-16.57-3.87-14.02-20.93,5.9-41.87,11.81-62.8,17.71-3.01.85-6.02,1.7-9.04,2.55-3.69,1.04-6.25,5.16-5.08,8.94,2.93,9.42,5.86,18.85,8.78,28.27,1.08,3.46,5.17,6.54,8.94,5.08,10.97-4.26,24.51-7.21,36.11-3.87,6.21,1.79,11.71,5.79,17.48,8.61,6.4,3.12,13.07,5.43,20.28,5.17,5.63-.2,10.45-8.27,5.14-12.41-7.32-5.7-9.32-14.86-9.67-23.73-.42-10.46.42-20.85-1.21-31.25-.61-3.88-5.47-6.03-8.94-5.08-4.14,1.14-5.69,5.05-5.08,8.94Z"/>
        </g>
        <g>
          <path class="cls-4" d="M1600.44,381.63c8.97,8.7,24.35,14.91,36.59,16.15,0,2.12-1.42,3.92-2.8,5.5-6.53,7.45-14.1,14.23-23.16,17.88-9.06,3.64-17.85,4.89-26.11-.42"/>
          <path class="cls-3" d="M1595.3,386.77c11.14,10.6,26.59,16.64,41.73,18.28-2.42-2.42-4.85-4.85-7.27-7.27,0-.07,0-.7.11-.72-.04,0-.7,1.06-.26.47-.67.9-1.51,1.73-2.27,2.55-1.58,1.72-3.22,3.39-4.93,4.98-3.35,3.12-6.56,5.57-10.73,7.8-3.45,1.84-8.07,3.55-11.96,4.04-3.99.51-7.42-.2-11.09-2.46-3.34-2.06-8-.72-9.95,2.61-2.03,3.47-.74,7.88,2.61,9.95,11.85,7.31,26.03,4.68,37.73-1.58,5.36-2.87,10.25-6.77,14.62-10.98,4.84-4.66,10.07-9.64,10.66-16.67.35-4.21-3.64-6.88-7.27-7.27-1.65-.18.54.14-1-.12-.75-.13-1.51-.25-2.26-.4-1.55-.31-3.09-.67-4.62-1.09-2.68-.73-6.48-2.03-8.35-2.83-3.02-1.29-5.95-2.84-8.74-4.58-2.95-1.85-4.12-2.75-6.48-4.99-2.84-2.71-7.46-2.83-10.28,0-2.73,2.73-2.85,7.57,0,10.28h0Z"/>
        </g>
        <g>
          <path class="cls-4" d="M1473.94,240.22c2.64,4.45,9.26,8.87,13.56,27.66,1.16,5.08-9.87,29.1-12.08,33.8,7.9-6.55,17.02-12.13,27.09-13.24,2.51-.28,5.21-.23,7.33,1.18,0,0,24.54,20.45-4.46,52.65l20.83,8.5s58.25-54.73,75.75,13.48c.42,1.63,1.48-.6,3.08-.93,6.01-1.22,11.29-4.83,16.19-8.62,12.6-9.74,24.15-21.47,31.28-35.98-14.63-.21-27.95-11.57-36.68-23.07"/>
          <path class="cls-3" d="M1467.67,243.89c2.11,3.33,4.84,6.18,6.85,9.59,2.48,4.21,6.09,11.75,5.7,16.07-.84,9.47-7.09,19.93-11.08,28.46-3.57,7.64,4.93,14.07,11.42,8.81,4.04-3.27,8.44-6.37,13.22-8.49,2.05-.91,4.21-1.66,6.41-2.15.43-.09,5.15-1.17,4.64-1.33,1.9.58,3.25,3.59,4.03,4.92,7.7,13.13.46,26.95-8.61,37.34-3.87,4.43-1.96,10.04,3.21,12.15,6.94,2.83,13.89,5.67,20.83,8.5,2.38.97,5.34-.25,7.07-1.87,7.2-6.73,16.71-13.23,27.09-16.64,6.85-2.25,14.34-3.17,20.87.52,3.96,2.24,6.88,5.83,9.17,9.7,1.69,2.86,3.05,5.88,4.16,9.01,1.1,3.12,1.52,7.34,3.48,10,2.48,3.37,6.07,4.46,9.95,2.61,4.7-2.25,9.65-3.74,14.12-6.71,5.43-3.61,10.57-7.87,15.39-12.26,9.36-8.52,17.46-18.45,23.22-29.75,2.56-5.03-.61-10.65-6.28-10.94-13.36-.67-23.78-10.97-31.54-20.94-5.74-7.38-15.96,2.98-10.28,10.28,10.35,13.3,24.42,24.33,41.82,25.2-2.09-3.65-4.18-7.29-6.28-10.94-5.25,10.31-12.4,19.04-20.94,26.81-4.2,3.82-8.61,7.6-13.42,10.63-4.12,2.59-8.81,3.99-13.15,6.06,3.32.87,6.63,1.74,9.95,2.61-1.98-2.68-2.66-8.42-4.04-11.67-1.45-3.42-3.07-6.75-5.17-9.83-3.28-4.81-7.31-9.12-12.33-12.16-8.9-5.38-19.64-5.73-29.5-3.17-13.47,3.5-26.44,11.82-36.56,21.29,2.36-.62,4.72-1.25,7.07-1.87-6.94-2.83-13.89-5.67-20.83-8.5,1.07,4.05,2.14,8.1,3.21,12.15,13.67-15.65,22.79-37.43,9.92-56.45-3.09-4.57-6.52-8.46-12.19-9.56-13.7-2.68-27.97,7.06-37.97,15.16,3.81,2.94,7.61,5.87,11.42,8.81,4.95-10.59,11.65-22.6,12.93-34.36,1.42-13.08-8.39-24.93-14.41-34.44-4.99-7.88-17.58-.6-12.55,7.34h0Z"/>
        </g>
      </g>
      <g>
        <g>
          <path class="cls-1" d="M1237.78,230.76c2.12,14.57-25.49,38.67-19.92,62.43,1.86,7.92,8.52,26.63,10.03,34.64,4.34,23.14-7.02,49.16-4.2,72.54,1.57,12.99,5.78,25.46,9.97,37.82,2.85,8.41,9.5,18.87,14.18,26.35,4.82,7.7,7.62,12.1,14.4,18,17.73,15.43,37.86,28.5,60.25,34.72,22.38,6.22,47.23,5.1,67.57-6.39"/>
          <path class="cls-3" d="M1230.51,230.76c.86,9.06-7.55,18.92-11.56,26.49-5.6,10.58-10.37,22.2-8.69,34.4,1.54,11.19,6.4,21.94,9.34,32.82,3.78,13.98,1.2,28.19-.99,42.23-2.43,15.61-3.55,30.33-.17,45.9,3.35,15.47,8.49,31.04,16.47,44.75,6.76,11.61,13.67,23.06,23.97,31.87,11.72,10.03,24.43,19.16,38.31,25.98,30.32,14.91,66.09,18.53,96.54,1.95,8.22-4.48.89-17.03-7.34-12.55-25.63,13.95-56.38,10.6-81.86-1.95-13.11-6.46-25.23-14.91-36.26-24.48-9.48-8.22-15.82-19.29-21.93-30.13-7.16-12.71-11.62-27.59-14.41-41.87-2.87-14.73-.25-29.08,1.97-43.7,1.96-12.96,3.49-26.08.46-39.01-2.36-10.09-6.23-19.78-8.88-29.79-3.24-12.23,2.79-23.38,8.62-33.83,4.81-8.62,11.93-18.69,10.94-29.08-.88-9.23-15.43-9.32-14.54,0h0Z"/>
        </g>
        <g>
          <path class="cls-1" d="M1390.06,510.87c1,9.51-4.37,23.06-6.29,32.42,44.14,2.35,88.83-7.55,128.16-28.39,6.99-3.7,14.46-8.59,16.29-16.49-9.72-15.98-16.78-33.68-20.79-52.1"/>
          <path class="cls-3" d="M1382.79,510.87c.66,10.4-3.82,20.48-6.03,30.49-1.06,4.76,2.14,8.97,7.01,9.2,38.79,1.87,77.55-5.22,113.23-20.52,12.77-5.47,36.75-13.96,38.36-30.67.42-4.35-3.14-8.41-5.11-12.05-2.37-4.39-4.56-8.87-6.51-13.46-4.04-9.51-7.03-19.41-9.3-29.49-2.05-9.12-16.07-5.26-14.02,3.87,4.28,19,11.52,37.13,21.52,53.84-.24-1.87-.49-3.73-.73-5.6-3.12,10.44-19.27,15.61-28.21,19.57-11.22,4.97-22.88,8.98-34.72,12.15-24.32,6.52-49.37,9.03-74.51,7.82,2.34,3.07,4.67,6.13,7.01,9.2,2.51-11.31,7.3-22.57,6.55-34.35-.59-9.29-15.13-9.36-14.54,0h0Z"/>
        </g>
        <g>
          <path class="cls-1" d="M1507.69,446.76c-.2,1.37,1.39,2.21,2.69,2.55,24.01,6.29,49.34-5.76,67.96-22.65,5.36-4.87,10.43-10.23,13.99-16.62,4.55-8.18,6.42-17.64,7.74-26.97,2.12-14.95,2.4-32.03-7.62-43.02-8.47-9.29-22.44-11.42-34.39-8.24-11.96,3.18-22.3,10.86-31.84,18.96-6.94-2.83-13.89-5.67-20.83-8.5,12.56-10.08,17.48-29.17,11.43-44.38-1.41-3.55-3.66-7.14-7.21-8.25,0,0-15.15-5.77-34.19,12.05l12.76-31.55-244.58-38.45"/>
          <path class="cls-3" d="M1500.68,448.69c2.27,8.48,12.98,9.15,20.35,9.52,9.58.47,19.4-1.47,28.31-4.92,17.56-6.8,34.47-18.85,45.69-34.1,11.07-15.04,14.62-37.68,13.34-56.03-1.25-17.91-10.53-34.21-28.93-38.72-22.31-5.46-42.06,7.45-58.37,21.17,2.36-.62,4.72-1.25,7.07-1.87-6.94-2.83-13.89-5.67-20.83-8.5,1.07,4.05,2.14,8.1,3.21,12.15,8.67-7.36,14.05-17.83,15.6-29.05,1.49-10.81-.17-25.06-8.98-32.58-13.93-11.89-36.1,1.08-46.86,10.77,4.05,2.36,8.1,4.72,12.15,7.07,4.25-10.52,8.5-21.03,12.76-31.55,1.36-3.37-1.51-8.38-5.08-8.94-27.49-4.32-54.99-8.64-82.48-12.97-43.88-6.9-87.76-13.8-131.64-20.69-10.15-1.6-20.3-3.19-30.45-4.79-9.15-1.44-13.1,12.57-3.87,14.02,27.49,4.32,54.99,8.64,82.48,12.97,43.88,6.9,87.76,13.8,131.64,20.69,10.15,1.6,20.3,3.19,30.45,4.79-1.69-2.98-3.38-5.96-5.08-8.94-4.25,10.52-8.5,21.03-12.76,31.55-2.94,7.26,7.29,11.45,12.15,7.07,5.52-4.97,12.14-9.64,19.72-10.65,2.48-.33,5.61-.79,7.33.47,5.19,3.82,5.01,15.12,4.06,20.65-1.36,7.94-5.32,14.64-11.43,19.83-4.63,3.93-1.35,10.29,3.21,12.15,6.94,2.83,13.89,5.67,20.83,8.5,2.47,1.01,5.23-.32,7.07-1.87,12.97-10.91,31.17-23.86,48.83-15.88,16.95,7.66,14.72,30.71,12.15,45.78-1.6,9.42-4.09,18.65-10.07,26.31-5.45,6.97-12.61,13.02-19.89,17.97-7.43,5.06-15.47,9.22-24.17,11.61-4.6,1.26-9.21,1.99-13.98,2.04-2.18.02-4.35-.07-6.51-.35-1.11-.12-2.21-.3-3.29-.56-3.04-1.14-2.95-.46.27,2.02-2.42-9.03-16.44-5.2-14.02,3.87h0Z"/>
        </g>
      </g>
      <g>
        <path class="cls-3" d="M1428.01,400.3c-1.25-3.67-2.86-7.38-5.8-9.96l-.53.31c.11-.2-13.38,25.82-87.11,51.87,6.07,11.09,10.45,23.07,12.94,35.41.2,1,.41,2.04.99,2.89.46.67,1.13,1.18,1.81,1.66,9.76,6.82,22.8,8.1,34.48,5.41,18.17-4.19,33.54-17.56,41.22-34.18,7.67-16.62,7.9-36.1,2-53.4Z"/>
        <path class="cls-3" d="M1431.52,399.34c-1.54-4.34-3.4-8.3-6.73-11.57-1.15-1.12-3.01-1.39-4.4-.57-.76.45-1.25.95-1.83,1.62-.33.57-.49,1.18-.5,1.83.63-1.78.79-2.38.48-1.8-.12.15-.17.42-.32.54-.83.65-1.43,2.01-1.57,2.18-3.39,4.17-7.41,7.82-11.59,11.18-20.79,16.72-46.55,27.41-71.44,36.26-2.25.8-3.35,3.16-2.17,5.34,3.67,6.81,6.76,13.87,9.12,21.25,1.05,3.27,1.96,6.59,2.73,9.94.68,2.93.96,6,3.06,8.3,7.97,8.73,23.93,9.96,34.78,8.39,24.73-3.58,45.06-23.2,51.84-46.88,4.31-15.06,3.42-31.22-1.46-46.01-1.46-4.42-8.48-2.53-7.01,1.93,9.42,28.6,1.22,61.71-25.95,77.31-12.34,7.08-28.5,9.83-41.73,3.49-1.4-.67-3.65-1.53-4.67-2.73-1.24-1.45-1.44-3.94-1.85-5.73-.9-3.91-1.99-7.77-3.27-11.57-2.47-7.38-5.63-14.5-9.31-21.35-.72,1.78-1.45,3.56-2.17,5.34,25.61-9.11,51.59-20.06,73.16-36.95,4.54-3.56,8.94-7.4,12.65-11.84,1.53-1.83,3.72-4.08,3.97-6.58-.6,1.05-1.2,2.09-1.8,3.14.18-.1.35-.21.53-.31-1.47-.19-2.94-.38-4.4-.57,2.43,2.38,3.73,5.18,4.86,8.36,1.55,4.38,8.58,2.49,7.01-1.93Z"/>
      </g>
      <g>
        <path class="cls-1" d="M1353.81,435.17c-2.87,1.31,6.13,7.48,6.6,10.61.06.38.11.78.33,1.09.48.67,1.48.65,2.3.53,3.56-.53,6.96-1.79,10.28-3.14,12.32-5.01,24.03-11.43,34.98-18.89,8.08-5.5,16.01-11.87,20.33-20.52,0,0,1.13-9.27-6.42-14.52,0,0-6.04,16.43-68.4,44.83Z"/>
        <path class="cls-3" d="M1351.98,432.04c-6.97,4.52,2.86,10.43,4.83,14.4.74,1.49.81,2.8,2.42,3.8,1.88,1.17,4.04.85,6.12.44,5.59-1.11,10.97-3.65,16.14-5.99,10.56-4.78,20.67-10.58,30.18-17.21,4.1-2.86,8.12-5.92,11.67-9.45,3.17-3.16,7.57-7.74,8.81-12.2,1.91-6.88-2.9-14.72-8.09-18.62-2.04-1.54-4.61.23-5.34,2.17.66-1.76-.38.47-.75,1.05-.13.2-.78,1.07-.45.64.28-.37-.63.77-.87,1.04-.92,1.07-1.91,2.09-2.92,3.08-8.32,8.11-18.51,14.34-28.54,20.07-10.77,6.15-21.92,11.63-33.2,16.78-4.25,1.94-.56,8.21,3.67,6.28,17.56-8.03,35.14-16.73,50.91-27.97,6.32-4.51,12.89-9.48,17.42-15.88.71-1,1.31-2,1.74-3.15-1.78.72-3.56,1.45-5.34,2.17,2.88,2.16,5.84,7.49,4.62,11.33.55-1.73-.84.62-.98.84-.52.85-1.07,1.69-1.67,2.49-1.25,1.69-2.68,3.25-4.17,4.73-2.83,2.81-5.95,5.3-9.2,7.61-6.98,4.97-14.33,9.43-21.92,13.4-3.86,2.02-7.78,3.9-11.78,5.64-2.21.96-4.44,1.89-6.71,2.68-1.09.38-5.07,2.22-6.01,1.53.56.72,1.11,1.45,1.67,2.17-.77-2.54-1.88-4.36-3.65-6.35-.79-.89-1.63-1.73-2.43-2.61-.32-.35-.62-.87-1.01-1.13-.11-.16-.21-.32-.32-.48-.88.61-1.28,1.6-1.19,2.98,3.91-2.54.27-8.83-3.67-6.28Z"/>
      </g>
      <path class="cls-3" d="M1352.34,334.7c.72-1.35,1.53-2.65,2.44-3.89.04-.05.42-.56.2-.27s.21-.26.21-.26c.24-.29.48-.58.73-.87.5-.57,1.01-1.12,1.55-1.64.53-.52,1.09-1.03,1.67-1.51.12-.1.23-.19.35-.28-.47.4.09-.07.16-.12.27-.2.55-.39.83-.57.62-.4,1.27-.74,1.93-1.06.3-.14-.44.14.06-.01.17-.05.34-.12.51-.17.38-.12.77-.21,1.16-.29,1.4-.28,2.33-2.02,1.9-3.35-.48-1.49-1.85-2.2-3.35-1.9-3.45.68-6.43,2.87-8.91,5.26-2.46,2.37-4.54,5.18-6.14,8.19-.67,1.26-.36,3.02.98,3.73,1.26.67,3.01.37,3.73-.98h0Z"/>
      <path class="cls-3" d="M1447.52,339.3c4.43-2.42,8.86-4.83,13.29-7.25,2.51-1.37,3.52-5.04,1.96-7.46-1.64-2.54-4.78-3.42-7.46-1.96-4.43,2.42-8.86,4.83-13.29,7.25-2.51,1.37-3.52,5.04-1.96,7.46,1.64,2.54,4.78,3.42,7.46,1.96h0Z"/>
      <path class="cls-3" d="M1440.97,354.87c6.15,1.24,12.17,3.02,17.99,5.34,1.23.49,3.11.09,4.2-.55,1.13-.66,2.21-1.96,2.51-3.26.32-1.4.25-2.96-.55-4.2s-1.87-1.95-3.26-2.51c-5.83-2.32-11.85-4.1-17.99-5.34-1.45-.29-2.9-.21-4.2.55-1.13.66-2.21,1.96-2.51,3.26-.62,2.71.82,6.1,3.81,6.71h0Z"/>
      <path class="cls-3" d="M1357.48,351.5c9.37-5.02,18.71-10.37,28.87-13.64,6.48-2.09,20.19-6.46,24.75,1.04,4.86,7.98,17.44.68,12.55-7.34-7.84-12.89-23.99-12.3-36.89-8.97-12.99,3.36-24.88,10.05-36.62,16.35-8.25,4.42-.92,16.98,7.34,12.55h0Z"/>
      <path class="cls-3" d="M1350.11,312.2c.14-.4.3-.79.44-1.18.29-.86-.63,1.34-.05.11.36-.76.71-1.52,1.1-2.26.78-1.48,1.67-2.9,2.63-4.27.19-.27.39-.54.59-.81.98-1.35-.7.82-.06.08.55-.63,1.07-1.28,1.63-1.9,1.12-1.23,2.31-2.4,3.55-3.51.59-.52,1.19-1.02,1.8-1.51,1.35-1.1-.83.58,0,0,.36-.25.72-.53,1.08-.78,1.45-1.02,2.95-1.97,4.49-2.85,1.54-.88,3.12-1.69,4.72-2.44.32-.15.64-.3.97-.44.06-.03,1.64-.71.59-.27-1.02.43.39-.16.6-.24.49-.2.99-.38,1.48-.57,3.55-1.34,6.36-4.97,5.08-8.94-1.12-3.46-5.13-6.52-8.94-5.08-8.1,3.06-15.64,7.07-22.16,12.84-6.17,5.46-10.8,12.41-13.57,20.15-1.28,3.59,1.45,8.12,5.08,8.94,4.08.93,7.57-1.24,8.94-5.08h0Z"/>
      <path class="cls-3" d="M1246.51,276.63c.5-.7,1.06-1.39,1.97-2.31.45-.45.91-.89,1.39-1.31.27-.23,1.33-1.02.54-.46.95-.68,1.96-1.28,3-1.82.15-.08,1.78-.8.99-.48-.8.32.86-.28,1.01-.34,1.04-.34,2.1-.61,3.18-.83.18-.04,1.94-.34.95-.19-.89.13.58-.05.7-.06,1.56-.12,3.11-.01,4.67.1.93.07.15.03-.33-.06.56.1,1.12.18,1.68.29.98.19,1.96.42,2.92.68,1.02.28,2.03.59,3.03.95.41.15.82.31,1.23.46,1.96.73-.69-.34.42.18,4.89,2.3,7.43,4.1,10.79,7.96,2.58,2.97,7.64,2.64,10.28,0,2.94-2.94,2.58-7.31,0-10.28-7.64-8.79-19.06-13.79-30.54-14.76-12.25-1.04-23.45,5.14-30.42,14.95-2.28,3.2-.57,8.09,2.61,9.95,3.65,2.13,7.66.6,9.95-2.61h0Z"/>
      <path class="cls-3" d="M1265.01,303.92h0c-10.42,0-18.87,7.46-18.87,16.65v8.06c.98-.23,2-.36,3.05-.36,7.24,0,13.12,5.69,13.12,12.7s-5.87,12.7-13.12,12.7c-1.05,0-2.07-.13-3.05-.36v8.8c0,9.2,8.45,16.65,18.87,16.65h0c10.42,0,18.87-7.46,18.87-16.65v-41.54c0-9.2-8.45-16.65-18.87-16.65Z"/>
      <path class="cls-3" d="M1289.31,341.03c-1.2,7.45-4.01,14.19-7.85,20.64-1.93,3.24-4.06,6.37-6.27,9.43-1.92,2.65-3.85,5.79-6.72,7.49-3.38,2-4.6,6.53-2.61,9.95,1.67,2.86,2.39,6.4,4.28,9.31,1.88,2.9,4.17,5.64,6.84,7.85,5.88,4.88,12.54,7.66,20.15,8.34,3.92.35,7.27-3.59,7.27-7.27,0-4.22-3.34-6.92-7.27-7.27s-8.12-2.36-11.22-5.27c-1.74-1.64-3.01-3.23-4.15-5.27-1.35-2.41-1.87-5.23-3.34-7.75-.87,3.32-1.74,6.63-2.61,9.95,4.25-2.52,7.11-6.21,10.03-10.11,2.69-3.59,5.28-7.27,7.62-11.1,4.69-7.68,8.43-16.12,9.88-25.04.63-3.87-1-7.82-5.08-8.94-3.47-.95-8.31,1.18-8.94,5.08h0Z"/>
      <path class="cls-3" d="M1563.53,354.33c-8.53,1.25-15.77,5.98-21.39,12.37-2.5,2.84-4.64,5.96-6.75,9.09-2.59,3.83-5.37,7.72-6.46,12.3-1.16,4.86-.68,10.15,2.23,14.32,1.49,2.13,3.49,3.68,5.66,5.08.58.37,2.29,1.55,2.48,1.55,2.24-3.38,2.62-4.58,1.14-3.6-.49.29-.98.58-1.48.86-1.11.64-2.22,1.27-3.32,1.9-2.22,1.27-4.43,2.53-6.65,3.8-4.8,2.74-9.61,5.48-14.41,8.23-8.12,4.64-.81,17.2,7.34,12.55,8.69-4.96,17.87-9.51,26.24-15,4.62-3.03,6.65-8.11,4.88-13.44-.77-2.34-2.24-4.46-4.07-6.09-1.44-1.29-4.54-2.39-5.67-3.87-1.35-1.78.44-4.71,1.49-6.46,1.95-3.22,4.11-6.45,6.4-9.44,1.49-1.94,4.82-5.48,7.03-7,2.3-1.58,6.06-2.66,9.18-3.12,3.89-.57,6.03-5.49,5.08-8.94-1.15-4.17-5.04-5.65-8.94-5.08h0Z"/>
      <path class="cls-3" d="M1234.84,238.12c12.49-4.69,26.01-5.25,39.2-6.26,12.81-.98,25.64-1.68,38.48-2.07,26.1-.8,52.26-.32,78.3,1.73,50.29,3.95,100.2,13.95,147.6,31.37,26.24,9.64,51.54,21.64,75.6,35.88,4.03,2.39,7.7-3.89,3.67-6.28-89.1-52.76-193.26-72.13-295.87-70.2-15.06.28-30.11,1-45.13,2.1-14.61,1.07-29.93,1.51-43.78,6.72-4.34,1.63-2.46,8.66,1.93,7.01h0Z"/>
      <g>
        <path class="cls-3" d="M1234.86,233.01c-3.13-25.88,1.67-51.82,7.15-76.93,5.91-27.11,16.32-49.96,35.93-71.24,17.11-18.56,35.58-29.1,59.06-39.88,22.79-10.46,51.23-13.39,76.51-16.81,25.28-3.41,52.45-1.03,77.84,2.9,26.23,4.06,71.54,21.91,91.7,38.99,42.56,36.06,45.83,50.49,47.85,76.29q3.41,43.44-2.16,64.47c-10.18,38.47-20.11,60.49-17.11,81.61,0,0,9.08-3.84-121.41-24.53-130.49-20.69-255.35-34.87-255.35-34.87Z"/>
        <path class="cls-3" d="M1238.5,233.01c-3.3-29.75,2.09-61.32,10.58-89.87,7.67-25.8,22.21-48.83,42.54-66.54,19.48-16.97,44.97-29.89,69.95-36.2,27.06-6.83,56.57-10.91,84.47-10.17,25.92.69,51.7,4.28,76.24,12.76,22.15,7.66,44.34,17.58,62.19,33.03,14.59,12.63,31.19,26.98,38.21,45.56,6.08,16.1,5.64,35.18,6.57,52.09.96,17.32-2.73,32.02-7.46,48.65-6.34,22.26-16.82,46.46-13.8,70.08.37,2.88,2.77,4.33,5.47,3.14,5.71-2.53-.88-7.47-3.61-8.5-13.76-5.2-29.21-7.21-43.57-9.91-87.76-16.47-176.49-28.4-265.05-39.67-22.11-2.81-44.22-5.57-66.36-8.09-4.64-.53-4.6,6.75,0,7.27,54.28,6.17,108.47,13.35,162.56,21.01,46.17,6.53,92.29,13.47,138.25,21.37,21.49,3.69,43.21,7.19,64.34,12.68,2.11.55,4.22,1.12,6.3,1.8,1.53.5,2.11,1.02,2.56.96,1.01-.11-.25.41-.63-1.37-.3-1.37.26-3.25,1.55-3.82,1.82,1.05,3.65,2.09,5.47,3.14-2.93-22.96,7.37-46.49,13.54-68.15,4.27-14.98,8.49-29.4,7.98-45.08-.37-11.37-1.4-22.76-2.35-34.09-.59-7.12-1.34-14.31-3.34-21.19-5.29-18.19-18.95-32.45-32.51-44.99-17.97-16.62-37.37-28.31-60.05-37.53-24.22-9.85-48.71-15.09-74.72-17.37-30-2.63-59.77.75-89.29,6.19-27.1,4.99-53,15.74-75.62,31.58-24.08,16.86-42.65,40.73-53.06,68.21-5.98,15.79-9.3,32.6-12.1,49.21-3.01,17.82-4.5,35.8-2.51,53.82.51,4.6,7.78,4.65,7.27,0Z"/>
      </g>
      <g>
        <path class="cls-2" d="M1287.46,208.72c5.05-15.73,12.26-27.49,24.85-37.74,3.57-2.91,7.41-5.53,11.67-7.17,4.81-1.85,9.99-2.39,15.11-2.69,10.68-.62,21.6-.23,31.72,3.35,10.12,3.58,18.23,8.76,24.93,17.38,7.2,9.26,6.71,37.62,6.55,51.14"/>
        <path class="cls-3" d="M1290.96,209.69c4.97-15.09,13.24-28.58,26.31-37.98,7.82-5.63,16.41-6.86,25.83-7.14,9.04-.27,18.14.38,26.74,3.4,7.46,2.62,14.38,6.66,19.86,12.41,4.33,4.55,6.12,9.3,7.23,15.41,2.23,12.19,1.87,24.85,1.72,37.19-.06,4.68,7.21,4.68,7.27,0,.17-14.57.85-30.13-3.15-44.29-4.15-14.7-19.07-24.05-32.91-28.36-9.89-3.08-20.5-3.46-30.77-2.84-9.3.56-17.77,2.45-25.49,7.95-14.72,10.5-24.06,25.35-29.65,42.32-1.47,4.45,5.55,6.36,7.01,1.93h0Z"/>
      </g>
      <g>
        <path class="cls-1" d="M1282.65,233.85c1.35-8.06,3.33-16.02,5.9-23.79.38-1.16.82-2.37,1.83-3.13,1.23-.93,2.97-.93,4.57-.88,38.09,1.2,74.81.38,106.84,20.55,0,11.45-.32,19.53-3.33,24.49"/>
        <path class="cls-3" d="M1286.16,234.81c1.03-5.86,2.29-11.67,3.93-17.39.89-3.13,1.14-6.98,4.86-7.73,2.47-.5,5.75.17,8.29.24,11.19.31,22.4.57,33.56,1.45,22.25,1.76,43.97,6.54,63.16,18.36-.6-1.05-1.2-2.09-1.8-3.14-.02,7.26.78,16.06-2.83,22.66-2.25,4.11,4.03,7.78,6.28,3.67,2.84-5.19,3.41-11.11,3.67-16.94.14-3.11,1.21-8.34-.34-11.22-1.28-2.38-6.11-4.19-8.37-5.38-14-7.38-29.34-11.51-44.96-13.68-16.03-2.23-32.22-2.61-48.37-3.05-5.62-.15-13.72-1.99-17.14,3.85-4.29,7.33-5.5,18.13-6.94,26.37-.8,4.58,6.2,6.54,7.01,1.93h0Z"/>
      </g>
      <g>
        <path class="cls-3" d="M1301.13,222.95c.09.04.09-.14.01-.2-.29-.21-.74.12-.71.49.03.37.4.64.76.64s.69-.2.96-.45c.07-.07.15-.14.18-.24.04-.11,0-.23-.04-.33-.19-.36-.71-.45-1.04-.22-.33.23-.46.7-.35,1.1.06.23.22.47.46.48.35.03.54-.46.45-.81-.09-.36-.37-.68-.72-.76-.35-.08-.76.1-.9.45-.14.34.05.8.4.9"/>
        <path class="cls-3" d="M1300.17,226.45c.93.29,2.01.12,2.84-.37.83-.48,1.44-1.29,1.69-2.21.36-1.3-.02-2.73-.97-3.69-.52-.52-1-.75-1.69-.99-.32-.11-.94-.15-1.06-.16-.73-.04-1.44.21-2.07.54-.68.36-1.07.86-1.51,1.47-.24.33-.41.73-.48,1.13-.13.75-.23,1.44.04,2.18s.53,1.29,1.1,1.84c.84.82,1.95,1.28,3.13,1.29.37,0,.78-.08,1.12-.14.06-.01.12-.02.18-.05.41-.14.84-.3,1.21-.54.37-.24.72-.51,1.04-.81.5-.48.96-1.21,1.1-1.89.17-.79.18-1.26,0-2.05-.08-.35-.25-.7-.42-1.02-.38-.69-.85-1.06-1.47-1.51-.04-.03-.09-.06-.13-.08-.32-.15-.65-.32-.99-.41s-.71-.12-1.07-.15c-.06,0-.12,0-.19,0-.91.08-1.25.14-2.06.56-.36.19-.71.45-.98.76-.62.69-.76,1-1.09,1.86-.16.4-.17.88-.21,1.29,0,.05,0,.1,0,.15.01.37.08.75.15,1.12.08.42.26.82.48,1.18.36.61.89,1.16,1.51,1.51.3.17.64.31.97.41.72.21,1.34.16,2.06,0,.02,0,.05,0,.07-.02h.02c.29-.13.58-.25.87-.37.31-.16.58-.4.83-.63.29-.27.56-.6.72-.96.4-.88.49-1.11.56-2.1,0-.05,0-.09,0-.14-.03-.36-.05-.77-.16-1.13-.11-.34-.26-.66-.41-.98-.03-.06-.05-.11-.09-.16-.2-.3-.42-.59-.66-.86-.04-.05-.08-.09-.13-.13-.67-.56-1.04-.82-1.89-1.09-.8-.25-1.48-.17-2.27-.03-.42.08-.83.26-1.19.48-.02.02-.05.03-.07.05-.25.19-.49.38-.74.57-.01.01-.03.02-.04.04-.27.25-.48.56-.68.86-.02.02-.03.05-.04.07,0,.02-.02.04-.02.05l-.37.87c-.12.33-.16.95-.17,1.12,0,.06,0,.13,0,.19,0,0,.06.79.16,1.1.12.35.25.7.43,1.02.01.02.03.04.04.07.19.25.38.49.57.74.01.01.02.03.03.04.48.53,1.19.9,1.87,1.1.48.15.97.17,1.45.06.48-.02.93-.17,1.35-.43.42-.23.76-.54,1.02-.94.32-.35.54-.76.65-1.24l.13-.97c0-.66-.17-1.27-.5-1.83-.19-.25-.38-.49-.57-.74-.45-.45-.99-.76-1.6-.93-.03,0-.05-.02-.07-.03.29.12.58.24.87.37-.04-.02-.08-.04-.11-.07.25.19.49.38.74.57-.04-.03-.08-.07-.11-.11.19.25.38.49.57.74-.04-.05-.07-.1-.09-.16l.37.87c-.02-.06-.04-.12-.05-.18.04.32.09.64.13.97,0-.06,0-.13,0-.19l-.13.97c0-.05.02-.11.04-.16-.12.29-.24.58-.37.87.03-.06.06-.12.1-.17-.19.25-.38.49-.57.74.04-.04.08-.08.12-.12-.25.19-.49.38-.74.57.06-.05.13-.08.2-.11-.29.12-.58.24-.87.37.06-.02.13-.04.19-.05l-.97.13c.08,0,.15,0,.23,0-.32-.04-.64-.09-.97-.13.07.01.13.03.2.06-.29-.12-.58-.24-.87-.37.06.03.12.06.18.11-.25-.19-.49-.38-.74-.57.07.06.14.12.19.19-.19-.25-.38-.49-.57-.74.06.08.11.17.15.27l-.37-.87c.03.07.05.15.06.23-.04-.32-.09-.64-.13-.97,0,.07,0,.14,0,.22.04-.32.09-.64.13-.97-.01.07-.03.14-.05.21l.37-.87c-.02.06-.05.11-.09.15.19-.25.38-.49.57-.74-.03.03-.05.06-.08.08.25-.19.49-.38.74-.57-.03.02-.05.03-.08.05.29-.12.58-.24.87-.37-.03.01-.06.02-.09.02l.97-.13s-.07,0-.1,0c.32.04.64.09.97.13-.03,0-.05-.01-.08-.02l.87.37s-.07-.03-.1-.06c.25.19.49.38.74.57-.04-.03-.07-.06-.1-.1.19.25.38.49.57.74-.04-.06-.08-.12-.11-.18l.37.87c-.03-.08-.05-.15-.06-.23.04.32.09.64.13.97-.01-.11-.01-.22,0-.33-.04.32-.09.64-.13.97.01-.09.04-.18.07-.26l-.37.87c.04-.08.08-.16.13-.23-.19.25-.38.49-.57.74.04-.05.09-.1.15-.14-.25.19-.49.38-.74.57.04-.03.09-.06.14-.08-.29.12-.58.24-.87.37.07-.03.13-.05.21-.06-.32.04-.64.09-.97.13.07,0,.14,0,.21,0l-.97-.13c.06.01.12.03.18.05-.29-.12-.58-.24-.87-.37.06.02.11.05.16.09-.25-.19-.49-.38-.74-.57.04.03.08.07.11.11-.19-.25-.38-.49-.57-.74.03.04.05.08.07.12-.12-.29-.24-.58-.37-.87.02.04.03.09.04.13-.04-.32-.09-.64-.13-.97,0,.04,0,.07,0,.1.04-.32.09-.64.13-.97,0,.04-.01.06-.03.1.12-.29.24-.58.37-.87-.02.03-.03.06-.05.09.19-.25.38-.49.57-.74-.07.09-.16.16-.25.23l.74-.57c-.12.09-.25.17-.39.24.29-.12.58-.24.87-.37-.1.04-.19.07-.3.08l.97-.13c-.08,0-.15.01-.22,0,.32.04.64.09.97.13-.08-.01-.15-.03-.23-.06.29.12.58.24.87.37-.06-.03-.12-.06-.18-.1.25.19.49.38.74.57-.05-.04-.1-.09-.14-.14.19.25.38.49.57.74-.03-.04-.05-.08-.07-.12l.37.87c-.02-.05-.04-.11-.05-.17.04.32.09.64.13.97,0-.04,0-.07,0-.11-.04.32-.09.64-.13.97,0-.04.02-.09.03-.13l-.37.87s.05-.09.08-.14c-.19.25-.38.49-.57.74.03-.04.07-.08.11-.11-.25.19-.49.38-.74.57.04-.03.07-.05.11-.06-.29.12-.58.24-.87.37.04-.02.08-.03.12-.03-.32.04-.64.09-.97.13.03,0,.06,0,.1,0-.32-.04-.64-.09-.97-.13.03,0,.06.01.09.03-.29-.12-.58-.24-.87-.37.02.01.04.02.07.04-.25-.19-.49-.38-.74-.57.01,0,.02.02.03.03-.19-.25-.38-.49-.57-.74v.02c-.11-.29-.23-.58-.36-.87,0,.02.01.04.02.06-.04-.32-.09-.64-.13-.97,0,.01,0,.03,0,.04l.13-.97s0,.02,0,.03l.37-.87h0c.19-.23.38-.48.57-.72h0c.53-.3,1.07-.61,1.6-.93h-.01c.32-.04.64-.08.97-.12h-.01c.32.04.64.09.97.13h-.02c-.48-.16-.97-.18-1.45-.07-.48.02-.93.17-1.35.43-.42.23-.76.54-1.02.94-.32.35-.54.76-.65,1.24-.04.32-.09.64-.13.97,0,.66.17,1.27.5,1.83.19.25.38.49.57.74.45.45.99.76,1.6.93h0Z"/>
      </g>
      <g>
        <path class="cls-3" d="M1328.72,224.75c-.14-.24-.48-.3-.73-.17-.24.13-.39.41-.44.68-.08.48.12,1.01.53,1.24.41.23,1,.09,1.21-.34.21-.43-.08-1.05-.54-1.09-.11,0-.23.01-.32.08-.29.2-.14.75.2.83s.69-.23.74-.58c.05-.36-.14-.71-.4-.95-.14-.13-.32-.23-.51-.22-.33.03-.54.41-.51.75.03.34.23.63.42.91"/>
        <path class="cls-3" d="M1331.85,222.92c-.38-.62-.86-1.12-1.49-1.48-.65-.37-1.34-.55-2.09-.56s-1.41.2-2.09.55c-.3.15-.69.51-.85.63-.05.04-.1.09-.14.14-.61.71-.75.98-1.08,1.87-.02.05-.04.11-.05.16,0,.03-.01.07-.02.1-.06.33-.11.69-.14,1.03,0,.05,0,.11,0,.16.01.38.08.76.15,1.13.07.39.32.89.46,1.18.17.37.48.71.73,1.01.26.31.64.57.96.78.34.22.73.38,1.12.48.36.09.73.12,1.09.15.06,0,.11,0,.17,0,.39-.03.84-.05,1.23-.19.87-.3,1.15-.48,1.84-1.07.3-.25.53-.6.74-.92.2-.3.31-.66.43-.99.02-.05.03-.1.04-.16,0-.04.14-.74.14-1.08,0-.03,0-.06,0-.08-.02-.29-.08-.71-.13-.99-.07-.41-.27-.8-.46-1.16-.18-.34-.44-.66-.71-.93-.57-.57-1.07-.82-1.82-1.08-.39-.14-.82-.19-1.23-.16-.82.05-.92.09-1.55.35-.55.23-.8.35-1.29.84-.46.46-.86,1.13-1.02,1.77-.19.76-.19,1.4,0,2.16.26,1.04,1,2.01,1.93,2.54.3.17.63.33.98.4h.03c.32.05.64.09.97.13.03,0,.06,0,.09,0,.73-.03,1.47-.19,2.09-.59.68-.44,1.07-.82,1.51-1.51.23-.35.41-.76.49-1.17.17-.88.18-1.36-.01-2.25-.09-.42-.28-.83-.5-1.2-.62-1.03-1.61-1.86-2.78-2.18-.35-.1-.76-.16-1.14-.14-.87.06-1.17.14-1.94.53-.03.01-.05.02-.07.04-.14.09-.27.19-.39.3-.13.1-.26.2-.39.3-.02.02-.04.04-.06.06-.01.01-.03.03-.04.04-.19.25-.38.49-.57.74-.12.18-.19.39-.27.59s-.19.4-.24.61c-.19.91-.18,1.34,0,2.26.01.07.04.14.06.21.13.35.27.71.45,1.04.08.15.17.28.26.42.23.42.54.76.94,1.02.35.32.76.54,1.24.65.48.15.97.17,1.45.06.48-.02.93-.17,1.35-.43.25-.19.49-.38.74-.57.45-.45.76-.99.93-1.6.04-.32.09-.64.13-.97,0-.66-.17-1.27-.5-1.83-.12-.18-.24-.35-.33-.55l.37.87c-.04-.1-.07-.21-.09-.32.04.32.09.64.13.97,0-.07,0-.15,0-.22l-.13.97c.01-.07.03-.14.06-.21-.12.29-.24.58-.37.87.02-.06.05-.11.09-.16-.19.25-.38.49-.57.74.04-.05.08-.09.12-.12-.25.19-.49.38-.74.57.03-.02.06-.04.1-.06l-.87.37s.07-.02.11-.03l-.97.13s.09,0,.14,0c-.32-.04-.64-.09-.97-.13.05,0,.1.02.14.04-.29-.12-.58-.24-.87-.37.07.03.13.07.2.12-.25-.19-.49-.38-.74-.57.08.07.16.15.23.23-.19-.25-.38-.49-.57-.74.06.09.12.18.16.28l-.37-.87c.03.08.05.16.07.24-.04-.32-.09-.64-.13-.97.01.08.01.16,0,.25.04-.32.09-.64.13-.97,0,.05-.02.11-.04.16.12-.29.24-.58.37-.87-.03.06-.06.12-.1.17.19-.25.38-.49.57-.74-.04.05-.08.1-.13.14.25-.19.49-.38.74-.57-.04.03-.09.06-.13.08.29-.12.58-.24.87-.37-.05.02-.1.03-.15.04.32-.04.64-.09.97-.13-.04,0-.08,0-.12,0,.32.04.64.09.97.13-.04,0-.07-.01-.11-.03.29.12.58.24.87.37-.04-.02-.07-.04-.1-.06l.74.57s-.06-.05-.08-.09c.19.25.38.49.57.74-.03-.04-.05-.08-.07-.13.12.29.24.58.37.87-.02-.05-.03-.09-.04-.14.04.32.09.64.13.97,0-.05,0-.1,0-.14-.04.32-.09.64-.13.97,0-.04.02-.08.03-.11-.12.29-.24.58-.37.87.01-.03.03-.05.05-.08-.19.25-.38.49-.57.74.02-.02.03-.03.05-.05-.25.19-.49.38-.74.57.03-.02.05-.04.08-.05-.29.12-.58.24-.87.37.05-.02.09-.03.14-.04-.32.04-.64.09-.97.13.05,0,.09,0,.14,0-.32-.04-.64-.09-.97-.13.05,0,.1.02.15.04-.29-.12-.58-.24-.87-.37.05.02.09.05.13.08-.25-.19-.49-.38-.74-.57.05.04.09.08.13.13l-.57-.74c.04.06.08.12.11.19-.12-.29-.24-.58-.37-.87.03.07.05.14.06.21l-.13-.97c0,.07,0,.15,0,.22.04-.32.09-.64.13-.97-.01.06-.03.12-.05.18l.37-.87c-.02.05-.05.1-.09.15.19-.25.38-.49.57-.74-.04.05-.09.1-.14.14.25-.19.49-.38.74-.57-.06.05-.13.08-.19.11.29-.12.58-.24.87-.37-.08.03-.16.05-.25.07.32-.04.64-.09.97-.13-.09,0-.17,0-.26,0,.32.04.64.09.97.13-.08-.01-.15-.03-.22-.06l.87.37c-.06-.03-.12-.06-.18-.11.25.19.49.38.74.57-.07-.06-.14-.12-.2-.2.19.25.38.49.57.74-.06-.08-.1-.16-.14-.25l.37.87c-.05-.11-.08-.22-.09-.34.04.32.09.64.13.97-.01-.12-.01-.24,0-.35-.04.32-.09.64-.13.97.02-.1.04-.2.08-.29-.12.29-.24.58-.37.87.04-.08.08-.16.14-.23-.19.25-.38.49-.57.74.04-.05.09-.1.14-.14-.25.19-.49.38-.74.57.04-.03.09-.06.14-.08-.29.12-.58.24-.87.37.05-.02.09-.03.14-.04-.32.04-.64.09-.97.13.05,0,.1,0,.15,0-.32-.04-.64-.09-.97-.13.06,0,.11.02.17.05-.29-.12-.58-.24-.87-.37.04.02.07.04.1.06-.25-.19-.49-.38-.74-.57.03.03.06.05.08.08-.19-.25-.38-.49-.57-.74.01.02.02.03.03.05.23.42.54.76.94,1.02.35.32.76.54,1.24.65.48.15.97.17,1.45.06.48-.02.93-.17,1.35-.43.25-.19.49-.38.74-.57.45-.45.76-.99.93-1.6.04-.32.09-.64.13-.97,0-.66-.17-1.27-.5-1.83h0Z"/>
      </g>
      <g>
        <path class="cls-3" d="M1357.75,230.56c.16-.31-.13-.76-.47-.72-.25.03-.44.25-.52.49-.16.45,0,1.03.41,1.26s1.01.04,1.17-.41c.16-.43-.18-.99-.62-1-.45-.01-.8.58-.57.97"/>
        <path class="cls-3" d="M1360.89,232.39c.4-.83.47-1.05.54-1.98,0-.03,0-.06,0-.08,0-.17-.06-.44-.07-.52-.02-.12-.03-.36-.07-.52-.15-.65-.62-1.44-1.1-1.9-.12-.11-.33-.25-.4-.31.01,0-.26-.22-.39-.3-.03-.02-.05-.03-.08-.05-.71-.36-1.17-.51-1.97-.53-.38,0-.78.03-1.15.16h-.02c-.29.13-.58.25-.87.38-.01,0-.03.01-.04.02-.02,0-.04.02-.05.03-.01,0-.02.01-.03.02-.25.19-.49.38-.74.57-.03.03-.06.05-.09.09-.01.01-.02.03-.03.04-.18.22-.42.52-.58.76-.21.3-.38.82-.47,1.06-.02.06-.04.13-.06.2-.07.38-.15.78-.15,1.17,0,.04,0,.07,0,.11,0,.02,0,.03,0,.05.04.31.08.68.13.99.01.07.03.15.06.22.13.35.26.7.44,1.03.02.03.04.06.06.09.09.13.24.32.3.4.09.12.21.28.32.41.02.03.05.05.07.07.01.01.02.02.03.03.21.18.53.42.75.58.18.13.4.2.61.29.17.07.4.2.6.23.37.07.76.16,1.15.14s.76-.07,1.13-.15c.03,0,.06-.02.09-.03.02,0,.03-.01.05-.02l.87-.37s.02,0,.03-.01c.06-.03.11-.06.16-.09.25-.18.63-.42.87-.69.22-.26.49-.55.66-.87.08-.15.15-.36.2-.47.02-.05.14-.31.2-.46.01-.04.02-.07.03-.11.07-.35.16-.76.14-1.13s-.05-.79-.17-1.16c-.25-.81-.55-1.29-1.11-1.91-.24-.27-.58-.48-.85-.67-.03-.02-.06-.04-.09-.06-.01,0-.03-.01-.04-.02-.29-.12-.58-.24-.87-.37-.01,0-.03-.01-.04-.02-.03-.01-.07-.02-.1-.03l-.48-.06c-.17-.02-.34-.05-.5-.07-.02,0-.04,0-.06,0-.01,0-.03,0-.04,0-.17.02-.34.04-.5.07-.17.02-.34.04-.5.07-.03,0-.07.02-.1.03-.31.11-.73.24-1.03.46-.19.14-.65.43-.87.7-.16.2-.52.58-.66.9-.09.19-.36.7-.42,1.05-.16.97-.19,1.13,0,2.11,0,.03.01.07.03.1.05.15.2.47.19.46.06.13.13.34.21.49.23.42.54.76.94,1.02.35.32.76.54,1.24.65.48.15.97.17,1.45.06.48-.02.93-.17,1.35-.43.25-.19.49-.38.74-.57.45-.45.76-.99.93-1.6.04-.32.09-.64.13-.97,0-.66-.17-1.27-.5-1.83-.01-.02-.02-.04-.03-.06l.37.87s-.03-.09-.04-.14c.04.32.09.64.13.97,0-.06,0-.11,0-.17-.04.32-.09.64-.13.97,0-.06.03-.12.05-.18l-.37.87c.03-.06.06-.11.1-.17-.19.25-.38.49-.57.74.04-.05.08-.1.13-.14-.25.19-.49.38-.74.57.04-.03.09-.06.14-.08l-.87.37s.09-.03.14-.04c-.32.04-.64.09-.97.13.05,0,.1,0,.15,0l-.97-.13c.05,0,.1.02.14.04-.29-.12-.58-.24-.87-.37.05.02.1.05.15.09-.25-.19-.49-.38-.74-.57.05.04.1.09.14.14-.19-.25-.38-.49-.57-.74.04.05.07.11.1.17l-.37-.87c.03.07.05.14.06.22-.04-.32-.09-.64-.13-.97,0,.07,0,.13,0,.2l.13-.97c0,.06-.03.12-.05.17l.37-.87c-.02.05-.05.1-.09.15.19-.25.38-.49.57-.74-.04.05-.09.1-.14.14.25-.19.49-.38.74-.57-.06.05-.13.09-.2.12.29-.12.58-.24.87-.37-.07.03-.15.05-.23.06.32-.04.64-.09.97-.13-.07,0-.14,0-.21,0,.32.04.64.09.97.13-.07-.01-.14-.03-.21-.06.29.12.58.24.87.37-.06-.03-.12-.06-.17-.1.25.19.49.38.74.57-.06-.05-.11-.1-.16-.16.19.25.38.49.57.74-.05-.07-.09-.14-.13-.22.12.29.24.58.37.87-.04-.1-.07-.19-.08-.3l.13.97c-.01-.1-.01-.21,0-.31-.04.32-.09.64-.13.97.01-.09.04-.17.07-.25-.12.29-.24.58-.37.87.03-.07.07-.14.12-.2-.19.25-.38.49-.57.74.04-.05.08-.09.12-.13-.25.19-.49.38-.74.57.04-.03.08-.06.13-.08-.29.12-.58.24-.87.37.04-.02.08-.03.12-.03-.32.04-.64.09-.97.13.04,0,.07,0,.11,0l-.97-.13s.08.02.12.03l-.87-.37s.07.04.1.06l-.74-.57s.06.06.09.09c-.19-.25-.38-.49-.57-.74.03.04.06.08.08.13-.12-.29-.24-.58-.37-.87.02.05.03.09.04.14-.04-.32-.09-.64-.13-.97,0,.04,0,.08,0,.13.04-.32.09-.64.13-.97,0,.04-.02.08-.03.12.12-.29.24-.58.37-.87v.02c-.28.42-.42.87-.44,1.35-.11.48-.09.97.06,1.45.11.47.33.89.65,1.24.26.4.6.71,1.02.94l.87.37c.64.17,1.29.17,1.93,0,.29-.12.58-.24.87-.37.55-.32.98-.76,1.3-1.3h0Z"/>
      </g>
      <g>
        <path class="cls-3" d="M1385.35,237.47c-.31.11-.69-.2-.65-.54-.23.03-.41.26-.46.49-.1.45.22.97.67,1,.44.03.84-.51.64-.92s-.78-1.03-.85-.57"/>
        <path class="cls-3" d="M1384.38,233.97s-.05.01-.07.02c.32-.04.64-.09.97-.13-.04,0-.08,0-.11,0,.32.04.64.09.97.13-.04,0-.09-.02-.13-.04.29.12.58.24.87.37-.04-.02-.08-.04-.12-.07.25.19.49.38.74.57-.04-.03-.08-.07-.11-.11.19.25.38.49.57.74-.03-.04-.05-.08-.07-.12.12.29.24.58.37.87-.01-.04-.03-.07-.03-.11.04.32.09.64.13.97,0-.04,0-.08,0-.12,0-.66-.17-1.27-.5-1.83-.23-.42-.54-.76-.94-1.02-.35-.32-.76-.54-1.24-.65-.64-.17-1.29-.17-1.93,0-.31.04-1.1.45-.99.4-.02,0-.04.02-.05.03-.01,0-.02.01-.03.02h-.02c-.25.2-.49.39-.74.58-.04.03-.07.07-.1.11-.14.17-.45.57-.57.74,0,0-.01.02-.02.03-.02.02-.03.05-.04.07-.16.32-.31.65-.42.99,0,.02-.01.04-.02.06,0,.01,0,.03,0,.04v.02c-.05.32-.09.64-.13.97,0,.05,0,.09,0,.14.01.36.08.73.14,1.08,0,.04.02.08.03.13,0,.02.02.04.02.07.1.26.26.63.37.89,0,.01.01.02.02.04.02.04.04.08.06.11,0,.01.02.02.02.03.13.18.44.57.57.74.02.02.03.04.05.06.03.03.06.06.09.09.19.16.54.47.84.64.02.01.04.02.06.03.16.07.71.31.88.37,0,0,.02,0,.03,0,.02,0,.04.01.06.02,0,0,.02,0,.03,0,0,0,.02,0,.03,0,.32.04.64.09.97.13.04,0,.08,0,.12,0,.16-.01.49-.07.51-.07-.02,0,.34-.04.5-.07.02,0,.05,0,.07-.02.16-.05.37-.15.49-.2s.32-.13.48-.2c.04-.02.08-.05.12-.08.16-.12.6-.45.74-.57,0,0,.02-.02.03-.02.01-.01.03-.03.04-.04.02-.02.03-.03.04-.05.1-.12.25-.32.3-.38.09-.11.21-.26.31-.4.02-.03.04-.07.06-.11.07-.15.16-.38.19-.46.03-.06.13-.3.19-.45,0-.02.02-.05.02-.07,0-.02,0-.04.01-.05,0-.01,0-.02,0-.04.03-.17.12-.81.13-.98,0-.05,0-.09,0-.14-.01-.13-.11-.85-.13-.98,0,0,0-.02,0-.03,0-.02-.01-.04-.02-.06-.11-.33-.25-.66-.41-.97-.04-.08-.09-.15-.14-.22-.2-.28-.42-.55-.63-.82-.03-.04-.06-.07-.09-.11-.16-.18-.36-.32-.56-.46-.49-.38-.7-.56-1.4-.74,0,0-.01,0-.02,0-.04,0-.93-.13-.98-.13-.01,0-.03,0-.04,0,0,0-.96.13-.97.13,0,0-.01,0-.02,0,0,0-.87.37-.87.37,0,0-.01,0-.02.01,0,0-.73.57-.74.57,0,0-.01.01-.02.02,0,0-.57.73-.57.74,0,0,0,.01-.01.02-.07.13-.3.71-.19.45.1-.23-.15.31-.19.45,0,.02-.01.04-.02.06-.15.48-.17.97-.06,1.45.02.48.17.93.43,1.35.23.42.54.76.94,1.02.35.32.76.54,1.24.65.32.04.64.09.97.13.66,0,1.27-.17,1.83-.5l.74-.57c.45-.45.76-.99.93-1.6,0-.03.01-.05.02-.08l-.37.87s.01-.03.02-.04c-.19.25-.38.49-.57.74,0,0,.01-.01.02-.02-.25.19-.49.38-.74.57,0,0,.01,0,.02-.01-.29.12-.58.24-.87.37,0,0,.02,0,.03,0l-.97.13s.02,0,.04,0l-.97-.13s.04,0,.06.02c-.29-.12-.58-.24-.87-.37.05.02.09.05.13.08-.25-.19-.49-.38-.74-.57.11.09.21.2.3.31-.19-.25-.38-.49-.57-.74.08.11.17.23.22.36l-.37-.87s.03.08.03.13c-.04-.32-.09-.64-.13-.97,0,.05,0,.1,0,.15.04-.32.09-.64.13-.97,0,.06-.03.12-.05.18.12-.29.24-.58.37-.87-.03.06-.06.11-.1.16.19-.25.38-.49.57-.74-.04.05-.08.09-.13.13.25-.19.49-.38.74-.57-.05.04-.1.07-.16.09.29-.12.58-.24.87-.37-.05.02-.09.03-.14.04l.97-.13c-.05,0-.1,0-.15,0l.97.13c-.05,0-.1-.02-.15-.04.29.12.58.24.87.37-.06-.02-.11-.06-.16-.09.25.19.49.38.74.57-.06-.04-.1-.09-.15-.15.19.25.38.49.57.74-.05-.06-.09-.13-.12-.2l.37.87c-.03-.07-.05-.15-.06-.23.04.32.09.64.13.97,0-.07,0-.15,0-.22-.04.32-.09.64-.13.97.01-.07.03-.14.06-.2l-.37.87c.02-.05.05-.1.09-.15-.19.25-.38.49-.57.74.03-.04.06-.07.1-.11-.25.19-.49.38-.74.57.03-.03.07-.05.1-.06-.29.12-.58.24-.87.37.04-.02.08-.03.12-.03l-4.6-3.5s0,.05,0,.08c.02.34.06.68.14,1.01.08.35.25.68.4.99.14.29.56.75.63.84.03.04.06.07.1.1.58.49,1.05.85,1.81,1.04.68.17,1.5.21,2.18,0,.47-.11.89-.33,1.24-.65.4-.26.71-.6.94-1.02.27-.42.41-.87.43-1.35.11-.48.09-.97-.06-1.45-.12-.29-.24-.58-.37-.87-.32-.55-.76-.98-1.3-1.3-.29-.12-.58-.24-.87-.37-.64-.17-1.29-.17-1.93,0h0Z"/>
      </g>
      <path class="cls-3" d="M1610.46,294.26c17.42,6.89,33.57,17.19,48.69,28.15,13.82,10.02,31,21.71,39.83,36.67,10.67,18.07-2.65,36.28-19.22,44.36-13.81,6.73-29.94,9.21-45.08,10.96-16.06,1.85-33.8,3.96-49.84.84-9.14-1.78-13.06,12.23-3.87,14.02,16.91,3.28,34.86,1.75,51.85-.11,18.44-2.03,37.46-4.9,54.27-13.16,18.41-9.04,33.49-28.29,29.87-49.75-3.52-20.91-23.46-35.55-39.09-47.78-19.51-15.27-40.43-29.07-63.55-38.21-8.7-3.44-12.48,10.61-3.87,14.02h0Z"/>
      <g>
        <path class="cls-1" d="M1323.52,154.65c-.44,0-.88-.12-1.27-.35-.94-.56-1.4-1.68-1.12-2.74l9.28-35.38c.25-.96,1.05-1.67,2.02-1.82.96-.12,1.95.3,2.46,1.14,3.57,5.74,6.51,10.49,8.94,14.44l17.16-15.93c.8-.76,2.02-.88,2.96-.3.94.58,1.39,1.71,1.1,2.77-5.69,20.61-8.16,29.55-9.66,33.37.01.09.02.16.02.23h-.11c-1.09,2.68-1.66,2.63-2.67,2.49-.98-.12-1.77-.83-2.06-1.74-.55-1.15-3.8-6.58-7.81-13.15l-17.57,16.32c-.47.44-1.07.66-1.68.66ZM1333.73,122.98l-5.67,21.61,12.08-11.22c-2.13-3.47-4.35-7.07-6.41-10.4ZM1346.48,134.23c2.63,4.3,4.49,7.39,5.8,9.62,1.45-5.07,3.67-12.99,5.7-20.29l-11.5,10.68Z"/>
        <path class="cls-1" d="M1366.86,151.99c-.19,0-.4-.03-.59-.07-1.33-.33-2.13-1.66-1.8-2.99l8.13-32.83c.33-1.32,1.65-2.12,2.99-1.8,1.33.33,2.13,1.66,1.8,2.99l-8.13,32.83c-.28,1.12-1.28,1.88-2.39,1.88Z"/>
        <path class="cls-1" d="M1380.85,155.7c-.82,0-1.62-.41-2.08-1.15-.73-1.15-.38-2.68.76-3.41l18.63-11.76-15.16-2.98c-1.02-.2-1.8-1.01-1.96-2.03-.17-1.02.33-2.03,1.22-2.54l21.04-11.85c1.19-.67,2.7-.25,3.36.94.67,1.19.25,2.69-.94,3.36l-15.21,8.57,14.69,2.89c.99.19,1.76.97,1.95,1.97.19.99-.26,2-1.11,2.54l-23.87,15.07c-.41.26-.87.38-1.32.38Z"/>
      </g>
      <path class="cls-3" d="M1474.11,32.66c-2.52-4.53-.08-10.75,5.03-11.94,3.6-.85,7.73-.21,11.37.14,3.96.38,7.9,1.02,11.74,2.07,3.64.99,7.13,2.34,10.4,4.22,2.38,1.37,5.65,3.1,6.79,5.78,1.61,3.78-.66,8.34-4.88,8.56-4.65.25-4.68,7.52,0,7.27,6.15-.32,11.3-4.42,12.37-10.64,1.2-6.99-2.56-11.91-8.09-15.66-7.08-4.81-15.48-7.2-23.88-8.35-7.38-1.01-16.95-2.71-23.28,2.26-5.92,4.65-7.49,13.45-3.86,19.96,2.28,4.09,8.56.43,6.28-3.67h0Z"/>
      <g>
        <path class="cls-1" d="M1370.91,488.83c1.48-13.76,4.83-18.6,14.77-28.42,2.54-2.51,7.75-7.57,11.99-10.52,6.97-4.84,6.4-4.98,14.17-8.64,7.77-3.66,10.87-5.23,19.49-4.99,0,0,.1,20.75-18.45,38.33-18.55,17.58-41.96,14.23-41.96,14.23Z"/>
        <path class="cls-3" d="M1374.54,488.83c.71-6.35,2.2-12.35,6.08-17.54,4.04-5.41,9.31-10.2,14.37-14.64,4.6-4.03,9.82-7.87,15.3-10.63,6.94-3.49,13.15-6.28,21.03-6.12-1.21-1.21-2.42-2.42-3.63-3.63,0,8.24-3.74,17.7-8.41,24.99-8.45,13.2-22.19,22.26-37.86,23.89-2.4.25-4.82.35-7.24.28-.75-.02-1.5-.07-2.25-.13-.46-.03-1.97-.24-.05.02-1.96-.27-3.88.48-4.47,2.54-.49,1.7.6,4.2,2.54,4.47,28.71,3.99,55.73-17.27,63.16-44.38,1.03-3.75,1.86-7.78,1.86-11.69,0-1.99-1.67-3.6-3.63-3.63-4.21-.08-8.43.23-12.44,1.61-3.96,1.37-7.78,3.29-11.53,5.14-6.3,3.11-12.23,7.51-17.5,12.13-5.72,5.01-11.51,10.44-15.91,16.67-4.34,6.14-5.84,13.3-6.66,20.64-.52,4.64,6.75,4.6,7.27,0Z"/>
      </g>
      <g>
        <path class="cls-3" d="M1320.27,452.73c20.4-5.82,40.21-13.7,58.97-23.62,9.14-4.83,18.04-10.14,26.6-15.93,8.19-5.53,15.99-11.64,20.96-20.36,3.48-6.11-5.94-11.61-9.42-5.5-4.64,8.15-12.4,13.43-20.08,18.47-8.14,5.34-16.55,10.26-25.18,14.76-17.47,9.1-35.81,16.27-54.75,21.67-6.74,1.92-3.87,12.45,2.9,10.51h0Z"/>
        <path class="cls-3" d="M1418.42,394.19c5.36,5.25,6.98,15.15,7.84,22.29.93,7.72.61,15.67-1.16,23.24-3.3,14.1-11.63,26.82-23.7,34.96-11.88,8.01-27.54,11.96-41.36,6.76-1.74-.65-3.38-1.47-4.97-2.43-2.11-1.27-2.07-1.88-2.6-4.24-.88-3.94-1.9-7.84-3.13-11.68-2.6-8.15-6.05-16.02-10.12-23.54-3.34-6.18-12.76-.68-9.42,5.5,3.91,7.23,7.13,14.73,9.53,22.59,1.97,6.45,1.96,14.89,7.78,19.15,11.44,8.37,27.22,9.46,40.6,5.98,27.48-7.14,46.45-32.1,49.47-59.75.9-8.19.35-16.49-1.28-24.56-1.57-7.79-3.98-16.28-9.8-21.99-5.01-4.92-12.73,2.79-7.71,7.71h0Z"/>
      </g>
    </g>
    <g>
      <path class="cls-3" d="M1142.74,134.68c-38.94,0-72.65,22.81-88.48,55.78l-8.18-38.04c-2.23-10.35-11.37-17.74-21.96-17.74-41.91,0-78.29,24.01-96.19,58.99-3.84-10.8-9.7-20.9-17.43-29.72-17.43-19.9-42.6-31.31-69.06-31.31-11.57,0-21.25,8.79-22.36,20.32l-6.4,66.65c-10.93-50.34-55.46-86.97-108.06-86.97-6.47,0-12.63,2.79-16.89,7.66-2.9,3.31-4.71,7.38-5.31,11.65-1.56-11.03-10.99-19.31-22.22-19.31h-44.54c-66.51,0-122.1,49.86-129.31,115.98l-5.48,50.3v-63.01c0-56.95-46.33-103.27-103.27-103.27-12.4,0-22.46,10.06-22.46,22.46v51.35c-12.71-42.64-52.28-73.82-98.99-73.82-7.83,0-14.71,4.01-18.73,10.07-4.33-9.4-9.78-17.78-16.41-25.06-19.49-21.42-47.81-32.27-84.19-32.27H22.46c-12.4,0-22.46,10.06-22.46,22.46v415.88c0,12.4,10.06,22.46,22.46,22.46h111.53c42.47,0,73.19-14.28,91.31-42.44,6.56-10.19,11.73-21.77,15.61-34.81,4.99,17.2,12.53,31.87,22.63,43.86,20.77,24.67,52.31,37.18,93.74,37.18s72.97-12.51,93.74-37.17c2.76-3.28,5.31-6.77,7.69-10.44l-2.06,18.94c-.69,6.34,1.35,12.68,5.61,17.43,4.26,4.75,10.34,7.46,16.72,7.46h80.81c11.79,0,21.58-9.12,22.4-20.88l3.26-46.22h9.39l3.76,46.46c.94,11.66,10.69,20.65,22.39,20.65h78.68c6.37,0,12.45-2.71,16.71-7.45,4.26-4.74,6.31-11.07,5.63-17.4l-35.77-334.11,45.04,339.45c1.48,11.16,11,19.51,22.27,19.51h118.15c11.26,0,20.78-8.34,22.27-19.51l22.16-167.03v89.56c0,54.6,44.42,99.02,99.02,99.02,12.4,0,22.46-10.06,22.46-22.46v-34.96c22.36,35.11,61.39,57.42,105.14,57.42,12.4,0,22.46-10.06,22.46-22.46V157.14c0-12.4-10.06-22.46-22.46-22.46Z"/>
      <path class="cls-1" d="M938.59,434.9v-206.52c0-47.24,38.3-85.54,85.54-85.54h0l43.01,199.9v-124.29c0-41.76,33.85-75.61,75.61-75.61h0v368.62h0c-47.59,0-88.9-32.82-99.65-79.18l-27.95-120.48v199.67h0c-42.28,0-76.56-34.28-76.56-76.56Z"/>
    </g>
    <path class="cls-1" d="M22.46,507.38V91.5h114.37c29.93,0,52.46,8.31,67.58,24.93,15.12,16.62,22.68,40.92,22.68,72.9v194.71c0,39.38-6.89,69.79-20.68,91.21-13.79,21.43-37.92,32.14-72.42,32.14H22.46ZM106.11,433.89h14.41c15.28,0,22.92-7.4,22.92-22.21v-214.55c0-13.86-1.85-22.8-5.55-26.82-3.7-4.02-11.22-6.03-22.57-6.03h0c-5.09,0-9.22,4.13-9.22,9.22v260.39Z"/>
    <path class="cls-1" d="M357.29,511.16c-34.66,0-60.18-9.72-76.56-29.18-16.38-19.45-24.57-48.09-24.57-85.89V138.76h0c44.63,0,80.81,36.18,80.81,80.81v175.56c0,6.94.39,13.59,1.18,19.97.79,6.38,2.6,11.62,5.43,15.71,2.84,4.1,7.4,6.14,13.71,6.14s11.11-2.01,13.94-6.03c2.84-4.02,4.61-9.25,5.32-15.71.71-6.46,1.06-13.15,1.06-20.09V138.76h0c44.63,0,80.81,36.18,80.81,80.81v176.51c0,37.81-8.19,66.44-24.57,85.89-16.38,19.46-41.9,29.18-76.56,29.18Z"/>
    <path class="cls-1" d="M481.02,509.42l29.71-272.66c5.95-54.6,52.06-95.96,106.98-95.96h44.54l39.46,368.62h-78.68l-5.43-67.11h-51.04l-4.73,67.11h-80.81ZM588.77,206.96l-15.36,168.95h36.39l-17.25-168.95h-3.78Z"/>
    <path class="cls-1" d="M753.55,508.49l-48.91-368.62h0c45.03,0,82.81,33.94,87.63,78.7l22.01,204.38,27.17-283.08h0c41.92,0,74.26,36.91,68.75,78.47l-38.5,290.15h-118.15Z"/>
  </g>
  <g>
    <path class="cls-3" d="M288.87,118.57c-4.78,0-9.21-1.13-13.17-3.36-4.06-2.28-7.31-5.71-9.66-10.19-2.27-4.32-3.42-9.65-3.42-15.85s1.09-11.25,3.23-15.82c2.23-4.76,5.47-8.56,9.61-11.27,4.18-2.74,9.07-4.13,14.51-4.13,3.77,0,7.04.61,9.72,1.82v-14.4c0-3.41,2.53-5.97,5.88-5.97h2.11c3.3,0,5.79,2.53,5.79,5.88v66.21c0,2.25-.92,3.65-1.7,4.43-.81.8-2.21,1.72-4.46,1.72h-1.47c-1.81,0-3.49-.77-4.6-2.12-.06-.07-.11-.14-.17-.21-.81.48-1.68.93-2.61,1.36-2.71,1.25-5.94,1.89-9.6,1.89ZM290.06,71.55c-2.6,0-4.84.62-6.85,1.88-2.01,1.27-3.56,3.09-4.74,5.57-1.26,2.64-1.89,5.94-1.89,9.81s.64,7.23,1.9,9.64c1.19,2.27,2.67,3.88,4.53,4.9,1.98,1.09,4.05,1.62,6.33,1.62,2.01,0,3.74-.45,5.27-1.38,1.7-1.03,2.98-2.21,3.92-3.62.76-1.15,1.17-2.18,1.17-2.98v-21.28c-1.4-1.19-2.81-2.16-4.21-2.89-1.64-.85-3.41-1.27-5.42-1.27Z"/>
    <path class="cls-1" d="M305.16,109.79c-.15-.18-.23-.43-.23-.73v-4.69c0-.49-.09-.76-.28-.83-.18-.06-.46.09-.83.46-.49.49-1.35,1.3-2.57,2.43-1.23,1.13-2.86,2.17-4.91,3.12-2.05.95-4.54,1.42-7.48,1.42-3.92,0-7.48-.9-10.69-2.71-3.21-1.8-5.77-4.51-7.66-8.13-1.9-3.61-2.84-8.11-2.84-13.5s.92-9.76,2.75-13.68c1.84-3.92,4.44-6.98,7.8-9.18,3.36-2.21,7.28-3.31,11.75-3.31,3.36,0,6.1.55,8.21,1.65,2.11,1.1,3.87,2.2,5.28,3.31.55.43.9.58,1.05.46s.23-.49.23-1.1v-21.95c0-.61.28-.92.83-.92h2.11c.49,0,.73.28.73.83v66.21c0,.43-.08.72-.23.87-.15.15-.45.23-.87.23h-1.47c-.31,0-.54-.09-.69-.28ZM297.82,65.8c-2.36-1.22-4.94-1.84-7.75-1.84-3.55,0-6.73.89-9.54,2.66-2.82,1.78-5.02,4.33-6.61,7.67-1.59,3.34-2.39,7.33-2.39,11.98s.83,8.83,2.48,11.98c1.65,3.16,3.84,5.48,6.56,6.98,2.72,1.5,5.64,2.25,8.76,2.25,2.94,0,5.57-.7,7.89-2.11,2.32-1.41,4.16-3.12,5.51-5.14,1.34-2.02,2.02-3.95,2.02-5.79v-23.51c-2.26-2.21-4.57-3.92-6.93-5.14Z"/>
    <path class="cls-3" d="M344.21,118.57c-5.35,0-10.15-1.31-14.29-3.89-4.11-2.57-7.37-6.19-9.68-10.79-2.25-4.46-3.38-9.59-3.38-15.27,0-6.16,1.16-11.57,3.44-16.06,2.35-4.63,5.65-8.26,9.82-10.8,4.15-2.53,8.9-3.81,14.1-3.81s9.94,1.23,13.85,3.65c3.95,2.44,7.04,5.98,9.17,10.5,2.02,4.31,3.05,9.47,3.05,15.33,0,.58-.04,1.22-.14,1.9-.35,2.41-2.4,4.99-6.11,4.99h-32.74c.3,1.16.76,2.28,1.37,3.37,1.26,2.26,2.89,4.02,4.99,5.38,1.97,1.28,4.11,1.9,6.56,1.9,2.8,0,5.19-.53,7.13-1.59,1.9-1.04,3.41-2.51,4.6-4.5,1.18-1.95,2.72-2.62,3.8-2.85.34-.07.78-.12,1.13-.12,1.13,0,2.25.35,3.23,1l2.06,1.34c1.41.94,2.3,2.31,2.53,3.89.21,1.46-.16,2.92-1.06,4.16-1.69,2.6-3.69,4.82-5.97,6.62-2.37,1.87-5.06,3.3-8.02,4.25-2.87.92-6.05,1.39-9.43,1.39ZM355.9,80.91c-.26-1.09-.64-2.13-1.14-3.11-1-1.95-2.36-3.45-4.16-4.6-1.76-1.11-3.88-1.65-6.48-1.65-2.98,0-5.33.65-7.19,1.99-2.01,1.44-3.46,3.21-4.44,5.41-.3.66-.55,1.32-.76,1.97h24.18Z"/>
    <path class="cls-1" d="M328.24,97.63c1.65,2.97,3.87,5.36,6.65,7.16,2.78,1.81,5.89,2.71,9.31,2.71,3.67,0,6.85-.74,9.54-2.2,2.69-1.47,4.86-3.58,6.52-6.34.18-.3.35-.47.5-.5.15-.03.32.01.51.14l2.11,1.38c.37.24.4.55.09.92-1.41,2.2-3.06,4.06-4.96,5.56-1.9,1.5-4.04,2.63-6.42,3.4-2.39.76-5.02,1.15-7.89,1.15-4.4,0-8.27-1.04-11.61-3.12-3.33-2.08-5.95-5.01-7.85-8.77-1.9-3.77-2.84-8.1-2.84-12.99,0-5.39.96-9.98,2.89-13.78,1.93-3.79,4.57-6.72,7.94-8.77,3.36-2.05,7.19-3.08,11.47-3.08s8.08.96,11.2,2.89c3.12,1.93,5.54,4.72,7.25,8.36,1.71,3.64,2.57,8.04,2.57,13.18,0,.37-.03.77-.09,1.19-.06.43-.43.64-1.1.64h-37.72c-.18,0-.32.14-.41.41-.09.28-.14.57-.14.87,0,3.43.83,6.63,2.48,9.6ZM359.81,83.44c.67,0,1.1-.09,1.29-.27.18-.19.28-.52.28-1.01,0-3.37-.7-6.43-2.11-9.18-1.41-2.76-3.4-4.94-5.97-6.57-2.57-1.62-5.63-2.43-9.18-2.43-4.04,0-7.42.98-10.14,2.94-2.72,1.96-4.76,4.44-6.1,7.44-1.35,3-2.02,6.03-2.02,9.09h33.95Z"/>
    <path class="cls-3" d="M392.02,118.57c-5.3,0-10.13-1.16-14.38-3.45-4.42-2.38-7.67-5.58-9.67-9.5-.11-.22-.21-.46-.29-.7-.23-.7-.35-1.41-.35-2.1,0-1.85.91-3.53,2.5-4.6l1.9-1.21c.95-.71,2.1-1.09,3.3-1.09.27,0,.64.03.91.07,1.73.3,3.13,1.27,3.94,2.68.81,1.33,1.75,2.43,2.89,3.37,1.12.93,2.4,1.63,3.9,2.14,1.55.52,3.35.79,5.36.79,2.16,0,4.11-.3,5.78-.9,1.42-.51,2.5-1.16,3.21-1.96.46-.51.64-.99.64-1.64,0-.43-.06-.88-.8-1.52-.63-.55-2.32-1.67-6.44-2.92l-9.49-2.95c-5.62-1.73-9.46-3.94-11.72-6.77-2.31-2.89-3.49-6.1-3.49-9.53,0-3.92,1.11-7.39,3.3-10.32,2.06-2.76,4.87-4.92,8.35-6.4,3.28-1.39,6.96-2.1,10.93-2.1,4.54,0,8.73.91,12.47,2.7,3.88,1.86,7,4.56,9.28,8.02,1.33,1.98,1.03,3.83.73,4.75-.31.9-.78,1.65-1.44,2.32-.25.25-.53.48-.83.68l-2.11,1.38c-.16.11-.33.2-.5.29-.83.41-1.73.62-2.67.62-1.51,0-2.93-.6-4-1.68-.24-.24-.45-.5-.63-.78-.92-1.4-2.19-2.5-3.89-3.36-1.75-.89-3.93-1.34-6.48-1.34-2.88,0-5.21.58-6.93,1.72-1.33.89-1.6,1.72-1.6,2.78,0,.39.34.88.63,1.23.03.04.91,1.05,4.8,2.33l12.38,4.04c4.45,1.44,7.9,3.5,10.24,6.13,2.58,2.9,3.89,6.35,3.89,10.24s-1.19,7.21-3.54,10.14c-2.16,2.69-5.07,4.8-8.67,6.28-3.42,1.41-7.25,2.13-11.38,2.13Z"/>
    <path class="cls-1" d="M400.97,65.85c-2.48-1.25-5.4-1.88-8.76-1.88-3.92,0-7.16.86-9.73,2.57-2.57,1.71-3.85,4.04-3.85,6.98,0,1.53.6,3.02,1.79,4.45,1.19,1.44,3.56,2.74,7.11,3.9l12.39,4.04c3.61,1.16,6.29,2.73,8.03,4.69,1.74,1.96,2.62,4.25,2.62,6.89s-.81,4.96-2.43,6.98c-1.62,2.02-3.84,3.61-6.65,4.77-2.81,1.16-5.97,1.74-9.45,1.74-4.47,0-8.46-.95-11.98-2.85-3.52-1.9-6.04-4.35-7.57-7.35-.06-.19-.09-.35-.09-.51s.09-.29.28-.41l2.02-1.29c.12-.12.28-.17.46-.14.18.03.3.11.37.23,1.1,1.84,2.45,3.41,4.04,4.73,1.59,1.32,3.43,2.33,5.51,3.03,2.08.7,4.41,1.06,6.97,1.06,2.75,0,5.25-.4,7.48-1.19,2.23-.79,3.99-1.91,5.28-3.35,1.28-1.44,1.93-3.11,1.93-5.01,0-2.08-.84-3.86-2.52-5.33-1.68-1.47-4.45-2.78-8.3-3.95l-9.45-2.94c-4.59-1.41-7.68-3.11-9.27-5.1-1.59-1.99-2.39-4.12-2.39-6.38,0-2.82.76-5.25,2.29-7.3,1.53-2.05,3.62-3.64,6.29-4.78,2.66-1.13,5.64-1.7,8.95-1.7,3.79,0,7.22.73,10.28,2.2,3.06,1.47,5.47,3.55,7.25,6.25.12.18.17.32.14.41-.03.09-.11.2-.23.32l-2.11,1.38c-.12.06-.26.09-.41.09s-.29-.06-.41-.18c-1.41-2.14-3.35-3.84-5.83-5.1Z"/>
    <path class="cls-3" d="M425.06,117.65c-1.83,0-3.31-.57-4.42-1.68-.74-.74-1.65-2.1-1.65-4.29v-46.84c0-3.41,2.53-5.97,5.88-5.97h2.02c3.35,0,5.88,2.57,5.88,5.97v46.65c0,1.59-.43,2.94-1.27,4.01-.81,1-2.28,2.15-4.88,2.15h-1.56ZM424.6,58.51c-2.37,0-4.37-1.19-5.35-3.18-.46-.92-.71-1.99-.71-3.16v-6.52c0-3.56,2.65-6.25,6.16-6.25h2.39c3.51,0,6.15,2.69,6.15,6.25v6.34c0,4.28-3.1,6.52-6.15,6.52h-2.48Z"/>
    <path class="cls-1" d="M428.18,49.46c0,.98-.37,1.47-1.1,1.47h-2.48c-.43,0-.7-.12-.83-.37-.12-.24-.18-.55-.18-.92v-6.52c0-.79.37-1.19,1.1-1.19h2.39c.73,0,1.1.4,1.1,1.19v6.34ZM427.72,108.97c0,.43-.06.72-.18.87-.12.15-.43.23-.92.23h-1.56c-.43,0-.7-.06-.83-.18-.12-.12-.18-.37-.18-.74v-46.84c0-.61.28-.92.83-.92h2.02c.55,0,.83.31.83.92v46.65Z"/>
    <path class="cls-3" d="M461.31,133.72c-8.08,0-14.28-1.42-18.96-4.35-5.31-3.31-8.11-8.26-8.11-14.3,0-3.27,1.01-6.34,3.01-9.14.84-1.18,1.88-2.3,3.1-3.37-.76-1.39-1.15-2.95-1.15-4.58,0-1.52.41-3.04,1.21-4.52.47-.88,1.1-1.7,1.87-2.46-.7-.8-1.31-1.65-1.84-2.55-1.61-2.76-2.43-6.04-2.43-9.76,0-6.39,2.42-11.71,6.98-15.37,4.3-3.45,10.14-5.2,17.34-5.2,3.64,0,6.7.43,9.33,1.32,1.7.58,3.28,1.33,4.72,2.26.02-.01.05-.03.07-.04,1.07-.69,2.25-1.31,3.52-1.83,1.59-.65,3.28-.97,5.03-.97s3.26.42,4.42,1.3c1.51,1.13,2.38,2.94,2.38,4.95v1.19c0,1.93-.7,3.26-1.29,4.05-1.08,1.44-2.72,2.27-4.88,2.46-.49.03-.87.06-1.17.09.56,1.62.83,3.53.83,5.8,0,3.58-.87,6.91-2.6,9.91-1.79,3.12-4.55,5.6-8.19,7.36-.88.42-1.8.79-2.78,1.11,4.99.58,8.93,2.23,11.68,4.91,3.27,3.19,4.93,7.34,4.93,12.35,0,6.31-2.8,11.45-8.1,14.86-4.73,3.04-10.91,4.52-18.89,4.52ZM452.73,109.75c-.15.04-.54.17-1.23.54-.92.5-1.79,1.26-2.59,2.25-.5.63-.73,1.3-.73,2.17s.24,1.53.84,2.15c.86.9,2.34,1.67,4.28,2.23,2.37.69,5.34,1.04,8.82,1.04,5.83,0,8.8-1.04,10.27-1.91,1.16-.69,1.93-1.61,1.93-3.87,0-1.46-.42-2.05-.78-2.41-.03-.03-.99-.93-4.85-1.17l-15.96-1ZM461.77,71.73c-3.6,0-6.29.68-8,2.01-.93.73-2,1.93-2,4.79,0,2.71.99,3.79,1.86,4.44,1.67,1.24,4.49,1.9,8.14,1.9,4.69,0,6.93-.98,7.98-1.81.81-.64,1.74-1.73,1.74-4.53,0-2.97-1.08-4.21-1.89-4.88-1.51-1.25-4.22-1.91-7.83-1.91Z"/>
    <path class="cls-1" d="M486.36,61.67c.24.18.37.49.37.92v1.19c0,.43-.09.76-.28,1.01s-.61.4-1.28.46c-1.16.06-2.11.19-2.84.37s-1.47.49-2.2.92c-1.47.8-2.08,1.5-1.84,2.11.31.8.7,1.76,1.19,2.89.49,1.13.73,2.68.73,4.64,0,2.69-.64,5.16-1.93,7.39-1.28,2.24-3.29,4.01-6.01,5.33-2.72,1.32-6.26,1.97-10.6,1.97-3.49,0-6.23.21-8.21.64-1.99.43-3.38.99-4.18,1.7-.8.71-1.19,1.42-1.19,2.16,0,1.1.78,1.9,2.34,2.39,1.56.49,4.11.83,7.66,1.01l11.01.64c4.89.24,8.47,1.47,10.74,3.67,2.26,2.21,3.4,5.11,3.4,8.72,0,4.59-1.93,8.13-5.78,10.61-3.86,2.48-9.24,3.72-16.15,3.72s-12.47-1.19-16.29-3.58c-3.82-2.39-5.74-5.73-5.74-10.01,0-2.2.69-4.27,2.07-6.2,1.38-1.93,3.5-3.69,6.38-5.28.67-.37.67-.7,0-1.01-1.23-.55-2.11-1.21-2.66-1.97-.55-.76-.83-1.64-.83-2.62,0-.67.2-1.38.6-2.11.4-.74,1.04-1.42,1.93-2.07.89-.64,2.09-1.21,3.62-1.7.37-.12.52-.29.46-.51-.06-.21-.25-.41-.55-.59-2.51-1.41-4.35-3.11-5.51-5.1-1.16-1.99-1.74-4.39-1.74-7.21,0-4.9,1.7-8.71,5.09-11.43,3.4-2.72,8.12-4.09,14.18-4.09,3.06,0,5.63.35,7.71,1.06,2.08.71,3.89,1.73,5.41,3.08.31.24.58.38.83.41.24.03.52-.08.83-.32.61-.49,1.32-.99,2.11-1.52.79-.52,1.68-.98,2.66-1.38.98-.4,2.02-.6,3.12-.6.67,0,1.13.09,1.38.28ZM452.86,102.17c-.98-.06-2.23.32-3.76,1.15-1.53.83-2.91,2.01-4.13,3.54-1.22,1.53-1.83,3.31-1.83,5.33,0,2.2.75,4.09,2.25,5.65,1.5,1.56,3.67,2.76,6.52,3.58s6.26,1.24,10.23,1.24c5.63,0,9.91-.87,12.85-2.62,2.94-1.74,4.41-4.49,4.41-8.22,0-2.51-.77-4.51-2.29-6.02-1.53-1.5-4.22-2.37-8.08-2.62l-16.15-1.01ZM472.87,84.5c2.45-1.93,3.67-4.76,3.67-8.5s-1.24-6.72-3.72-8.77c-2.48-2.05-6.16-3.08-11.06-3.08s-8.47,1.03-11.1,3.08c-2.63,2.05-3.95,4.98-3.95,8.77s1.3,6.57,3.9,8.5c2.6,1.93,6.32,2.89,11.15,2.89s8.66-.96,11.1-2.89Z"/>
    <path class="cls-3" d="M531.78,117.65c-1.6,0-3.08-.61-4.18-1.72-1.09-1.09-1.7-2.57-1.7-4.16v-33.8c0-2.33-.47-4.05-1.41-5.12-1-1.14-3.45-1.31-4.83-1.31-1.56,0-3.01.23-4.29.68-1.46.51-3.01,1.29-4.61,2.3-1.27.81-2.69,1.79-4.22,2.93v34.32c0,3.35-2.53,5.88-5.88,5.88h-2.02c-3.35,0-5.88-2.53-5.88-5.88v-47.02c0-3.35,2.49-5.88,5.79-5.88h1.93c2.35,0,4.29,1.26,5.21,3.18,2.14-1.3,4.32-2.31,6.48-2.99,2.33-.74,4.88-1.11,7.58-1.11,6.26,0,11.2,1.76,14.68,5.25,3.48,3.48,5.24,7.96,5.24,13.31v35.17c0,3.41-2.53,5.97-5.88,5.97h-2.02Z"/>
    <path class="cls-1" d="M497.83,109.24v-47.02c0-.55.24-.83.73-.83h1.93c.49,0,.73.24.73.74v5.69c0,.31.06.49.18.55.12.06.31-.03.55-.28,2.32-1.65,4.41-3.04,6.24-4.18,1.84-1.13,3.67-1.99,5.51-2.57,1.83-.58,3.85-.87,6.06-.87,4.89,0,8.6,1.26,11.1,3.77,2.51,2.51,3.76,5.75,3.76,9.73v35.17c0,.61-.28.92-.83.92h-2.02c-.24,0-.44-.08-.6-.23-.15-.15-.23-.35-.23-.6v-33.8c0-3.61-.89-6.43-2.66-8.45-1.78-2.02-4.65-3.03-8.63-3.03-2.14,0-4.13.32-5.97.96-1.84.64-3.72,1.58-5.64,2.8-1.93,1.23-4.12,2.79-6.56,4.68v36.83c0,.55-.28.83-.83.83h-2.02c-.55,0-.83-.28-.83-.83Z"/>
    <path class="cls-3" d="M569.78,118.57c-5.35,0-10.15-1.31-14.29-3.89-4.11-2.57-7.37-6.19-9.68-10.79-2.25-4.46-3.38-9.59-3.38-15.27,0-6.16,1.16-11.57,3.44-16.06,2.35-4.63,5.65-8.26,9.82-10.8,4.15-2.53,8.9-3.81,14.1-3.81s9.94,1.23,13.85,3.65c3.95,2.44,7.04,5.98,9.17,10.5,2.02,4.31,3.05,9.47,3.05,15.33,0,.58-.04,1.22-.14,1.9-.35,2.41-2.4,4.99-6.11,4.99h-32.74c.3,1.16.76,2.28,1.37,3.37,1.26,2.26,2.89,4.02,4.99,5.38,1.97,1.28,4.11,1.9,6.56,1.9,2.8,0,5.19-.53,7.13-1.59,1.9-1.04,3.41-2.51,4.6-4.5,1.18-1.95,2.72-2.62,3.8-2.85.34-.07.78-.12,1.13-.12,1.13,0,2.25.35,3.23,1l2.06,1.34c1.41.94,2.3,2.31,2.53,3.89.21,1.46-.16,2.92-1.06,4.16-1.69,2.6-3.69,4.82-5.97,6.62-2.37,1.87-5.06,3.3-8.02,4.25-2.87.92-6.05,1.39-9.43,1.39ZM581.47,80.91c-.26-1.09-.64-2.13-1.14-3.11-1-1.95-2.36-3.45-4.16-4.6-1.76-1.11-3.88-1.65-6.48-1.65-2.98,0-5.33.65-7.19,1.99-2.01,1.44-3.46,3.21-4.44,5.41-.3.66-.55,1.32-.76,1.97h24.18Z"/>
    <path class="cls-1" d="M553.81,97.63c1.65,2.97,3.87,5.36,6.65,7.16,2.78,1.81,5.89,2.71,9.31,2.71,3.67,0,6.85-.74,9.54-2.2,2.69-1.47,4.86-3.58,6.52-6.34.18-.3.35-.47.5-.5.15-.03.32.01.51.14l2.11,1.38c.37.24.4.55.09.92-1.41,2.2-3.06,4.06-4.96,5.56-1.9,1.5-4.04,2.63-6.42,3.4-2.39.76-5.02,1.15-7.89,1.15-4.4,0-8.27-1.04-11.61-3.12-3.33-2.08-5.95-5.01-7.85-8.77-1.9-3.77-2.84-8.1-2.84-12.99,0-5.39.96-9.98,2.89-13.78,1.93-3.79,4.57-6.72,7.94-8.77,3.36-2.05,7.19-3.08,11.47-3.08s8.08.96,11.2,2.89c3.12,1.93,5.54,4.72,7.25,8.36,1.71,3.64,2.57,8.04,2.57,13.18,0,.37-.03.77-.09,1.19-.06.43-.43.64-1.1.64h-37.72c-.18,0-.32.14-.41.41-.09.28-.14.57-.14.87,0,3.43.83,6.63,2.48,9.6ZM585.38,83.44c.67,0,1.1-.09,1.29-.27.18-.19.28-.52.28-1.01,0-3.37-.7-6.43-2.11-9.18-1.41-2.76-3.4-4.94-5.97-6.57-2.57-1.62-5.63-2.43-9.18-2.43-4.04,0-7.42.98-10.14,2.94-2.72,1.96-4.76,4.44-6.1,7.44-1.35,3-2.02,6.03-2.02,9.09h33.95Z"/>
    <path class="cls-3" d="M604.46,117.65c-1.6,0-3.08-.61-4.18-1.72-1.09-1.09-1.7-2.57-1.7-4.16v-47.02c0-3.35,2.49-5.88,5.79-5.88h1.93c2.08,0,3.83.99,4.85,2.54,1.6-1.06,3.21-1.87,4.81-2.41,2.06-.7,4.21-1.05,6.4-1.05,7.46,0,8.26,4.17,8.26,5.97v2.39c0,3.09-2.42,5.51-5.51,5.51-.35,0-.81-.02-1.37-.06-.28-.02-.76-.03-1.38-.03-.8,0-1.79.23-2.93.69-1.3.53-2.54,1.25-3.69,2.14-1.12.87-2.04,1.84-2.76,2.87-.63.91-.63,1.46-.63,1.64v32.69c0,3.35-2.53,5.88-5.88,5.88h-2.02Z"/>
    <path class="cls-1" d="M603.87,109.84c-.15-.15-.23-.35-.23-.6v-47.02c0-.55.24-.83.73-.83h1.93c.49,0,.73.24.73.74v6.25c0,.31.06.49.18.55.12.06.31-.03.55-.28,1.84-2.02,3.55-3.63,5.14-4.82,1.59-1.19,3.15-2.05,4.68-2.57,1.53-.52,3.12-.78,4.77-.78,2.14,0,3.21.31,3.21.92v2.39c0,.31-.15.46-.46.46-.25,0-.57-.01-.96-.05-.4-.03-1-.05-1.79-.05-1.47,0-3.07.36-4.82,1.06-1.74.7-3.38,1.65-4.91,2.84-1.53,1.19-2.8,2.53-3.81,3.99-1.01,1.47-1.52,2.97-1.52,4.5v32.69c0,.55-.28.83-.83.83h-2.02c-.24,0-.44-.08-.6-.23Z"/>
  </g>
</svg>