<?xml version="1.0" encoding="UTF-8"?>
<svg id="Capa_1" data-name="Capa 1" xmlns="http://www.w3.org/2000/svg" viewBox="0 0 808.91 897.51">
  <defs>
    <style>
      .cls-1 {
        stroke-width: 11.23px;
      }

      .cls-1, .cls-2, .cls-3, .cls-4, .cls-5, .cls-6, .cls-7, .cls-8, .cls-9, .cls-10, .cls-11 {
        stroke-linecap: round;
      }

      .cls-1, .cls-2, .cls-3, .cls-5, .cls-6, .cls-7, .cls-8, .cls-10 {
        stroke-linejoin: round;
      }

      .cls-1, .cls-3, .cls-4, .cls-7, .cls-8, .cls-9, .cls-10, .cls-11 {
        stroke: #1e1f1d;
      }

      .cls-1, .cls-8, .cls-12, .cls-10 {
        fill: #595957;
      }

      .cls-2 {
        stroke-width: 42.59px;
      }

      .cls-2, .cls-3, .cls-13, .cls-14, .cls-6, .cls-7 {
        fill: #fff;
      }

      .cls-2, .cls-5, .cls-14, .cls-6 {
        stroke: #fff;
      }

      .cls-3 {
        stroke-width: 7.75px;
      }

      .cls-15 {
        fill: #3d3d3b;
      }

      .cls-4 {
        stroke-width: 7.12px;
      }

      .cls-4, .cls-5, .cls-9, .cls-11 {
        fill: none;
      }

      .cls-4, .cls-14, .cls-9, .cls-11 {
        stroke-miterlimit: 10;
      }

      .cls-5 {
        stroke-width: 5.12px;
      }

      .cls-14 {
        stroke-width: 23.48px;
      }

      .cls-6 {
        stroke-width: 28.07px;
      }

      .cls-16 {
        fill: #1e1f1d;
      }

      .cls-7 {
        stroke-width: 6.89px;
      }

      .cls-8 {
        stroke-width: 14.52px;
      }

      .cls-9 {
        stroke-width: 7.71px;
      }

      .cls-10 {
        stroke-width: 12.58px;
      }

      .cls-11 {
        stroke-width: 14.29px;
      }
    </style>
  </defs>
  <path class="cls-14" d="M345.7,652.03l-132.42-65.45c-1.67-.83-3.64-.25-4.62,1.34l-36.13,59.32,172.06,11.22"/>
  <g>
    <path class="cls-13" d="M550.61,185.69c-5.12-7.72-13.95-11.48-22.36-14.13-20.04-6.3-47.38-11.53-67.83-10.01l.78,3.14c-8.52-13.53-9.41-31.81-15.39-61.16q-3.32-16.3-19.88-45.15c-9.83-17.13-16.73-26.02-56.32-37.07-12.4-3.46-32.07-3.59-49.3-1.62-.27-3.07-3.77-1.96-7.04-2.86-3.04-.83-3.43-.76-6.52-.58-5.84.34-6.52,1.03-11.87,3.31-2.22.95-3.85,1.26-7.84,3.5-2.64,1.48-6.35,3.25-5.1,6.24-12.83,4.73-25.45,10.56-36.44,18.14-15.31,10.55-32.84,21.81-44.22,36.41-11.72,15.05-20.25,28.31-25.25,46.66-5.73,21.03-4.96,40.17.15,60.78,3.69,14.88,7.82,29.97,14.47,43.88h-.01s.02,0,.02,0c1.88,3.93,3.95,7.77,6.28,11.48,0,0,.64-.23,1.83-.65-.59.59-1.16,1.21-1.72,1.84h0s0,0,0,0c-.07.08-.15.16-.22.24l.31-.1c6,9.44-2.8,31.17,8.61,45.67,3.82,4.86,14.34,15.6,17.96,20.63,10.46,14.54,11.67,36.17,21.22,51.38,5.31,8.45,12.17,15.68,18.97,22.84,4.63,4.87,10.36,11.04,15.87,14.67,5.68,3.74,9.86,6.58,15.77,9.69,14.78,7.76,26.46,12.18,43.07,9.21,16.61-2.97,43.63-12.11,53.07-26.63l-2.06-7.58c3.79,6.23,30.29-5.64,32.13,1.44,29.49-12.7,29.77-11.08,48.48-38.21.03-.05.07-.1.1-.14,4.93-7.19,20.3,16.85,17.19,2.44-2.24-10.35-36.28-39.53-42.72-47.95l.17.05c.12.37.37.61.69.76l-9.98,23.23c6.31-7.29,42.02-22.86,51.56-23.25,8.57-.35,17.94,2.29,25.29-2.04-6.88-1.4-12.33-7.5-16.05-13.96-3.73-6.46-7.21-15.92-11.45-22.02l-.83.77c.03-.09.07-.19.11-.28.55-1.49,1.06-2.99,1.52-4.52h0c1.59-.4,3.35-.99,5.24-1.72,3-.43,5.67-1.75,8.11-3.67,12.72-6.4,27.71-16.47,35.17-22.81,7.12-6.04,13.97-12.87,17.77-21.75,3.81-8.87,4.04-20.21-1.5-28.56ZM405.52,204.36c1.77,2.31,3.33,5.24,4.28,8.94-.96-3.19-2.41-6.22-4.28-8.94ZM425.33,233.3s1.35-3.85,3.94-8.8c-1.44,2.86-2.73,5.83-3.94,8.8ZM461.27,164.98l.22.89c-1.84-.16-3.67-.33-5.51-.46,3.31-.56,4.71-.56,5.29-.43ZM374.28,193.99l.06-.02c1.21,7.19,1.65,19.03,1.74,21.97l-1.8-21.95ZM386.78,199.95c.81-.69,1.66-1.34,2.55-1.93,1.54-1.01,3.31-1.85,5.16-1.57,0,0,.09.02.24.07-.13,0-.25,0-.38.02,0,0-3.41.28-7.56,3.4ZM439.78,209.9c-.26.24-.52.49-.78.74,4.45-4.51,9.94-7.85,16.37-7.71-5.7.44-11.28,3.08-15.59,6.98Z"/>
    <g>
      <path class="cls-13" d="M564.54,177.54c-4.77-6.99-11.06-12.66-18.73-16.32-6.59-3.14-13.47-5.41-20.48-7.35-14.21-3.94-28.8-6.61-43.48-8.01-7.12-.68-14.29-.95-21.43-.44-5.23.37-9.44,2.17-12.67,6.36-3.17,4.11-4.14,9-2.89,14.07.26,1.05.52,2.09.78,3.14,9.83-4.15,19.66-8.29,29.5-12.44-1.36-2.19-2.53-4.48-3.54-6.85.54,1.29,1.08,2.57,1.63,3.86-2.84-6.81-4.42-14.07-5.8-21.3-1.83-9.58-3.35-19.22-5.21-28.8-1.06-5.42-2.01-10.95-3.63-16.24-1.75-5.7-4.34-11.17-7.13-16.43-3.91-7.37-8.13-14.6-12.32-21.81-3.17-5.46-6.68-10.67-10.81-15.47-9.83-11.44-24.21-17.8-38.12-22.69-5.36-1.89-10.81-3.56-16.3-5.06-5.96-1.63-12.18-2.39-18.32-2.93-11.72-1.04-23.59-.57-35.27.74,5.19,3.95,10.37,7.9,15.56,11.85-.48-3.03-2.48-6.13-4.54-8.34-2.12-2.27-4.99-3.95-7.95-4.84-2.73-.82-5.64-.91-8.47-1.22l4.29.58c-3.17-.45-6.13-1.44-9.39-1.57-2.03-.08-4.11.13-6.13.37-2.72.32-5.53.55-8.13,1.5-2.99,1.1-5.89,2.48-8.82,3.74,1.29-.54,2.57-1.08,3.86-1.63-4.35,1.81-8.73,3.44-12.84,5.76-3.1,1.75-5.87,3.95-8.04,6.77-3.68,4.76-5.3,11.18-3.32,17.06,3.76-6.62,7.51-13.23,11.27-19.85-9.42,3.49-18.76,7.39-27.64,12.12-7.43,3.95-14.29,8.75-21.2,13.51-14.39,9.9-29.02,20.27-39.8,34.19-5.57,7.2-11.07,14.46-15.69,22.31-4.52,7.69-8.23,15.96-11.05,24.42-3.24,9.7-5.06,19.84-5.95,30.01-.91,10.28-.07,20.42,1.4,30.61,1.46,10.17,4.14,20.19,6.95,30.06,3.16,11.08,7.1,21.92,12.04,32.34,3.21-7.9,6.43-15.8,9.64-23.71h-.01c-6.6,1.63-12.16,8.67-11.85,15.57.32,7.12,4.78,13.62,11.85,15.56h.02c-3.21-2.47-6.43-4.94-9.64-7.41,1.9,3.93,3.97,7.77,6.28,11.48,1.88,3.01,4.45,5.23,7.72,6.6,3.13,1.32,7.2,2,10.51.81.61-.22,1.22-.43,1.83-.65-5.23-8.99-10.47-17.98-15.7-26.97-.59.6-1.16,1.21-1.72,1.84,6.52-.84,13.04-1.68,19.56-2.52h0c-1.29-.54-2.57-1.09-3.86-1.63-2.15-.67-4.29-.77-6.44-.29-3.39.46-6.89,1.85-9.27,4.44-4.88,5.32-6.23,13.16-2.52,19.56h0c.84-6.52,1.68-13.03,2.52-19.55l-.22.24c-4.69,5.11-6.49,13.4-2.52,19.56,3.81,5.91,11.2,9.56,18.23,7.42l.31-.1c-6.08-2.47-12.15-4.94-18.23-7.42.33.54.61,1.09.86,1.66l-1.63-3.86c.62,1.54.96,3.14,1.18,4.79-.19-1.43-.38-2.86-.58-4.29.51,4.25.3,8.56.25,12.83-.07,5.98.33,11.87,1.4,17.78,1.07,5.93,3.48,11.95,7.13,16.76,3.14,4.15,6.56,7.99,10.06,11.84,3.33,3.66,6.75,7.28,9.79,11.2-.84-1.09-1.68-2.18-2.52-3.27,2.7,3.54,4.75,7.5,6.49,11.58-.54-1.29-1.08-2.57-1.63-3.86,6.8,16.28,9.34,34.11,19.85,48.74,6,8.36,12.91,15.84,19.98,23.28,3.02,3.18,6.05,6.35,9.35,9.24,4.18,3.66,8.73,6.77,13.37,9.79,8.4,5.47,17.28,9.93,26.56,13.72,8.62,3.51,18.15,5.4,27.48,5.04,16.65-.64,33.68-6.29,48.54-13.54,7.79-3.8,15.67-8.82,21.43-15.37,2.31-2.62,4.53-5.32,5.89-8.53,1.65-3.91,1.53-7.86.45-11.84-.57-2.08-1.13-4.17-1.7-6.25-9.83,4.15-19.66,8.29-29.5,12.44,5.07,7.68,13.52,10.61,22.42,9.69,6.23-.64,12.33-2,18.53-2.84-1.43.19-2.86.38-4.29.58,2.03-.26,4.11-.48,6.15-.22-1.43-.19-2.86-.38-4.29-.58.55.09,1.08.21,1.6.42-1.29-.54-2.57-1.08-3.86-1.63.25.12.48.24.71.4-1.09-.84-2.18-1.68-3.27-2.52.2.16.37.33.54.53l-2.52-3.27c.11.16.2.31.28.49-.54-1.29-1.08-2.57-1.63-3.86.05.12.09.25.13.37,1.46,4.88,4.7,8.5,9.34,10.46,1.92,1.01,4,1.47,6.22,1.39,2.91,0,5.63-.74,8.15-2.2,8.15-3.51,16.72-6.58,24.39-11.11,8.23-4.87,14.15-11.49,19.91-18.96,3.57-4.64,6.77-9.54,10.22-14.27-.84,1.09-1.68,2.18-2.52,3.27.19-.23.39-.43.62-.62-1.09.84-2.18,1.68-3.27,2.52.17-.12.33-.22.52-.31l-3.86,1.63c.25-.1.49-.17.75-.22l-4.29.58c.35-.04.68-.03,1.02,0l-4.29-.58c.54.09,1.05.24,1.56.45l-3.86-1.63c1.68.72,3.17,1.8,4.6,2.91-1.09-.84-2.18-1.68-3.27-2.52,2.81,2.18,5.48,4.56,8.41,6.58,5.55,3.83,13.13,4.39,19.01.95,11.3-6.62,9.84-21.56,3.8-31.15-4.02-6.38-9.27-12.11-14.45-17.56-5.21-5.48-10.63-10.75-16.02-16.04-4.3-4.22-8.98-8.34-12.67-13.12-5.23,8.99-10.47,17.98-15.7,26.97l.17.05c-3.21-2.47-6.43-4.94-9.64-7.42,1.75,3.01,3.69,4.56,6.48,6.55-1.93-7.36-3.86-14.72-5.79-22.08-3.33,7.74-6.65,15.49-9.98,23.23-1.7,3.97-3.04,8.07-1.63,12.44,1.1,3.4,2.94,6.19,5.78,8.38,6.01,4.64,15.84,4.78,21.19-1.26.71-.81,1.54-1.5,2.39-2.16-1.09.84-2.18,1.68-3.27,2.52,7.8-5.95,17.3-10.03,26.28-13.83-1.29.54-2.57,1.08-3.86,1.63,6.86-2.88,14.15-6.06,21.57-7.14-1.43.19-2.86.38-4.29.58,4.31-.57,8.77.15,13.09.31,7.54.28,15.03-.95,21.67-4.67,5.64-3.16,8.54-9.85,7.7-16.08s-5.34-12.02-11.56-13.42c-.98-.22-1.92-.51-2.86-.87l3.86,1.63c-1.69-.73-3.23-1.67-4.69-2.78,1.09.84,2.18,1.68,3.27,2.52-1.99-1.61-3.72-3.45-5.29-5.47.84,1.09,1.68,2.18,2.52,3.27-6.19-8.21-8.88-18.4-14.66-26.86-2.93-4.29-6.58-7-11.79-7.7-5.16-.69-9.73.88-13.56,4.44l-.83.77c8.99,5.23,17.98,10.47,26.97,15.7.6-1.58,1.13-3.19,1.63-4.8h-31.12,0c.83,3.68,4.09,7.89,7.42,9.65,3.87,2.04,8.13,2.76,12.44,1.63,1.99-.52,3.89-1.36,5.88-1.83,3-.72,5.92-1.88,8.62-3.38,1.71-.95,3.27-2.08,5.01-2.99,1.88-.99,3.74-2.02,5.58-3.07,6.91-3.96,13.63-8.28,20.07-12.96,14.7-10.66,29.67-23.93,34.18-42.32,2.91-11.87,1.82-25.22-4.91-35.67-2.26-3.51-5.56-6.29-9.64-7.42-3.86-1.06-9.01-.58-12.44,1.63-7.09,4.57-10.68,14.49-5.79,22.08.81,1.26,1.5,2.55,2.1,3.91-.54-1.29-1.08-2.57-1.63-3.86.97,2.36,1.59,4.79,1.94,7.32-.19-1.43-.38-2.86-.58-4.29.31,2.76.28,5.5-.05,8.26.19-1.43.38-2.86.58-4.29-.44,3.13-1.26,6.15-2.48,9.07.54-1.29,1.08-2.57,1.63-3.86-1.52,3.46-3.48,6.65-5.77,9.65.84-1.09,1.68-2.18,2.52-3.27-4.41,5.62-9.77,10.47-15.39,14.84,1.09-.84,2.18-1.68,3.27-2.52-5.48,4.22-11.23,8.11-17.1,11.76-3.1,1.93-6.25,3.79-9.45,5.55-1.63.9-3.34,1.68-4.94,2.62-1.59.94-2.99,2.04-4.71,2.79,1.29-.54,2.57-1.08,3.86-1.63-1.44.57-2.94.81-4.39,1.29-1.51.5-2.99,1.05-4.54,1.45,6.62,3.76,13.23,7.51,19.85,11.27h0c-1.49-6.62-8.77-12.15-15.56-11.85-7.28.33-13.38,4.81-15.56,11.85-.5,1.61-1.03,3.22-1.63,4.8-.19,1.43-.38,2.86-.58,4.29-.08,2.22.38,4.29,1.39,6.22,1.31,3.1,3.54,6.1,6.6,7.72,6.52,3.45,14.12,2.53,19.56-2.52.28-.26.55-.52.83-.77-8.45-1.09-16.9-2.18-25.35-3.27,4.63,6.78,7.26,14.66,11.31,21.77,5.57,9.79,14.47,19.09,25.84,21.63-1.29-9.83-2.57-19.66-3.86-29.5-.57.32-1.14.61-1.73.88,1.29-.54,2.57-1.08,3.86-1.63-1.59.65-3.21,1.07-4.91,1.34,1.43-.19,2.86-.38,4.29-.58-6.66.87-13.33-.8-19.97-.06-5.35.6-10.3,1.86-15.37,3.64-11.33,3.98-22.59,8.84-33.08,14.72-2.1,1.18-4.18,2.41-6.16,3.8-2.43,1.7-5.05,3.45-7.04,5.69,8.45,6.52,16.9,13.04,25.35,19.56,3.33-7.74,6.65-15.49,9.98-23.23,1.7-3.97,3.04-8.07,1.63-12.44-1.36-4.2-3.82-7.09-7.42-9.64l-.42-.3c1.93,1.93,3.86,3.86,5.79,5.79-2.22-3.82-5.8-6.74-10.08-7.93-6.63-1.83-14.91,1.15-18.23,7.42-1.34,2.54-2.08,5.28-2.2,8.15-.2,4.55,2.11,8.02,4.73,11.41,3.61,4.66,8.15,8.69,12.35,12.81,5.9,5.78,11.83,11.53,17.48,17.56,2.87,3.05,5.68,6.18,8.24,9.49-.84-1.09-1.68-2.18-2.52-3.27,1.55,2.02,3.07,4.13,4.1,6.47l-1.63-3.86c.46,1.1.69,2.23.86,3.41-.19-1.43-.38-2.86-.58-4.29.08.64.13,1.27.04,1.9.19-1.43.38-2.86.58-4.29-.03.15-.07.29-.12.44l1.63-3.86c-.03.08-.07.15-.12.22l2.52-3.27c-.04.06-.09.11-.15.16,1.09-.84,2.18-1.68,3.27-2.52-.05.04-.11.08-.17.11,1.29-.54,2.57-1.08,3.86-1.63-.06.03-.13.05-.2.06l4.29-.58c-.12.01-.23,0-.35,0l4.29.58c-.19-.04-.37-.09-.55-.16,1.29.54,2.57,1.08,3.86,1.63-.92-.4-1.74-1.02-2.53-1.63,1.09.84,2.18,1.68,3.27,2.52-6.94-5.39-13.07-11.26-22.45-11.43-4.81-.09-9.74,2.09-13.14,5.41-2.16,2.11-3.84,4.99-5.57,7.48-2.48,3.56-4.98,7.11-7.63,10.54.84-1.09,1.68-2.18,2.52-3.27-2.93,3.77-6.07,7.37-9.85,10.31,1.09-.84,2.18-1.68,3.27-2.52-8.4,6.4-19.05,9.84-28.65,13.97,7.9,3.21,15.8,6.43,23.71,9.64-3.03-10.15-12.94-14.95-22.98-14.07-6.41.56-12.66,2.02-19.01,2.88,1.43-.19,2.86-.38,4.29-.58-2.12.27-4.28.49-6.42.26l4.29.58c-.68-.09-1.33-.23-1.97-.48l3.86,1.63c-.33-.15-.64-.32-.93-.54,1.09.84,2.18,1.68,3.27,2.52-.16-.14-.3-.27-.43-.43.84,1.09,1.68,2.18,2.52,3.27-.09-.1-.16-.21-.23-.33-4.46-6.75-12.52-9.82-20.15-6.6-7.33,3.1-11.47,11.2-9.34,19.04.69,2.53,1.37,5.05,2.06,7.58.54-4.15,1.08-8.29,1.63-12.44-.43.64-.87,1.27-1.34,1.88.84-1.09,1.68-2.18,2.52-3.27-2.06,2.61-4.49,4.86-7.11,6.89,1.09-.84,2.18-1.68,3.27-2.52-5.35,4.06-11.34,7.18-17.51,9.8l3.86-1.63c-9.54,4-19.72,7.1-29.99,8.51,1.43-.19,2.86-.38,4.29-.58-4.61.58-9.23.63-13.84.03l4.29.58c-5.45-.78-10.66-2.43-15.72-4.56,1.29.54,2.57,1.08,3.86,1.63-10.15-4.36-20.23-9.94-29-16.7,1.09.84,2.18,1.68,3.27,2.52-5.02-3.97-9.38-8.69-13.78-13.32-4.66-4.91-9.29-9.84-13.46-15.18.84,1.09,1.68,2.18,2.52,3.27-3.68-4.77-6.84-9.77-9.22-15.31.54,1.29,1.08,2.57,1.63,3.86-4.25-10.09-6.51-20.88-10.57-31.04-2.31-5.78-4.76-11.56-8.48-16.59-3.24-4.37-6.79-8.43-10.44-12.45-3.25-3.58-6.62-7.09-9.63-10.88.84,1.09,1.68,2.18,2.52,3.27-1.44-1.88-2.61-3.89-3.54-6.07.54,1.29,1.08,2.57,1.63,3.86-1.15-2.84-1.85-5.78-2.27-8.8.19,1.43.38,2.86.58,4.29-1.64-12.85,2.14-27.24-5-38.95-3.64-5.97-11.33-9.52-18.23-7.42l-.31.1c5.23,8.99,10.47,17.98,15.7,26.97l.22-.24c4.89-5.32,6.22-13.17,2.52-19.56h0c-7.36,7.36-14.72,14.72-22.08,22.08h0c1.29.54,2.57,1.09,3.86,1.63,2.15.67,4.29.77,6.44.29,3.34-.45,6.95-1.83,9.27-4.44.56-.63,1.13-1.24,1.72-1.84,4.83-4.93,6.4-13.54,2.52-19.56-1.5-2.33-3.46-4.29-5.79-5.79-3.19-2.06-8.82-2.91-12.44-1.63-.61.22-1.22.43-1.83.65,6.08,2.47,12.15,4.94,18.23,7.42-1.43-2.29-2.78-4.63-4.04-7.01-.6-1.13-1.18-2.28-1.74-3.43-1.97-4.03-5.82-7.26-10.16-8.46v31.12h.01c4.86-1.2,8.57-4.86,10.46-9.35,2.11-5,1.47-9.55-.81-14.36-.87-1.83-1.7-3.67-2.49-5.53.54,1.29,1.08,2.57,1.63,3.86-3.64-8.64-6.48-17.58-8.95-26.62-2.47-9.07-4.8-18.2-6.09-27.52.19,1.43.38,2.86.58,4.29-1.34-10.13-1.44-20.32-.08-30.46-.19,1.43-.38,2.86-.58,4.29,1.35-9.57,3.86-18.97,7.58-27.9-.54,1.29-1.08,2.57-1.63,3.86,4.96-11.69,12.07-22.16,19.8-32.18l-2.52,3.27c6.09-7.87,13.38-14.53,21.22-20.63-1.09.84-2.18,1.68-3.27,2.52,15.74-12.15,32.37-23.5,50.74-31.27-1.29.54-2.57,1.08-3.86,1.63,3.16-1.32,6.35-2.58,9.56-3.77,3.84-1.42,7.64-3.62,9.64-7.42,1.97-3.72,3.01-8.32,1.63-12.44-.13-.3-.21-.62-.24-.95.19,1.43.38,2.86.58,4.29v-.44c-.19,1.43-.38,2.86-.58,4.29.03-.29.1-.57.22-.83l-1.63,3.86c.12-.27.27-.53.46-.76-.84,1.09-1.68,2.18-2.52,3.27.33-.38.65-.7,1.04-1.02-1.09.84-2.18,1.68-3.27,2.52,2.26-1.72,4.97-3.07,7.56-4.2-1.29.54-2.57,1.08-3.86,1.63,3.83-1.6,7.67-3.15,11.49-4.78-1.29.54-2.57,1.08-3.86,1.63,1.65-.69,3.29-1.17,5.07-1.42-1.43.19-2.86.38-4.29.58,2.21-.27,4.55-.53,6.78-.32-1.43-.19-2.86-.38-4.29-.58,1.32.19,2.59.61,3.9.86,2.44.46,4.93.63,7.39.89l-4.29-.58c.57.08,1.09.19,1.63.4-1.29-.54-2.57-1.08-3.86-1.63l.32.18c-1.09-.84-2.18-1.68-3.27-2.52.2.14.37.31.51.51-.84-1.09-1.68-2.18-2.52-3.27l.18.34c-.54-1.29-1.08-2.57-1.63-3.86.11.28.18.57.21.88l1.63,3.86c1.01,1.88,2.4,3.39,4.16,4.53,2.58,1.99,6.41,3.84,9.78,3.47,13.34-1.5,27-1.96,40.33-.17l-4.29-.58c6.04.85,11.84,2.54,17.66,4.35,5.38,1.67,10.7,3.51,15.9,5.69-1.29-.54-2.57-1.08-3.86-1.63,5.6,2.38,11.04,5.17,15.88,8.88-1.09-.84-2.18-1.68-3.27-2.52,3.17,2.47,5.99,5.31,8.46,8.48-.84-1.09-1.68-2.18-2.52-3.27,4.63,6.01,8.18,12.84,11.94,19.41,3.78,6.62,7.78,13.24,10.76,20.28-.54-1.29-1.08-2.57-1.63-3.86,3.14,7.51,4.4,15.78,5.91,23.73,2.49,13.08,4.07,26.48,7.69,39.31,1.85,6.54,4.39,13.11,7.99,18.89,4.27,6.85,12.67,9.76,20.15,6.6,7.46-3.15,11.3-11.15,9.34-19.04-.26-1.05-.52-2.09-.78-3.14-5.19,6.81-10.37,13.62-15.56,20.43,9.53-.68,19.12.01,28.58,1.26l-4.29-.58c8.2,1.11,16.34,2.67,24.38,4.62,7.34,1.78,14.76,3.72,21.76,6.59-1.29-.54-2.57-1.08-3.86-1.63,3.4,1.44,6.64,3.16,9.59,5.4-1.09-.84-2.18-1.68-3.27-2.52,1.77,1.41,3.37,2.96,4.78,4.73-.84-1.09-1.68-2.18-2.52-3.27.38.5.74,1.01,1.1,1.52,2.39,3.51,5.45,6.26,9.64,7.42,3.86,1.06,9.01.58,12.44-1.63,3.45-2.22,6.48-5.53,7.42-9.64.93-4.07.81-8.87-1.63-12.44Z"/>
      <path class="cls-13" d="M391.59,212.5c1.23,1.61,2.23,3.36,3.03,5.21-.54-1.29-1.08-2.57-1.63-3.86.51,1.21.92,2.45,1.25,3.73,10.37-2.86,20.75-5.72,31.12-8.58-.88-2.89-2.1-5.71-3.39-8.43-.72-1.52-1.56-2.98-2.51-4.36-1.01-1.88-2.4-3.39-4.16-4.53-1.56-1.43-3.39-2.39-5.49-2.89-2.15-.67-4.29-.77-6.44-.29-2.15.1-4.15.74-6,1.92-1.09.84-2.18,1.68-3.27,2.52-2,2.01-3.38,4.39-4.15,7.12-.19,1.43-.38,2.86-.58,4.29,0,2.91.74,5.63,2.2,8.15,1.22,1.78,2.25,3.68,3.1,5.66l-1.63-3.86c.45,1.07.84,2.16,1.18,3.28.5,2.1,1.46,3.93,2.89,5.49,1.14,1.76,2.65,3.14,4.53,4.16,1.85,1.18,3.85,1.82,6,1.92,2.15.48,4.29.38,6.44-.29,1.29-.54,2.57-1.08,3.86-1.63,2.43-1.43,4.35-3.36,5.79-5.79.54-1.29,1.08-2.57,1.63-3.86.77-2.86.77-5.72,0-8.58-.23-.9-.51-1.79-.83-2.67-.62-1.66-1.35-3.28-2.05-4.91-.17-.4-.35-.81-.55-1.2-.69-1.42-1.52-2.76-2.48-4.01-1.01-1.88-2.4-3.39-4.16-4.53-1.56-1.43-3.39-2.39-5.49-2.89-2.15-.67-4.29-.77-6.44-.29-2.15.1-4.15.74-6,1.92-1.09.84-2.18,1.68-3.27,2.52-2,2.01-3.38,4.39-4.15,7.12-.19,1.43-.38,2.86-.58,4.29,0,2.91.74,5.63,2.2,8.15Z"/>
      <path class="cls-13" d="M440.89,237.59c.33-.93.7-1.84,1.08-2.74-.54,1.29-1.08,2.57-1.63,3.86.87-2.06,1.82-4.08,2.86-6.06-9.29-5.43-18.58-10.86-27.87-16.29-2.07,4.12-3.83,8.39-5.57,12.66-.67,2.15-.77,4.29-.29,6.44.1,2.15.74,4.15,1.92,6,1.01,1.88,2.4,3.39,4.16,4.53,1.56,1.43,3.39,2.39,5.49,2.89,1.43.19,2.86.38,4.29.58,2.91,0,5.63-.74,8.15-2.2,1.09-.84,2.18-1.68,3.27-2.52,2-2.01,3.38-4.39,4.15-7.12.28-.68.56-1.36.84-2.03l-1.63,3.86c.97-2.29,1.98-4.55,3.1-6.77,1.18-1.85,1.82-3.85,1.92-6,.48-2.15.38-4.29-.29-6.44-.5-2.1-1.46-3.93-2.89-5.49-1.14-1.76-2.65-3.14-4.53-4.16-1.29-.54-2.57-1.08-3.86-1.63-2.86-.77-5.72-.77-8.58,0-1.29.54-2.57,1.08-3.86,1.63-2.43,1.43-4.35,3.36-5.79,5.79-1.71,3.27-3.12,6.66-4.55,10.06-.36.86-.71,1.72-1.02,2.59-.67,2.15-.77,4.29-.29,6.44.1,2.15.74,4.15,1.92,6,1.01,1.88,2.4,3.39,4.16,4.53,1.56,1.43,3.39,2.39,5.49,2.89,1.43.19,2.86.38,4.29.58,2.91,0,5.63-.74,8.15-2.2,1.09-.84,2.18-1.68,3.27-2.52,2-2.01,3.38-4.39,4.15-7.12Z"/>
      <path class="cls-13" d="M445.71,169.27c.07.3.15.59.22.89,5.19-6.81,10.37-13.62,15.56-20.43-1.84-.16-3.67-.33-5.51-.46,1.43,10.57,2.86,21.13,4.29,31.7.63-.11,1.26-.21,1.9-.29l-4.29.58c1.04-.14,2.15-.31,3.2-.18-1.43-.19-2.86-.38-4.29-.58.07,0,.13.02.19.03,2.15.67,4.29.77,6.44.29,2.15-.1,4.15-.74,6-1.92,1.88-1.01,3.39-2.4,4.53-4.16,1.43-1.56,2.39-3.39,2.89-5.49.19-1.43.38-2.86.58-4.29,0-2.91-.74-5.63-2.2-8.15-.84-1.09-1.68-2.18-2.52-3.27-2.01-2-4.39-3.38-7.12-4.15-1.81-.4-3.96-.75-5.91-.62-.51.03-1.02.09-1.53.15-2.14.27-4.3.54-6.43.9-2.1.5-3.93,1.46-5.49,2.89-1.76,1.14-3.14,2.65-4.16,4.53-.54,1.29-1.08,2.57-1.63,3.86-.67,2.15-.77,4.29-.29,6.44,0,1.46.37,2.81,1.1,4.07.65,2,1.76,3.73,3.34,5.19,1.09.84,2.18,1.68,3.27,2.52,2.52,1.46,5.23,2.19,8.15,2.2,1.84.13,3.67.29,5.51.46,2.91,0,5.63-.74,8.15-2.2,1.88-1.01,3.39-2.4,4.53-4.16,1.43-1.56,2.39-3.39,2.89-5.49.77-2.86.77-5.72,0-8.58l-.22-.89c-.5-2.1-1.46-3.93-2.89-5.49-1.14-1.76-2.65-3.14-4.53-4.16-1.85-1.18-3.85-1.82-6-1.92-2.15-.48-4.29-.38-6.44.29l-3.86,1.63c-2.43,1.43-4.35,3.36-5.79,5.79-.54,1.29-1.08,2.57-1.63,3.86-.77,2.86-.77,5.72,0,8.58Z"/>
      <path class="cls-13" d="M378.57,209.56l.06-.02c-6.62-3.76-13.23-7.51-19.85-11.27.12.74.23,1.48.33,2.23-.19-1.43-.38-2.86-.58-4.29.86,6.54,1.21,13.16,1.4,19.74h32.28c-.52-6.4-1.05-12.79-1.57-19.19-.08-.92-.15-1.84-.23-2.76.08-2.22-.38-4.29-1.39-6.22-.65-2-1.76-3.73-3.34-5.19-1.46-1.57-3.19-2.69-5.19-3.34-1.92-1.01-4-1.47-6.22-1.39-4.17.19-8.5,1.56-11.41,4.73-2.76,3.01-5.07,7.18-4.73,11.41.52,6.4,1.05,12.79,1.57,19.19l.23,2.76c-.08,2.22.38,4.29,1.39,6.22.65,2,1.76,3.73,3.34,5.19,1.46,1.57,3.19,2.69,5.19,3.34,1.92,1.01,4,1.47,6.22,1.39,4.17-.19,8.5-1.56,11.41-4.73,2.85-3.1,4.85-7.09,4.73-11.41-.26-8.78-.87-17.58-2.31-26.26-.5-2.1-1.46-3.93-2.89-5.49-1.14-1.76-2.65-3.14-4.53-4.16-3.78-2-8.24-2.91-12.44-1.63l-.06.02c-3.95,1.21-7.54,3.82-9.64,7.42-1.18,1.85-1.82,3.85-1.92,6-.48,2.15-.38,4.29.29,6.44,1.26,3.9,3.68,7.67,7.42,9.64,3.78,2,8.24,2.91,12.44,1.63Z"/>
      <path class="cls-13" d="M398.19,211.36c.33-.28.67-.56,1.01-.83-1.09.84-2.18,1.68-3.27,2.52,1.08-.84,2.23-1.62,3.49-2.17l-3.86,1.63c.59-.25,1.2-.43,1.84-.51l-4.29.58c.41-.05.82-.05,1.23,0-1.43-.19-2.86-.38-4.29-.58.13.02.24.05.37.09,1.43-10.57,2.86-21.13,4.29-31.7-1.73.06-3.45.36-5.15.66-.55.1-1.09.25-1.62.42-.39.13-.78.27-1.16.43-1.7.7-3.44,1.36-5.09,2.19-1.08.55-2.1,1.2-3.07,1.92-1.88,1.01-3.39,2.4-4.53,4.16-1.43,1.56-2.39,3.39-2.89,5.49-.67,2.15-.77,4.29-.29,6.44.1,2.15.74,4.15,1.92,6,.84,1.09,1.68,2.18,2.52,3.27,2.01,2,4.39,3.38,7.12,4.15l4.29.58c2.91,0,5.63-.74,8.15-2.2,1.31-.97,2.71-1.81,4.21-2.45-1.29.54-2.57,1.08-3.86,1.63,1.03-.43,2.1-.79,3.21-.94-1.43.19-2.86.38-4.29.58.18-.02.35-.03.53-.03,2.22.08,4.29-.38,6.22-1.39,2-.65,3.73-1.76,5.19-3.34l2.52-3.27c1.18-1.85,1.82-3.85,1.92-6,.38-1.43.38-2.86,0-4.29-.1-2.15-.74-4.15-1.92-6l-2.52-3.27c-2.01-2-4.39-3.38-7.12-4.15-.81-.25-1.69-.27-2.52-.38-.78-.1-1.76-.3-2.63-.32-.2,0-.41,0-.61.02-1.42.12-3.02.39-4.43.59-.09.01-.18.02-.27.04-.38.06-.76.17-1.12.3-1.46.52-2.89,1.18-4.31,1.8-.19.08-.38.17-.57.26-.72.36-1.39.79-2.04,1.25-1.42,1-2.78,2.1-4.14,3.17-.34.27-.68.54-1.01.83-1.57,1.46-2.69,3.19-3.34,5.19-1.01,1.92-1.47,4-1.39,6.22-.08,2.22.38,4.29,1.39,6.22.65,2,1.76,3.73,3.34,5.19,1.09.84,2.18,1.68,3.27,2.52,2.52,1.46,5.23,2.19,8.15,2.2l4.29-.58c2.73-.77,5.11-2.15,7.12-4.15Z"/>
      <path class="cls-13" d="M428.37,198.48c-.26.24-.52.49-.78.74l22.82,22.82c1.05-1.06,2.15-2.05,3.33-2.97-1.09.84-2.18,1.68-3.27,2.52,1.7-1.31,3.53-2.43,5.5-3.27-1.29.54-2.57,1.08-3.86,1.63,1.58-.65,3.22-1.11,4.91-1.33l-4.29.58c.87-.1,1.75-.15,2.62-.14v-32.28c-2.8.23-5.66.56-8.4,1.27s-5.38,1.92-7.94,3.07c-1.37.61-2.69,1.34-3.94,2.17-2.36,1.55-4.62,3.31-6.72,5.2-1.57,1.46-2.69,3.19-3.34,5.19-1.01,1.92-1.47,4-1.39,6.22-.08,2.22.38,4.29,1.39,6.22.65,2,1.76,3.73,3.34,5.19,3.08,2.82,7.11,4.92,11.41,4.73l4.29-.58c2.73-.77,5.11-2.15,7.12-4.15.54-.49,1.1-.95,1.67-1.4-1.09.84-2.18,1.68-3.27,2.52,1.96-1.5,4.08-2.75,6.35-3.71-1.29.54-2.57,1.08-3.86,1.63,2.01-.83,4.09-1.42,6.24-1.72l-4.29.58c.44-.06.89-.11,1.33-.14,2.22.08,4.29-.38,6.22-1.39,2-.65,3.73-1.76,5.19-3.34,1.57-1.46,2.69-3.19,3.34-5.19,1.01-1.92,1.47-4,1.39-6.22-.19-1.43-.38-2.86-.58-4.29-.77-2.73-2.15-5.11-4.15-7.12-1.09-.84-2.18-1.68-3.27-2.52-2.52-1.46-5.23-2.19-8.15-2.2-.84-.01-1.67.03-2.5.12-2.09.24-4.25.45-6.31.94-.78.19-1.56.42-2.31.71-1.97.74-3.95,1.55-5.84,2.49-1.42.71-2.76,1.57-4.02,2.53-2.37,1.78-4.71,3.55-6.8,5.65-1.57,1.46-2.69,3.19-3.34,5.19-1.01,1.92-1.47,4-1.39,6.22-.08,2.22.38,4.29,1.39,6.22.65,2,1.76,3.73,3.34,5.19,3.08,2.82,7.11,4.92,11.41,4.73l4.29-.58c2.73-.77,5.11-2.15,7.12-4.15.26-.25.51-.49.78-.74,1.57-1.46,2.69-3.19,3.34-5.19,1.01-1.92,1.47-4,1.39-6.22.08-2.22-.38-4.29-1.39-6.22-.65-2-1.76-3.73-3.34-5.19-3.08-2.82-7.11-4.92-11.41-4.73l-4.29.58c-2.73.77-5.11,2.15-7.12,4.15Z"/>
    </g>
  </g>
  <g>
    <path class="cls-6" d="M130.13,557.86s-12.73-6.77-14.26-22.99c-3.07-32.58,24.54-14.93,24.54-14.93,0,0,7,24.29,27.17,37.93,20.17,13.64,7.32,41.31,7.32,41.31l29.8,12.23-25.66,52.99-24.64-17.32s-12.35,8.8-28.2,9.39c-13.25.49-73.83-21.19-91.92-33.12-3.42-2.26-5.26-6.38-4.68-10.5h0c.92-6.52,7.39-10.4,13.39-8.03l41.38,15.03-58.91-23.16c-4.4-1.86-6.81-6.85-5.57-11.54h0c1.35-5.13,6.52-8.04,11.47-6.45l56.36,17.95-64.89-25.24c-7-2.9-10.55-11.06-7.95-18.28h0c1.98-5.52,7.99-8.18,13.31-5.89l66.17,26.55-49.75-19.48c-5.43-2.33-8.49-8.39-7.18-14.27.52-2.33,3.33-8.31,10.07-8.06,10.88.4,64.2,19.02,64.2,19.02l18.43,6.87Z"/>
    <path class="cls-6" d="M149.34,560.56s-12.73-6.77-14.26-22.99c-3.07-32.58,24.54-14.93,24.54-14.93,0,0,7,24.29,27.17,37.93,20.17,13.64,7.32,41.31,7.32,41.31l29.8,12.23-25.66,52.99-24.64-17.32s-12.35,8.8-28.2,9.39c-13.25.49-73.83-21.19-91.92-33.12-3.42-2.26-5.26-6.38-4.68-10.5h0c.92-6.52,7.39-10.4,13.39-8.03l41.38,15.03-58.91-23.16c-4.4-1.86-6.81-6.85-5.57-11.54h0c1.35-5.13,6.52-8.04,11.47-6.45l56.36,17.95-64.89-25.24c-7-2.9-10.55-11.06-7.95-18.28h0c1.98-5.52,7.99-8.18,13.31-5.89l66.17,26.55-49.75-19.48c-5.43-2.33-8.49-8.39-7.18-14.27.52-2.33,3.33-8.31,10.07-8.06,10.88.4,64.2,19.02,64.2,19.02l18.43,6.87Z"/>
    <path class="cls-2" d="M787.61,791.26l-26.53-94.43c-2.47-37.4-65.07-214.72-65.07-214.72,0,0-25.77-60.11-78.61-104.42-52.84-44.31-132.21.61-132.21.61l-142.29,50.56s-15.86,69.62,16.49,164.14c32.34,94.52-41.53,144.12-41.53,144.12l-120.95-138-104.49,91.21,186.65,135.09,27.77,16.88c29.56,17.96,66.58,13.99,91.17-9.79h0s32.05-43.11,32.05-43.11l17.31,86.82"/>
    <path class="cls-7" d="M130.13,557.86s-12.73-6.77-14.26-22.99c-3.07-32.58,24.54-14.93,24.54-14.93,0,0,7,24.29,27.17,37.93,20.17,13.64,7.32,41.31,7.32,41.31l29.8,12.23-25.66,52.99-24.64-17.32s-12.35,8.8-28.2,9.39c-13.25.49-73.83-21.19-91.92-33.12-3.42-2.26-5.26-6.38-4.68-10.5h0c.92-6.52,7.39-10.4,13.39-8.03l41.38,15.03-58.91-23.16c-4.4-1.86-6.81-6.85-5.57-11.54h0c1.35-5.13,6.52-8.04,11.47-6.45l56.36,17.95-64.89-25.24c-7-2.9-10.55-11.06-7.95-18.28h0c1.98-5.52,7.99-8.18,13.31-5.89l66.17,26.55-49.75-19.48c-5.43-2.33-8.49-8.39-7.18-14.27.52-2.33,3.33-8.31,10.07-8.06,10.88.4,64.2,19.02,64.2,19.02l18.43,6.87Z"/>
    <path class="cls-8" d="M787.61,791.26l-26.53-94.43c-2.47-37.4-65.07-214.72-65.07-214.72,0,0-25.77-60.11-78.61-104.42-52.84-44.31-132.21.61-132.21.61l-118.03,59.65c-25.37,12.82-38.76,41.21-32.61,68.96,4.68,21.14,12.34,49.57,24.83,86.09,32.34,94.52-41.53,144.12-41.53,144.12l-120.95-138-104.49,91.21,186.65,135.09,27.77,16.88c29.56,17.96,66.58,13.99,91.17-9.79h0s32.05-43.11,32.05-43.11l17.31,86.82"/>
    <path class="cls-3" d="M149.34,560.56s-12.73-6.77-14.26-22.99c-3.07-32.58,24.54-14.93,24.54-14.93,0,0,7,24.29,27.17,37.93,20.17,13.64,7.32,41.31,7.32,41.31l29.8,12.23-25.66,52.99-24.64-17.32s-12.35,8.8-28.2,9.39c-13.25.49-73.83-21.19-91.92-33.12-3.42-2.26-5.26-6.38-4.68-10.5h0c.92-6.52,7.39-10.4,13.39-8.03l41.38,15.03-58.91-23.16c-4.4-1.86-6.81-6.85-5.57-11.54h0c1.35-5.13,6.52-8.04,11.47-6.45l56.36,17.95-64.89-25.24c-7-2.9-10.55-11.06-7.95-18.28h0c1.98-5.52,7.99-8.18,13.31-5.89l66.17,26.55-49.75-19.48c-5.43-2.33-8.49-8.39-7.18-14.27.52-2.33,3.33-8.31,10.07-8.06,10.88.4,64.2,19.02,64.2,19.02l18.43,6.87Z"/>
    <path class="cls-10" d="M536.88,461.14c16.87,36.12-92.76,190.38-100.97,196.72l-11.31-16.55-1.95,16.36-12.33-5.96-1.9,20.24-181.62-91-62.57,107.84,247.23,118.98,24.11,3.31c19.01,2.61,38.22-.76,55.13-9.68l13.92-7.34,82.23-100.89c20.3-24.9,36.3-53.28,47.33-83.93l17.14-47.61"/>
  </g>
  <polyline class="cls-11" points="369.45 504.85 396.61 577.76 407.67 668.61"/>
  <g>
    <g>
      <g>
        <path class="cls-12" d="M484.34,267.23c4.2,6.01,7.62,15.33,11.3,21.7,3.68,6.37,9.07,12.37,15.91,13.72-7.34,4.31-16.65,1.75-25.18,2.13-9.49.43-20.85,8.61-27.16,15.84l-14.9-16.37,40.03-37.02Z"/>
        <path class="cls-16" d="M478.81,270.46c4.55,6.59,7.11,14.28,11.03,21.22,4.31,7.65,11.04,15.25,20.01,17.14-.51-3.9-1.02-7.8-1.53-11.7-.42.24-.86.44-1.28.67-.59.33.56-.27.59-.24-.02-.02-.81.3-.76.28-.9.31-1.82.54-2.75.71-.07.01-.7.06-.8.14,0,0,1.39-.15.68-.1-.48.03-.96.09-1.44.12-.98.06-1.96.08-2.94.07-4.07-.03-8.12-.52-12.19-.44-8.27.16-16.07,3.86-22.62,8.7-3.65,2.7-7.12,5.63-10.12,9.05h9.05c-4.34-4.77-8.69-9.55-13.03-14.32-.62-.68-1.24-1.37-1.87-2.05v9.05c4.49-4.16,8.99-8.31,13.48-12.47,7.2-6.66,14.4-13.32,21.6-19.98l4.94-4.57c2.46-2.28,2.48-6.78,0-9.05-2.64-2.42-6.42-2.43-9.05,0-4.49,4.16-8.99,8.31-13.48,12.47-7.2,6.66-14.4,13.32-21.6,19.98-1.65,1.52-3.3,3.05-4.94,4.57-2.62,2.43-2.26,6.57,0,9.05,4.34,4.77,8.69,9.55,13.03,14.32.62.68,1.24,1.37,1.87,2.05,2.22,2.44,6.84,2.51,9.05,0,1.14-1.29,2.34-2.53,3.59-3.7.62-.58,1.26-1.15,1.91-1.7.36-.3.71-.6,1.08-.9.16-.13.31-.25.47-.38.74-.59.34-.2-.17.13,1.61-1.03,3.1-2.24,4.74-3.24,1.55-.94,3.16-1.8,4.81-2.55,1.44-.65-.95.35.1-.04.42-.16.84-.32,1.26-.47.83-.29,1.66-.54,2.51-.74.41-.1.83-.19,1.24-.27.18-.03.35-.06.53-.09.81-.16-1.47.15-.65.08.9-.07,1.79-.13,2.69-.13,4-.04,7.98.43,11.98.45,5.2.02,10.38-.81,14.95-3.41,2.23-1.27,3.39-3.89,3.06-6.38-.32-2.37-2.12-4.8-4.59-5.32-.87-.18-1.7-.45-2.54-.73-.63-.25-.47-.18.48.21-.23-.11-.46-.22-.68-.33-.34-.17-.67-.36-1-.55-.44-.26-.87-.54-1.29-.83-.21-.15-.42-.3-.63-.45l.68.52c-.09-.29-.95-.8-1.19-1.02-.29-.27-.58-.54-.86-.82-.66-.66-1.3-1.35-1.9-2.07-.17-.21-.35-.41-.51-.63-.42-.53-.34-.42.25.33.04-.07-.61-.84-.72-.99-1.1-1.56-2.08-3.19-2.98-4.87-3.6-6.68-6.16-13.97-10.49-20.24-1.9-2.75-5.7-4.27-8.76-2.3-2.73,1.76-4.33,5.81-2.3,8.76Z"/>
      </g>
      <g>
        <path class="cls-12" d="M483.31,229.97c8.66,3.01,20.65,2.25,29-.87.69,1.44.35,3.13-.03,4.64-1.82,7.17-4.52,14.24-9.21,19.65-4.69,5.41-9.99,9.1-17.08,8.16"/>
        <path class="cls-16" d="M481.61,236.15c5.18,1.76,10.87,2.31,16.32,2.09,5.43-.22,10.98-1.08,16.09-2.96-2.62-1.49-5.25-2.98-7.87-4.47.12.26.22.53.28.81-.1-1-.14-1.15-.11-.43.03,1.26.36-1.3,0,.02-.27.98-.48,1.97-.76,2.95-.51,1.82-1.08,3.61-1.74,5.38-.18.47-.37.94-.55,1.41-.18.45-.11.27.23-.53-.11.26-.23.53-.35.79-.38.85-.79,1.68-1.22,2.5s-.89,1.61-1.38,2.39c-.34.54-1.1,2.15-1.67,2.44.58-.74.65-.84.22-.3l-.27.32c-.35.42-.71.82-1.08,1.22-.53.58-1.08,1.15-1.65,1.69-.61.59-1.45,1.11-2,1.76,1.02-1.21.6-.46.11-.12-.4.28-.81.54-1.22.79-.61.36-1.31.61-1.91.98.99-.41,1.17-.49.54-.25-.22.08-.45.16-.67.23-.34.11-.69.2-1.03.28-.23.05-1.8.31-.57.14s-.39,0-.62.01c-.91.03-1.81-.03-2.72-.14-1.51-.18-3.5.85-4.53,1.87-1.11,1.11-1.95,2.93-1.87,4.53.07,1.66.62,3.37,1.87,4.53,1.33,1.22,2.74,1.66,4.53,1.87,9.86,1.19,18.05-5.23,23.68-12.64,2.85-3.75,4.84-7.99,6.49-12.39.76-2.04,1.41-4.12,1.97-6.22.8-2.97,1.57-6.33.36-9.31-.63-1.54-1.39-3.01-2.94-3.83-1.45-.77-3.33-1.23-4.93-.65-2.13.78-4.31,1.38-6.54,1.82-.6.12-1.21.23-1.81.32-.27.04-.55.07-.82.12,1.74-.33.68-.09.26-.04-1.25.14-2.51.24-3.77.29-2.44.1-4.87-.02-7.3-.25-.92-.09.25-.05.49.07-.27-.13-.71-.11-1-.16-.52-.09-1.05-.19-1.57-.31-1.2-.26-2.37-.59-3.53-.99-3.17-1.08-7.14,1.24-7.87,4.47-.81,3.55,1.07,6.72,4.47,7.87h0Z"/>
      </g>
      <g>
        <path class="cls-12" d="M355.2,174.82c3.16,2.17,8.89,3.03,17.8,14.41,2.41,3.08,3.06,22.97,3.16,26.88,3-7.01,7.1-13.75,13.27-17.77,1.54-1,3.3-1.84,5.14-1.57,0,0,22.58,5.95,14.24,37.22l16.29-.97s19.99-56.05,53.55-15.36c.8.97.77-.89,1.7-1.63,3.5-2.77,5.75-6.94,7.7-11.1,5.01-10.7,8.68-22.41,8.59-34.57-9.56,4.59-21.9,1.19-31.31-3.81"/>
        <path class="cls-16" d="M351.97,180.35c1.9,1.28,4.08,2.1,6.03,3.3.64.39,1.27.81,1.89,1.25.43.31,1.73,1.49.07.03.39.34.81.66,1.21,1,1.97,1.7,3.77,3.59,5.46,5.57.41.48.81.98,1.22,1.47,1.04,1.25-.74-1.1-.14-.14.04.07.07.16.11.23.45.68-.67-1.82-.42-1,.08.27.18.53.26.8.41,1.39.65,2.84.86,4.27.03.22.05.44.09.65.01.05-.24-1.86-.12-.9.06.46.11.93.17,1.39.11.97.2,1.93.29,2.9.17,1.86.3,3.73.41,5.6.19,3.11.33,6.22.4,9.34.07,2.71,1.93,5.54,4.7,6.17,1.13.26,2.28.26,3.4,0,1.35-.31,3.26-1.63,3.83-2.94,1.53-3.55,3.3-7.02,5.56-10.17.12-.17.25-.33.36-.5.4-.57-.39.5-.38.48.32-.34.6-.74.9-1.1.61-.71,1.25-1.4,1.93-2.06.62-.6,1.35-1.11,1.95-1.72-1.16,1.18-.29.23.15-.07s.93-.62,1.41-.89c.11-.06.51-.2.57-.3-.09.15-1.44.44-.35.17.2-.05.42-.09.61-.16.66-.23-.66.1-.67.1,1.12-.09-.78-.14-.81-.17.1.08.32.1.44.14.29.1.57.21.85.31,1.04.39-1.45-.64-.93-.4.23.11.46.2.68.31,1.05.5,2.06,1.09,3.03,1.74.27.18.53.38.8.56.85.6-.97-.78-.74-.57.16.14.34.27.5.41.59.49,1.16,1.02,1.7,1.57.3.3.59.62.87.94.12.14.25.28.36.43.08.1.16.2.24.29.48.55-.65-.89-.64-.84.07.32.56.77.75,1.05.29.43.56.86.82,1.31.23.4.46.81.67,1.23.12.23.23.46.34.7.13.28.54,1.25.04.06-.51-1.21-.09-.19.02.1.1.26.19.52.28.78.18.54.35,1.1.5,1.65.17.63.31,1.26.43,1.89.07.35.12.71.19,1.06.17.97-.21-1.79-.05-.32.17,1.56.23,3.13.19,4.69-.02.83-.07,1.66-.14,2.49-.04.46-.09.93-.14,1.39-.03.24-.06.47-.09.71.02-.21.22-1.5.07-.61-.35,2.1-.78,4.18-1.32,6.24-1.01,3.82,1.94,8.35,6.17,8.1,5.43-.32,10.86-.64,16.29-.97,3.02-.18,5.17-1.9,6.17-4.7.08-.22.17-.45.25-.67.34-.87,1.26-2.98.14-.4.92-2.11,1.89-4.19,2.97-6.22,1.41-2.65,2.97-5.23,4.71-7.67.23-.32.46-.64.7-.95.12-.16.24-.32.36-.47.57-.77-1.12,1.42-.51.67.54-.67,1.09-1.35,1.66-2,1.1-1.25,2.26-2.44,3.51-3.55.3-.26.6-.52.91-.77.15-.13.31-.25.46-.37.74-.61-1.45,1.08-.67.52.69-.49,1.38-.98,2.11-1.43.66-.4,1.34-.77,2.04-1.11.17-.08.35-.16.53-.24.86-.41-1.71.68-.82.34.42-.16.84-.32,1.27-.46.67-.22,1.36-.4,2.05-.55.65-.13,2.23-.22-.36,0,.46-.04.92-.1,1.38-.12.81-.04,1.62-.03,2.43.04,1.71.15-1.62-.3-.24-.05.5.09,1,.18,1.49.3.89.22,1.76.51,2.62.82.51.18,1.26.68-.64-.28.22.11.45.2.68.3.54.25,1.07.52,1.6.81.96.53,1.9,1.11,2.8,1.73.49.34.95.7,1.43,1.04-1.9-1.34.2.19.65.57,2.27,1.95,4.36,4.11,6.31,6.38.79.92,1.42,1.76,2.51,2.41,1.51.91,3.49,1.21,5.2.74,1.73-.48,3.28-1.71,4.13-3.29.11-.21.22-.44.31-.67.31-.55.12-.36-.56.6.16-.16.34-.31.52-.45,3.3-2.88,5.71-6.67,7.63-10.57,2.05-4.15,3.86-8.45,5.41-12.8,3.03-8.49,4.83-17.53,4.8-26.56,0-2.26-1.22-4.38-3.17-5.53-2.11-1.24-4.34-1-6.46,0-1.05.49.99-.36.24-.08-.31.11-.62.24-.94.35-.57.19-1.14.36-1.72.51s-1.17.26-1.76.37c-1.16.23,1.13-.1.31-.03-.27.02-.54.06-.8.08-1.29.11-2.59.12-3.88.05-.62-.03-1.24-.08-1.86-.15-1.28-.14.06-.18.25.04-.12-.14-.86-.14-1.04-.17-2.58-.45-5.11-1.16-7.57-2.04-.6-.21-1.19-.44-1.78-.68-.87-.35-.41-.21.17.08-.25-.13-.51-.22-.77-.34-1.25-.56-2.49-1.17-3.7-1.81-2.96-1.56-7.09-.85-8.76,2.3-1.56,2.96-.87,7.09,2.3,8.76,11.55,6.08,25.42,9.59,37.77,3.81-3.21-1.84-6.42-3.68-9.63-5.53,0,2.33-.1,4.65-.35,6.96-.05.44-.04.95-.16,1.38.48-1.79-.03.17-.1.58-.17,1.06-.37,2.12-.59,3.17-.91,4.35-2.21,8.62-3.78,12.78-.38,1-.78,1.99-1.18,2.98-.27.65-.23.56.11-.26-.12.28-.24.56-.36.84-.18.42-.37.83-.55,1.25-.9,2-1.83,3.99-2.92,5.89-.49.87-1.02,1.72-1.59,2.54-.16.23-.33.46-.5.69.53-.68.65-.83.35-.46-.32.37-.63.75-.97,1.1-.64.68-1.38,1.24-2.04,1.89-.58.57-1.07,1.27-1.44,1.99-.81,1.61-.06-.33,1.68-1.29,1.08-.29,2.15-.58,3.23-.87h-.13c1.08.28,2.15.58,3.23.87,1.5.88,1.12.91.59.27-.22-.26-.43-.51-.65-.77-.38-.44-.77-.88-1.16-1.32-.82-.91-1.67-1.8-2.54-2.66-1.83-1.8-3.8-3.43-5.85-4.97-3.04-2.29-6.41-4.1-10.04-5.28-6.51-2.12-13.39-1.28-19.45,1.75-4.95,2.48-9.13,6.52-12.51,10.85-3.15,4.04-5.87,8.31-8.13,12.91-1.31,2.65-2.54,5.37-3.53,8.15,2.06-1.57,4.11-3.13,6.17-4.7-5.43.32-10.86.64-16.29.97,2.06,2.7,4.11,5.4,6.17,8.1,1.96-7.43,2.77-15.16,1.23-22.74-1.06-5.25-3.58-10.1-7.11-14.11-2.29-2.59-5.19-4.83-8.29-6.38-3.22-1.62-5.69-2.5-9.41-1.86-3.15.54-5.86,2.55-8.29,4.49-1.74,1.38-3.29,2.96-4.68,4.69-3.23,4.02-5.76,8.36-7.8,13.09,3.98,1.08,7.95,2.15,11.93,3.23-.18-7.17-.59-14.36-1.57-21.47-.49-3.62-1.16-7-3.47-9.93-3.35-4.26-7.13-8.08-11.61-11.16-2.38-1.64-5.11-2.64-7.49-4.25-2.78-1.88-7.21-.63-8.76,2.3-1.71,3.23-.67,6.76,2.3,8.76h0Z"/>
      </g>
    </g>
    <g>
      <g>
        <path class="cls-13" d="M198.34,244.98c6.12,9.22-3.96,34.53,7.39,48.88,3.78,4.78,14.2,15.34,17.78,20.29,10.35,14.32,11.44,35.68,20.88,50.66,5.24,8.32,12.04,15.43,18.78,22.47,4.59,4.79,11.12,12.34,16.6,15.91,5.63,3.67,9.18,7.27,20.88,11.85,17.98,7.03,24.96,9.48,41.51,6.47,16.55-3.02,47.35-13.67,56.81-28.06"/>
        <path class="cls-16" d="M192.81,248.21c.22.35.4.72.61,1.07.44.73-.52-1.01-.39-.95.09.04.2.52.23.61.31.89.49,1.8.67,2.72.27,1.46-.19-1.73-.03-.19.05.44.08.89.11,1.33.07,1.14.09,2.28.09,3.42-.02,4.78-.43,9.55-.5,14.33-.08,5.5.23,11.18,1.75,16.5.77,2.72,1.88,5.43,3.35,7.84,1.3,2.13,2.94,4.05,4.58,5.93,3.33,3.82,6.82,7.49,10.2,11.26,1.49,1.67,2.97,3.35,4.37,5.09.96,1.19-.95-1.31-.12-.16.34.48.69.95,1.01,1.43.82,1.21,1.57,2.46,2.27,3.74.68,1.24,1.31,2.51,1.89,3.79.21.47.92,2.51.29.61.24.74.6,1.46.88,2.19,1.08,2.79,2.02,5.63,2.92,8.48,1.79,5.68,3.39,11.42,5.44,17.01,2.19,5.95,4.84,11.61,8.47,16.82,4.16,5.97,8.97,11.44,13.96,16.73,4.14,4.39,8.22,8.87,12.49,13.13,2.36,2.35,4.83,4.54,7.49,6.55,1.74,1.31,3.6,2.48,5.37,3.74,3.74,2.65,7.58,5.05,11.74,6.99,6.28,2.93,12.88,5.43,19.46,7.62,5.18,1.72,10.51,2.93,15.97,3.25,5.76.33,11.58-.48,17.23-1.56,9.47-1.81,18.78-4.79,27.67-8.49,9.86-4.11,19.93-9.02,27.57-16.67,1.73-1.73,3.29-3.66,4.65-5.7,1.86-2.79.64-7.21-2.3-8.76-3.22-1.7-6.77-.69-8.76,2.3-.18.27-.9.99-.91,1.28,0,0,1.09-1.36.51-.66-.18.21-.35.42-.52.63-.67.79-1.39,1.54-2.13,2.26-.78.76-1.6,1.49-2.44,2.19-.4.33-.81.64-1.2.97,1.75-1.43-.06.02-.48.32-4.08,2.92-8.49,5.36-13.01,7.51-1.08.51-2.16,1.01-3.25,1.49-.55.24-1.11.46-1.65.72,1.99-.92-.46.18-.96.39-2.36.95-4.75,1.84-7.16,2.68-4.54,1.57-9.16,2.95-13.83,4.07-1.97.47-3.94.9-5.93,1.27-1.38.25-2.78.39-4.15.67,2.09-.42-.27.02-.8.07-.79.08-1.58.15-2.37.2-2.4.15-4.81.14-7.21-.08-.57-.05-2.7-.42-.38-.01-.53-.09-1.06-.16-1.59-.25-1.19-.21-2.37-.47-3.54-.76-5.71-1.43-11.2-3.62-16.67-5.75-.78-.3-1.55-.6-2.33-.91-.44-.18-.9-.35-1.33-.55,1.4.64.42.18.07.02-1.41-.62-2.81-1.27-4.18-1.98-2.07-1.06-4.07-2.24-6.01-3.52-1.58-1.05-3.11-2.16-4.66-3.25-.76-.53-1.53-1.05-2.3-1.56-.48-.32-.95-.65-1.41-.99-1.07-.78,1.19.97.14.1-.29-.24-.59-.48-.88-.73-4.49-3.81-8.39-8.27-12.44-12.55-4.54-4.8-9.15-9.53-13.31-14.67-.29-.36-1.8-2.2-.7-.86-.48-.59-.93-1.22-1.37-1.84-1.04-1.42-2.04-2.88-2.98-4.37-1.48-2.34-2.75-4.79-3.87-7.32-.18-.41-.52-1.64.03.1-.1-.31-.25-.61-.37-.91-.27-.67-.53-1.34-.78-2.02-.51-1.36-1-2.74-1.46-4.12-.94-2.79-1.8-5.62-2.66-8.44-1.83-6.01-3.72-11.97-6.19-17.75-2.15-5.02-4.87-9.57-8.34-13.79-3.11-3.79-6.49-7.36-9.8-10.98-1.56-1.71-3.13-3.42-4.64-5.17-.53-.62-1.05-1.25-1.57-1.88-.61-.73.95,1.35.27.33-.15-.23-.32-.45-.47-.68-.39-.59-.76-1.21-1.09-1.84-.26-.48-.48-.98-.72-1.47-.43-.91.25.58.26.62-.08-.31-.24-.62-.35-.92-.41-1.14-.74-2.31-1.02-3.49-.15-.65-.28-1.31-.4-1.97-.1-.57-.23-2.53-.07-.3-.09-1.25-.26-2.48-.33-3.73-.51-9.49,1.59-19.24-.36-28.62-.41-1.98-1.16-3.99-2.25-5.69-1.82-2.81-5.76-4.23-8.76-2.3-2.81,1.81-4.24,5.75-2.3,8.76h0Z"/>
      </g>
      <g>
        <path class="cls-13" d="M399.5,393.3c7.51,12.2,4.78,34.93,18.73,46.91,7.81,6.7,38.04,5.48,52.45-7.18,15.85-13.92,19.93-58.78,26.83-68.68.03-.05-17.45-10.23-33.06-28.17-6.86-7.89-14.05-23.8-20.45-32.16"/>
        <path class="cls-16" d="M393.97,396.53c.36.59.7,1.2,1.01,1.82.17.34.33.68.49,1.02.54,1.17-.55-1.41-.08-.2.56,1.45,1.06,2.92,1.48,4.42.94,3.28,1.62,6.63,2.32,9.97,1.54,7.29,3.24,14.6,6.75,21.24,1.85,3.49,4.3,6.81,7.24,9.46,2.33,2.11,4.86,3.46,7.84,4.45,5.76,1.91,12.24,2.15,18.25,1.78,7.26-.45,14.61-1.78,21.4-4.44,6.4-2.51,12.75-5.93,17.23-11.27,4.3-5.13,7.18-11.01,9.67-17.19,2.42-5.99,4.28-12.19,5.98-18.41,1.64-5.99,3.09-12.02,4.68-18.02.66-2.47,1.34-4.94,2.12-7.38.33-1.03.68-2.06,1.06-3.07.14-.37.79-1.95.23-.63-.55,1.31.1-.19.28-.56.33-.68.7-1.33,1.12-1.95,1.18-1.71,1.24-4.76,0-6.46-1.72-2.35-4.57-3.71-6.94-5.33-1.87-1.28-3.7-2.6-5.51-3.96-.41-.31-2.25-1.77-.52-.39-.45-.36-.91-.71-1.36-1.06-1.26-1-2.5-2.01-3.72-3.04-5.47-4.61-10.64-9.59-15.38-14.96-.49-.55-.97-1.11-1.43-1.68-.29-.35-.94-1.34.2.27-.19-.27-.41-.54-.6-.81-.84-1.15-1.65-2.33-2.42-3.53-1.78-2.73-3.43-5.55-5.06-8.37-3.41-5.91-6.62-12.04-10.76-17.48-1.05-1.38-2.08-2.46-3.83-2.94-1.53-.42-3.57-.23-4.93.65-2.63,1.69-4.46,5.91-2.3,8.76,7.66,10.07,12.37,22.05,20.25,32,4.35,5.5,9.55,10.45,14.81,15.07,4.5,3.95,9.22,7.67,14.1,11.13,1.54,1.09,3.09,2.15,4.67,3.17.46.3.93.6,1.4.89,1.43.9.16.65-1.72-1.93v-6.46c-2.42,3.51-3.66,8.01-4.84,12.06-1.58,5.43-2.9,10.94-4.31,16.42-1.58,6.14-3.24,12.26-5.28,18.27-.51,1.51-1.05,3.01-1.62,4.5-.25.66-.51,1.31-.77,1.97-.13.32-.27.64-.4.97.84-2.09.21-.5,0-.04-1.14,2.6-2.42,5.14-3.91,7.55-.32.52-.65,1.03-.99,1.53-.19.28-.39.56-.58.83-.07.1-.15.2-.22.3-.6.84.42-.48.47-.6-.44.97-1.62,1.95-2.37,2.69-.43.43-.88.84-1.34,1.23-.27.23-.55.44-.81.67,1.59-1.41.4-.31-.04,0-1.27.9-2.6,1.72-3.97,2.46-.7.38-1.41.74-2.14,1.08-.34.16-.68.31-1.03.47-1.23.56,1.3-.51.03,0-1.58.63-3.18,1.2-4.81,1.7-3.17.97-6.43,1.67-9.71,2.15-.21.03-.43.07-.65.09.02,0,1.76-.22.73-.1-.38.04-.75.09-1.13.13-.85.09-1.7.17-2.56.22-1.55.11-3.1.16-4.65.16s-3.01-.06-4.51-.19c-.6-.05-1.31-.25-1.91-.2-.05,0,1.85.27.91.12-.13-.02-.26-.04-.39-.06-.38-.06-.76-.12-1.13-.2-1.16-.22-2.31-.49-3.44-.85-.27-.09-.55-.18-.82-.28-.29-.11-1.24-.5,0,.02,1.3.55-.29-.16-.64-.34-.39-.21-.75-.47-1.12-.7-.46-.29,1.51,1.25.71.55-.39-.35-.78-.69-1.16-1.06-.58-.56-1.13-1.14-1.65-1.74-.15-.17-1.19-1.48-.46-.53.68.89-.21-.31-.4-.57-.99-1.42-1.86-2.93-2.62-4.48-.17-.35-.34-.71-.5-1.06-.07-.15-.14-.31-.21-.46-.42-.93.23.55.25.6-.28-.85-.66-1.68-.96-2.53-1.13-3.22-1.95-6.54-2.69-9.87-1.41-6.33-2.4-12.86-4.9-18.87-.72-1.73-1.46-3.43-2.43-5.03-1.74-2.86-5.82-4.19-8.76-2.3-2.87,1.85-4.15,5.69-2.3,8.76h0Z"/>
      </g>
      <g>
        <path class="cls-13" d="M444.31,304.25c.32,1,1.62,1.05,2.57.86,17.63-3.5,30.14-19.89,36.73-37.39,1.9-5.04,3.44-10.33,3.67-15.83.29-7.03-1.58-14.06-3.75-20.84-3.49-10.84-8.86-22.54-18.95-26.77-8.52-3.57-18.28-.5-25,5.53s-10.94,14.6-14.49,23.19c-5.43.32-10.86.64-16.29.97,4.87-10.92,1.85-25.48-7.02-33.86-2.07-1.95-4.7-3.66-7.36-3.27,0,0-11.71.98-18.27,19.25l-1.99-25.57-171.23,53.05"/>
        <path class="cls-16" d="M438.79,307.49c2.37,5.04,8.39,4.35,12.76,3.09,3.08-.89,6.1-2.16,8.92-3.68,5.39-2.91,10.26-7.01,14.29-11.61,4.17-4.77,7.74-10.07,10.61-15.71,3.14-6.19,5.89-12.86,7.3-19.67,1.73-8.33.97-16.57-1.23-24.74-1.78-6.62-4.07-13.23-7.19-19.34-3.01-5.88-7.13-11.21-12.61-14.96-6.12-4.19-13.67-5.24-20.84-3.8-7.69,1.54-14.65,6.33-19.59,12.3-5.45,6.58-9.02,14.13-12.27,21.97,2.06-1.57,4.11-3.13,6.17-4.7-5.43.32-10.86.64-16.29.97,1.84,3.21,3.68,6.42,5.53,9.63,3.09-7.07,3.82-14.42,2.45-22.01-1.26-6.95-4.69-13.67-9.6-18.75-3.15-3.26-7.56-6.32-12.31-6.05-1.07.06-2.17.22-3.21.47-3.71.89-7.01,2.95-9.93,5.33-5.7,4.65-9.26,11.4-11.73,18.19,4.19.57,8.38,1.13,12.57,1.7-.58-7.46-1.16-14.92-1.74-22.38-.08-1.06-.17-2.12-.25-3.18-.31-3.98-3.86-7.49-8.1-6.17-5.69,1.76-11.39,3.53-17.08,5.29-13.67,4.23-27.34,8.47-41.01,12.7-16.43,5.09-32.87,10.18-49.3,15.27-14.28,4.42-28.55,8.85-42.83,13.27-6.9,2.14-13.84,4.18-20.71,6.42-.1.03-.2.06-.3.09-3.19.99-5.56,4.51-4.47,7.87,1.04,3.21,4.45,5.53,7.87,4.47,5.69-1.76,11.39-3.53,17.08-5.29,13.67-4.23,27.34-8.47,41.01-12.7,16.43-5.09,32.87-10.18,49.3-15.27,14.28-4.42,28.55-8.85,42.83-13.27,6.89-2.13,13.88-4.07,20.71-6.42.1-.03.2-.06.3-.09-2.7-2.06-5.4-4.11-8.1-6.17.58,7.46,1.16,14.92,1.74,22.38.08,1.06.17,2.12.25,3.18.25,3.2,2.25,5.84,5.55,6.29,3.3.44,5.92-1.55,7.02-4.59.05-.14.97-2.19.88-2.29l-.28.67c.12-.28.25-.56.38-.83.12-.27.25-.54.38-.8.66-1.35,1.39-2.66,2.2-3.92.33-.52.68-1.02,1.04-1.52.14-.19.29-.37.42-.56-.97,1.46-.58.73-.26.37.72-.82,1.43-1.63,2.22-2.38.34-.32.69-.63,1.04-.93.17-.14.35-.28.51-.42.58-.5-1.44,1.05-.59.46.69-.48,1.38-.95,2.11-1.37.51-.29,1.04-.52,1.55-.78.7-.36-1.9.73-.61.26.27-.1.54-.2.81-.28.59-.19,1.18-.29,1.78-.43s-2.24.24-1.54.21c-.06,0,.9-.1.91-.06l-.82-.14c.29.05.58.12.87.21.86.18,0-.18-.26-.13.25-.05,1.01.59,1.22.71,1.11.63-.8-.77.23.16,1.05.95,2,1.96,2.94,3.01.64.72-.35-.19-.24-.34-.02.03.67.92.72.99.39.56.76,1.13,1.11,1.72.71,1.18,1.25,2.43,1.87,3.66-.87-1.73.1.35.25.78.27.78.51,1.57.71,2.37.19.73.35,1.47.49,2.21.06.34.12.68.17,1.01.25,1.44-.13-1.53-.02-.07.12,1.64.22,3.26.13,4.9-.03.62-.28,1.42-.18,2.02.04-.3.08-.6.12-.9-.04.27-.08.53-.13.8-.07.4-.15.79-.24,1.18-.17.78-.38,1.56-.63,2.32-.08.25-.17.51-.26.76-.14.39-.89,2.14-.09.32-.95,2.17-1.26,4.31,0,6.46,1.09,1.86,3.31,3.3,5.53,3.17,5.43-.32,10.86-.64,16.29-.97,3.14-.19,5.02-1.92,6.17-4.7.02-.06.64-1.52.24-.57s.22-.51.25-.57c.29-.66.58-1.33.88-1.99.63-1.39,1.29-2.77,1.98-4.13,1.37-2.68,2.89-5.3,4.64-7.76.26-.37.52-.8.83-1.14-.12.13-.87,1.08-.13.19.45-.54.9-1.08,1.36-1.6,1.03-1.15,2.13-2.24,3.3-3.25.26-.22.55-.55.86-.71-.13.07-1.17.85-.23.19.55-.38,1.1-.76,1.67-1.12s1.15-.69,1.74-1c.33-.17.66-.34,1-.5.2-.1.4-.19.61-.28-.78.32-.95.39-.51.21,1.32-.49,2.63-.94,4.01-1.24.29-.06.57-.11.86-.17,1.24-.26-.4.02-.4.03.24-.27,2.05-.16,2.4-.16.66,0,1.31.03,1.96.06,1.47.08-1.12-.22-.18-.05.36.07.72.12,1.08.2.58.12,1.15.28,1.72.45.36.11.7.25,1.06.37.65.21-1.29-.61.01.01,1.14.54,2.17,1.21,3.22,1.9.34.22.8.75-.35-.29.19.17.41.33.61.5.61.51,1.19,1.05,1.75,1.62.38.38.74.77,1.09,1.17.22.25.44.51.66.77.83,1-.18-.11-.12-.18-.02.02,2.13,3.11,2.32,3.42.66,1.08,1.26,2.19,1.84,3.32.29.57.57,1.14.84,1.72.15.32.3.65.44.97.18.41.89,1.5.03.04.62,1.06.98,2.43,1.4,3.58.48,1.32.93,2.65,1.37,3.99,1.07,3.31,2.05,6.65,2.75,10.05.16.8.31,1.61.45,2.42.06.36.32,1.57.04.18.07.34.09.73.12,1.08.18,1.79.25,3.6.17,5.4-.03.8-.13,1.59-.18,2.38-.07,1.06.28-1.54-.01.13-.06.35-.11.69-.18,1.04-.31,1.73-.73,3.43-1.23,5.11-.44,1.51-.94,3-1.48,4.48-.26.73-.54,1.45-.82,2.17-.19.47-1.12,2.5-.33.84-2.35,4.92-4.68,9.71-7.82,14.18-.44.63-.91,1.25-1.37,1.87-.55.75,1-1.23.1-.13-.26.32-.52.65-.79.97-.93,1.12-1.89,2.2-2.9,3.25-1,1.03-2.03,2.03-3.11,2.97-.56.49-1.14.96-1.71,1.43-.7.58,1.29-.94.18-.13-.33.24-.65.48-.98.71-1.15.81-2.33,1.57-3.55,2.26-.64.36-1.28.71-1.94,1.03-.54.27-1.36.45-1.81.84.9-.76.92-.38.23-.12-.37.14-.75.28-1.13.42-.7.24-1.4.47-2.11.67-.65.18-1.3.35-1.96.5-.21.05-1.52.41-.28.09.63-.06.69-.09.17-.07,1.61,0,2.93.75,3.97,2.23-1.43-3.04-6.03-4.05-8.76-2.3-3.13,2.02-3.83,5.51-2.3,8.76h0Z"/>
      </g>
    </g>
    <path class="cls-16" d="M375.74,289.65c2.09-3.08,4.18-6.15,6.27-9.23.61-.89.2-2.32-.74-2.82-1.04-.55-2.17-.21-2.82.74-2.09,3.08-4.18,6.15-6.27,9.23-.61.89-.2,2.32.74,2.82,1.04.55,2.17.21,2.82-.74h0Z"/>
    <path class="cls-16" d="M376.25,297.26c4.29-1.12,8.49-1.82,12.87-2.12,1.07-.07,2.11-.9,2.06-2.06-.05-1.05-.91-2.14-2.06-2.06-4.71.32-9.39,1.07-13.96,2.27-1.08.28-1.73,1.47-1.44,2.54.3,1.09,1.45,1.72,2.54,1.44h0Z"/>
    <path class="cls-16" d="M235.32,304.3c1.35-1.42,2.72-2.82,4.16-4.15.55-.51,1.11-1.01,1.69-1.49.28-.23.58-.45.85-.69-.03.03-1.06.77-.41.33.14-.1.27-.2.41-.3,2.14-1.52,4.49-2.63,6.89-3.66,1.02-.44-.85.35,0,0,.39-.16.78-.32,1.16-.49,1.16-.48,2.32-.97,3.48-1.46,1.2-.51,2.39-1.02,3.58-1.55.45-.2.89-.39,1.34-.58.28-.12.57-.24.85-.37.17-.07.61-.26-.15.06-.85.36-.09.04.1-.04,1.34-.55,2.68-1.09,4.04-1.59,1.44-.53,2.91-1.03,4.4-1.38.31-.07.65-.11.95-.2.45-.13-.98.11-.88.11.16,0,.36-.03.52-.04.08,0,.16,0,.24,0,.68-.12-.79-.13-.87-.15.83.19-1.2-.71-.64-.28,2.14,1.62,5.8.41,6.98-1.83,1.42-2.69.45-5.26-1.83-6.98-2.54-1.93-6.64-.73-9.36.14-3.18,1.01-6.25,2.32-9.31,3.64-.85.37-1.69.74-2.54,1.11-.51.22-1.01.44-1.52.66-.2.09-.51.27-.72.3.12-.02,1.05-.44.2-.08s-1.74.72-2.6,1.09c-2.92,1.22-5.89,2.4-8.55,4.13-3.62,2.35-6.71,5.4-9.67,8.51-1.84,1.93-2.06,5.32,0,7.22,2,1.83,5.25,2.06,7.22,0h0Z"/>
    <path class="cls-16" d="M305.93,277.04c2.27-.96,4.54-1.93,6.81-2.89.33-.14,1.16-.48-.21.09.19-.08.39-.16.58-.24.36-.15.72-.3,1.08-.46.71-.3,1.41-.59,2.12-.88,1.94-.79,3.89-1.56,5.88-2.22,4.6-1.53,9.22-2.79,14.01-3.57.47-.08.94-.14,1.41-.22.67-.11-1.26.16-.59.08.23-.03.46-.06.69-.09.86-.1,1.73-.18,2.6-.22.22,0,2.06-.13,2.12.04-.05-.15-1.71-.22-.57-.03.4.07,1.15.76-.88-.38.57.32-1.2-1.07-.77-.59,1.88,2.1,5.71,2.06,7.6,0,2.06-2.24,2.01-5.36,0-7.6-2.49-2.77-7.04-2.35-10.37-1.94-3.51.43-7.02,1.01-10.45,1.85-4.24,1.03-8.46,2.48-12.51,4.11-4.69,1.89-9.33,3.91-13.98,5.88-2.6,1.1-3.36,5.13-1.93,7.35,1.74,2.7,4.57,3.11,7.35,1.93h0Z"/>
    <path class="cls-16" d="M330.79,258.87h0c7.2-2.76,15.15.48,17.75,7.22l2.28,5.91c-.74.09-1.48.26-2.21.54-5.01,1.92-7.45,7.64-5.47,12.79s7.65,7.76,12.66,5.85c.73-.28,1.39-.65,2.01-1.07l2.49,6.45c2.6,6.74-1.12,14.45-8.32,17.2h0c-7.2,2.76-15.15-.48-17.75-7.22l-11.75-30.46c-2.6-6.74,1.12-14.45,8.32-17.2Z"/>
    <path class="cls-16" d="M252.83,282.43h0c6.65-2.59,14.12.79,16.68,7.54l2.25,5.92c-.69.08-1.38.23-2.05.49-4.62,1.8-6.79,7.44-4.83,12.59,1.95,5.15,7.29,7.87,11.91,6.07.67-.26,1.29-.61,1.85-1.02l2.45,6.46c2.56,6.76-.75,14.33-7.4,16.92h0c-6.65,2.59-14.12-.79-16.68-7.54l-11.57-30.52c-2.56-6.76.75-14.33,7.4-16.92Z"/>
    <path class="cls-16" d="M283.06,301.6c.44,1.44.81,2.9,1.09,4.39.07.39.14.78.2,1.17l.07.47c-.03-.24-.02-.21.01.08.09.7.16,1.41.21,2.12.23,3.08.18,6.17-.06,9.24-.24,3.12-.55,5.28-1.06,8.32-.23,1.38-.46,2.77-.79,4.13-.17.68-.35,1.36-.61,2.01.16-.41.02-.04-.08.15-.2.37-.4.71-.63,1.06-1.25,1.9-.33,4.51,1.48,5.64-.48-.3-.07-.09.17.16.18.18.34.36.51.55.39.42.79.84,1.21,1.23,1,.93,2.09,1.78,3.21,2.54,2.08,1.43,4.47,2.5,6.89,3.21,4.69,1.37,9.97,1.34,14.53-.48,2-.8,3.62-2.79,2.88-5.07-.63-1.93-2.93-3.73-5.07-2.88-.95.38-1.93.69-2.94.9-.24.05-.48.08-.71.14-.61.14.64-.04.02,0-.48.03-.96.09-1.45.1-.55.02-1.09,0-1.64-.02-.28-.02-1.55-.17-.73-.04-1.04-.17-2.06-.39-3.06-.7-.47-.15-.94-.32-1.4-.49-.6-.23.54.25-.05-.02-.23-.11-.45-.21-.68-.32-.96-.48-1.86-1.04-2.74-1.65-.25-.17-.41-.31-.07-.04-.2-.16-.39-.32-.59-.49-.39-.33-.76-.68-1.12-1.04-.98-.98-1.82-1.95-3.01-2.69.49,1.88.99,3.76,1.48,5.64,1.79-2.72,2.36-5.94,2.89-9.09.58-3.4,1.07-6.83,1.36-10.27.57-6.73.21-13.63-1.78-20.12-.63-2.06-2.91-3.58-5.07-2.88-2.08.67-3.55,2.86-2.88,5.07h0Z"/>
    <path class="cls-16" d="M452.87,214.28c-2.19,1.51-4.18,3.25-5.84,5.33-2.09,2.61-3.38,5.22-4.52,8.37-1.63,4.52-2.05,9.3-2.64,14.03-.81,6.47.38,13.68,6.34,17.44,1.35.86,2.94,1.41,4.51,1.65.99.15,2.02.3,3.03.38.89.06-1.25-.26-.38-.06.4.09,1.41.57.55.03-.85-.54-.22-.05.04.06.71.29-.94-.93-.42-.36.26.28.49.79.08,0l-.29-.37c-.37-1.03-.45-1.24-.26-.6-.12-.7-.25-1.28-.07-2.01.06-.25.73-1.24.13-.49-.49.61-.88,1.36-1.31,2.01-3.57,5.48-7.14,10.97-10.71,16.45-1.83,2.81-.66,7.2,2.3,8.76,3.19,1.69,6.8.7,8.76-2.3,3.11-4.78,6.22-9.56,9.34-14.34,1.84-2.83,4.08-5.58,4.2-9.12.12-3.73-2.49-7.33-5.76-8.94-1.87-.92-3.49-1.21-5.54-1.45-.29-.03-.59-.07-.89-.1-1.17-.1.24,0,.38.07-.16-.07-.66-.14-.87-.17-.54-.17-.57-.16-.08.04.46.22.47.22.02-.01-.74-.54.37.24.39.36-.01-.07-.53-.51-.54-.52-.63-.62.42.05.3.4.01-.03-.42-.69-.4-.66-.41-.66.25-.22.15.47.02-.12-.23-.67-.26-.74-.08-.25-.12-.5-.2-.75-.36-1.18.02,1.37-.03-.11-.08-2.56.27-5.05.58-7.58.07-.56.15-1.11.21-1.67,0,.06-.25,1.69-.08.65.04-.23.07-.46.1-.69.15-.97.34-1.93.57-2.89.29-1.19.64-2.35,1.06-3.5.1-.27.2-.55.3-.82.08-.21.17-.43.25-.64.17-.43.11-.29-.18.41,0,0,.68-1.3.74-1.39.13-.21.27-.43.41-.63.56-.81.23-.17-.18.19.49-.44.88-1.04,1.34-1.52s.93-.93,1.42-1.36c.18-.16.41-.31.57-.48l-.74.57c.18-.13.35-.26.54-.38,2.75-1.9,4.27-5.7,2.3-8.76-1.76-2.73-5.81-4.33-8.76-2.3h0Z"/>
    <path class="cls-16" d="M199.85,250.99c5.76-6.57,13.57-10.91,20.94-15.39,7.81-4.75,15.72-9.33,23.73-13.71,15.83-8.65,32.08-16.59,48.75-23.49,16.98-7.03,34.38-13.04,52.13-17.8,18.19-4.88,36.75-8.46,55.49-10.43,19.01-2,38.19-2.41,57.26-1.03,2.4.17,4.79.38,7.18.61,1.72.16,3.2-1.59,3.2-3.2,0-1.87-1.47-3.04-3.2-3.2-19.22-1.84-38.59-1.86-57.83-.21-19.26,1.65-38.38,4.9-57.14,9.57-18.08,4.5-35.82,10.33-53.13,17.23-17.2,6.85-33.99,14.71-50.33,23.41-8.14,4.33-16.16,8.86-24.09,13.57-7.77,4.62-15.89,9.12-22.81,14.97-1.67,1.41-3.23,2.93-4.67,4.58-1.14,1.3-1.28,3.25,0,4.53,1.16,1.16,3.38,1.31,4.53,0h0Z"/>
    <g>
      <path class="cls-16" d="M197.7,247.31c-10.45-16.57-15.78-35.75-20.4-54.59-4.98-20.34-5.67-39.24.13-60.04,5.06-18.15,13.62-31.3,25.35-46.22,11.39-14.48,28.89-25.69,44.18-36.19,15.29-10.5,33.7-17.68,51.45-23.23,18.35-5.73,53.55-8.27,72.19-3.19,39.35,10.73,46.17,19.48,55.88,36.35q16.35,28.42,19.58,44.51c5.91,29.44,6.64,47.62,15.45,61,0,0,4.65-5.55-86.77,22.63-91.41,28.18-177.06,58.96-177.06,58.96Z"/>
      <path class="cls-16" d="M200.46,245.7c-5.73-9.13-9.93-19.05-13.28-29.27-3.41-10.44-6.34-21.21-8.44-31.99-4.16-21.38-2.41-43.78,6.3-63.86,3.87-8.93,9.06-17.19,14.81-25.03,2.92-3.98,5.91-7.95,9.26-11.59s7.3-7.29,11.26-10.59c7.84-6.52,16.32-12.22,24.74-17.96,8.93-6.09,18.12-11.41,28.05-15.74,9.27-4.05,18.94-7.61,28.69-10.29,7.85-2.16,15.87-3.36,23.87-4.13,8.91-.86,17.9-1.19,26.85-.72,3.96.2,7.88.56,11.45,1.17,4.39.75,8.67,2.02,12.93,3.29,8.07,2.4,15.91,5.02,23.18,8.73,2.67,1.36,5.27,2.88,7.72,4.62.28.2.55.4.83.6.1.08.79.6.47.36s.45.36.54.44c.28.23.56.46.84.7.95.81,1.87,1.67,2.75,2.56s1.67,1.76,2.45,2.69c.39.46.76.93,1.14,1.4.35.44-.31-.43.12.16.2.28.41.55.61.82,1.47,2.03,2.81,4.14,4.1,6.28,4.26,7.09,8.35,14.31,12.32,21.57,1.36,2.5,2.7,5.02,3.89,7.6.22.48.44.97.66,1.46.33.73-.17-.44.04.08.12.31.25.61.37.92.37.94.71,1.89,1.02,2.85,1.57,4.84,2.44,9.9,3.42,14.88,1.92,9.8,3.45,19.66,5.26,29.48,1.33,7.21,2.81,14.5,5.58,21.31,1.25,3.07,2.69,6.04,4.51,8.82,1.03,1.58,3.64,2.32,5.03.65s1.27-4.19-.8-5.35c-1.47-.82-3.33-.57-4.91-.37-4,.5-7.95,1.39-11.87,2.32-7.92,1.87-15.77,4.02-23.6,6.21-13.65,3.84-27.24,7.9-40.8,12.05-17.71,5.41-35.38,10.98-53.01,16.66-16.2,5.22-32.36,10.54-48.5,15.94-13.51,4.52-27,9.1-40.47,13.74-9.62,3.31-19.23,6.65-28.82,10.03-4.53,1.59-9.05,3.19-13.57,4.81-.19.07-.39.14-.58.21-1.63.58-2.72,2.18-2.24,3.94.43,1.57,2.3,2.82,3.94,2.24,11.22-4.03,22.47-7.95,33.73-11.85,27.35-9.48,54.78-18.72,82.29-27.7,32.28-10.54,64.67-20.81,97.27-30.3,9.57-2.79,19.16-5.51,28.82-7.99,5-1.28,10.02-2.54,15.09-3.48.7-.13,1.4-.25,2.11-.36.28-.04.59-.05.86-.13-1.35.35-.42.05.01,0,.66-.07,1.31-.08,1.97-.1.8-.03-.97-.23-.35-.05.57.16-.93-.48-.5-.21-1.41-.86-1.93-2.68-1.08-4.15-.16.29.34-.44.48-.61,1.68.22,3.35.43,5.03.65-.89-1.36-1.71-2.77-2.44-4.22-.36-.71-.7-1.43-1.03-2.16-.06-.13-.42-.98-.22-.49-.2-.47-.39-.95-.57-1.42-1.27-3.3-2.24-6.72-3.07-10.16-2.08-8.63-3.38-17.43-4.9-26.17-1.37-7.9-2.74-15.83-4.6-23.64-1.05-4.44-2.63-8.67-4.61-12.78-3.32-6.87-7.26-13.45-11.06-20.07-3.16-5.5-6.22-11.06-10.12-16.08-7.94-10.23-19.47-15.98-31.41-20.31-4.61-1.67-9.29-3.14-14-4.5-4.06-1.17-8.09-2.25-12.27-2.87-8.8-1.31-17.72-1.53-26.6-1.19-9.16.35-18.34,1.29-27.36,2.93s-17.55,4.44-26.08,7.55c-10.52,3.82-20.87,8.28-30.57,13.9-4.64,2.69-9.03,5.75-13.46,8.77-4.32,2.94-8.63,5.9-12.86,8.97-8.54,6.2-16.9,12.84-23.88,20.81-6.65,7.59-12.7,16.07-17.78,24.79-11.1,19.02-16.46,41.33-15.06,63.33.73,11.57,3.33,22.81,6.28,33.98,2.84,10.77,6.18,21.42,10.74,31.59,2.2,4.92,4.71,9.69,7.57,14.25,2.18,3.48,7.72.27,5.53-3.23Z"/>
    </g>
    <g>
      <path class="cls-15" d="M223.93,213.79c-1.84-12.32-.99-22.65,3.84-33.69,1.37-3.13,3.01-6.16,5.24-8.65,2.52-2.82,5.7-4.86,8.93-6.72,6.73-3.88,13.94-7.15,21.67-7.99,7.73-.85,14.68.05,21.84,3.74,7.69,3.96,16.59,23.39,20.89,32.63"/>
      <path class="cls-16" d="M227.02,212.93c-1.4-9.54-.96-19.08,2.32-28.19,1.6-4.44,3.69-8.97,7.14-12.28,3.37-3.23,7.76-5.51,11.9-7.59,8.61-4.32,18.49-6.66,28.04-4.38,2.26.54,4.47,1.3,6.57,2.32.68.33,1.32.68,1.95,1.09.13.08.25.18.37.27-.58-.41-.21-.17-.09-.06.31.28.63.54.94.83,1.04.98,2.3,2.44,2.96,3.31.84,1.09,2.11,2.96,3.02,4.41,4.43,7.01,7.94,14.56,11.44,22.07.73,1.57,2.99,1.96,4.38,1.15,1.61-.94,1.88-2.81,1.15-4.38-3.3-7.09-6.63-14.2-10.7-20.89-2.03-3.32-4.25-6.63-6.96-9.44-3.02-3.13-6.89-4.91-11.01-6.2-10.6-3.33-21.98-1.55-31.97,2.83-4.97,2.18-9.92,4.85-14.21,8.19-4.29,3.34-7.19,7.77-9.34,12.71-2.45,5.64-4.07,11.44-4.75,17.56-.68,6.14-.22,12.29.67,18.39.25,1.71,2.42,2.65,3.94,2.24,1.84-.5,2.49-2.22,2.24-3.94h0Z"/>
    </g>
    <g>
      <path class="cls-13" d="M228.99,232.41c-1.75-5.92-3.05-11.96-3.91-18.07-.13-.91-.24-1.88.17-2.72.5-1.03,1.63-1.59,2.68-2.07,25.11-11.52,48.67-23.96,76.02-20.62,3.73,7.78,6.15,13.37,5.81,17.72"/>
      <path class="cls-16" d="M232.08,231.56c-1-3.43-1.87-6.89-2.59-10.39-.36-1.75-.68-3.51-.96-5.27-.1-.65-.22-1.3-.3-1.95-.04-.28.03-.73-.06-.99-.01-.22,0-.26.02-.11-.36.51-.36.56,0,.16.98-.32,2.38-1.16,3.48-1.67,1.69-.78,3.38-1.57,5.07-2.35,3-1.39,6.01-2.79,9.02-4.15,11.75-5.3,23.87-10.14,36.65-12.25,7.11-1.18,14.39-1.31,21.54-.46-.92-.53-1.84-1.06-2.76-1.59,1.48,3.09,2.97,6.16,4.1,9.38.44,1.26.83,2.53,1.1,3.84.02.1.17.98.12.6-.06-.39.04.46.05.56.04.58.04,1.15,0,1.73-.11,1.73,1.55,3.2,3.2,3.2,1.82,0,3.09-1.47,3.2-3.2.2-3.17-.71-6.36-1.82-9.29-.73-1.93-1.55-3.83-2.4-5.71-.45-1-.92-1.99-1.39-2.98-.83-1.76-1.57-2.71-3.64-2.96-8.67-1.06-17.49-.44-26.04,1.27-17.16,3.43-33.04,11.35-48.82,18.64-2.21,1.02-4.83,1.89-6.19,4.07-1.53,2.46-.71,5.5-.28,8.16.85,5.21,2.03,10.36,3.51,15.42,1.16,3.95,7.33,2.27,6.17-1.7h0Z"/>
    </g>
    <g>
      <path class="cls-16" d="M237.43,219.02c.07,0,.01-.13-.06-.14-.26-.05-.44.32-.3.57s.47.3.7.19.38-.36.48-.61c.03-.07.05-.14.04-.22-.01-.09-.07-.16-.14-.21-.24-.19-.61-.08-.75.19s-.07.63.13.86c.11.14.3.25.45.18.24-.1.2-.49.03-.7-.18-.22-.46-.34-.72-.28s-.46.32-.44.6.29.53.55.48"/>
      <path class="cls-16" d="M238.29,222.11c.05,0,.74-.3.79-.33.01,0,.64-.5.65-.5,0,0,.5-.64.5-.65.04-.06.31-.71.33-.78,0-.02.11-.84.11-.86.01-.29-.03-.59-.12-.87-.04-.13-.2-.47-.17-.39l-.16-.38h0s0-.02-.01-.03c0-.02-.49-.64-.5-.65,0,0-.01-.01-.02-.02-.01-.01-.63-.49-.65-.51,0,0-.01,0-.02-.01-.03-.02-.74-.32-.78-.33,0,0-.02,0-.02,0-.04,0-.82-.11-.86-.12-.02,0-.03,0-.05,0-.05,0-.81.11-.86.12,0,0-.01,0-.02,0s-.01,0-.02,0c-.13.05-.27.1-.4.17-.13.05-.26.11-.39.16-.01,0-.03.01-.04.02,0,0-.01,0-.02.01-.06.04-.6.46-.65.51-.01.01-.02.02-.03.03,0,0-.01.01-.02.02-.17.22-.33.43-.5.65h0s-.03.07-.05.1c-.05.11-.29.66-.33.77,0,0,0,.02,0,.02,0,.02-.01.04-.02.07-.03.14-.07.5-.06.44,0-.04-.05.3-.06.44,0,.02,0,.03,0,.05s0,.03,0,.05c0,.1.1.76.12.86,0,.01,0,.02,0,.03,0,.02.01.03.02.05.03.08.29.69.33.77,0,0,0,.02.01.02.15.27.36.51.57.74.01.01.03.03.04.04,0,0,.01.01.02.02.1.08.55.43.66.51.03.02.07.04.1.06.13.06.64.28.77.33,0,0,.02,0,.03,0,.02,0,.04.01.05.01.31.07.64.12.96.13.02,0,.04,0,.06,0,0,0,.02,0,.03,0,.16-.01.7-.09.86-.12.04,0,.08-.01.12-.03,0,0,.02,0,.03,0,.13-.05.65-.27.77-.33.02,0,.04-.02.05-.03.02-.01.04-.02.06-.04,0,0,.02-.01.03-.02.19-.14.48-.36.66-.51.03-.03.06-.06.09-.09.01-.02.03-.03.04-.05.18-.22.37-.46.53-.69.06-.08.1-.16.14-.25.13-.28.25-.57.36-.87.07-.18.07-.38.1-.57.02-.14.07-.33.06-.49,0-.09-.1-.77-.12-.86,0-.01,0-.02,0-.03-.17-.62-.3-.77-.63-1.19-.05-.06-.18-.26-.29-.36s-.3-.23-.36-.29c-.13-.1-.26-.23-.42-.31-.11-.05-.66-.29-.77-.33,0,0-.02,0-.03,0-.02,0-.03-.01-.05-.01-.01,0-.02,0-.04,0-.13-.02-.73-.11-.86-.12-.02,0-.04,0-.06,0-.02,0-.04,0-.05,0-.14.01-.72.09-.86.12,0,0-.02,0-.03,0-.16.03-.37.15-.49.19s-.33.12-.47.21c-.01,0-.02.01-.03.02-.12.08-.54.41-.66.51-.02.01-.03.03-.05.04-.01.01-.03.03-.04.04-.09.1-.42.54-.51.65,0,0-.01.01-.02.02-.01.02-.02.03-.03.05,0,0,0,.02-.01.03v.02c-.12.25-.22.51-.33.76-.02.04-.03.08-.04.13-.03.15-.05.35-.07.48s-.06.33-.06.49c0,.04,0,.08,0,.13.02.15.05.34.06.45.01.1.03.3.06.45,0,.02,0,.05.02.07.01.05.03.09.04.13.08.21.23.57.33.77,0,0,0,.02.01.03.01.02.02.04.04.07.09.15.22.3.32.42s.21.31.34.42c0,0,.02.01.03.02.14.12.51.4.66.51.02.01.04.03.06.04.13.07.34.15.43.18.05.02.3.15.44.18,0,0,.02,0,.03,0,.1.02.76.11.86.12.02,0,.04,0,.06,0,.13,0,.65-.09.44-.06-.32.04.32-.03.44-.06,0,0,.02,0,.03,0,.09-.03.7-.29.78-.33.27-.14.5-.34.72-.55.01,0,.02-.02.03-.03.04-.05.47-.61.5-.65,0,0,.01-.02.02-.02.07-.12.16-.38.18-.42.03-.06.13-.28.17-.42,0-.02,0-.03.01-.05.02-.11.1-.74.12-.86,0-.01,0-.02,0-.03,0-.04,0-.07,0-.11-.02-.16-.09-.69-.12-.86,0,0,0-.02,0-.03,0-.02,0-.04-.01-.06,0-.02-.01-.03-.02-.05,0,0,0-.02,0-.02-.06-.16-.25-.61-.33-.77-.02-.03-.03-.07-.05-.1-.17-.26-.36-.5-.56-.73-.03-.04-.07-.07-.1-.1-.22-.18-.46-.37-.68-.53-.02-.01-.04-.02-.05-.04s-.04-.02-.06-.03c0,0-.02,0-.03-.01-.24-.11-.54-.24-.78-.33-.04-.02-.09-.03-.13-.04-.15-.03-.35-.05-.48-.07-.12-.02-.33-.06-.49-.06-.02,0-.04,0-.06,0-.01,0-.02,0-.03,0-.18.02-.68.08-.86.12-.04,0-.08.02-.12.03-.16.06-.61.25-.77.33-.01,0-.02.01-.04.02-.02,0-.03.02-.05.03,0,0-.02.01-.02.02-.15.11-.51.39-.66.51-.02.01-.04.03-.05.05-.01.01-.03.03-.04.04,0,0-.01.02-.02.02-.12.15-.4.5-.51.66-.03.04-.05.07-.06.11l-.16.38c-.06.13-.11.27-.17.4,0,0,0,.02-.01.03,0,.02-.01.04-.02.06-.03.15-.05.36-.07.48-.01.1-.06.33-.06.49,0,.02,0,.04,0,.06.01.16.09.7.12.86,0,0,0,.02,0,.03,0,.02,0,.04.02.06,0,0,0,.02.01.03.07.2.24.59.33.78.02.04.04.08.07.11.08.11.21.28.26.34.02.03.17.24.26.34.02.02.03.03.05.05.11.1.27.21.36.28.08.07.24.2.36.28.02.01.03.02.05.03,0,0,.02,0,.03.01l.76.32h.02s.04.02.06.02c0,0,.02,0,.03,0,.1.02.76.11.86.12.02,0,.04,0,.06,0,0,0,.02,0,.03,0l.43-.06c.15-.02.3-.04.44-.06.42-.1.78-.29,1.09-.57.35-.23.62-.53.82-.9.23-.37.36-.76.38-1.19.1-.43.08-.85-.06-1.28l-.32-.76c-.28-.48-.67-.86-1.15-1.15-.25-.11-.51-.22-.76-.32-.57-.15-1.13-.15-1.7,0h-.02c.28-.04.57-.07.85-.11-.03,0-.06,0-.09,0l.85.11s-.07-.02-.11-.03l.76.32s-.08-.04-.12-.07c.22.17.43.33.65.5-.04-.03-.07-.06-.1-.1.17.22.33.43.5.65-.03-.04-.06-.09-.08-.14l.32.76s-.03-.09-.04-.13c.04.28.08.57.11.85,0-.04,0-.08,0-.12-.04.28-.08.57-.11.85,0-.05.02-.11.04-.16-.11.25-.22.51-.32.76.02-.04.04-.08.07-.12-.17.22-.33.43-.5.65.03-.04.07-.08.11-.11-.22.17-.43.33-.65.5.04-.03.08-.05.12-.07l-.76.32s.09-.03.13-.04l-.85.11c.06,0,.11,0,.16,0l-.85-.11c.06,0,.12.03.18.05l-.76-.32c.07.03.13.06.19.11-.22-.17-.43-.33-.65-.5.06.04.11.09.15.15-.17-.22-.33-.43-.5-.65.03.04.06.09.08.14l-.32-.76c.02.05.04.11.05.17l-.11-.85c0,.05,0,.1,0,.15l.11-.85s-.01.06-.02.09c.11-.25.22-.51.32-.76,0,.02-.02.04-.04.06.17-.22.33-.43.5-.65-.02.02-.03.04-.05.05l.65-.5s-.03.02-.05.03l.76-.32s-.04.01-.06.02l.85-.11s-.05,0-.08,0l.85.11s-.07-.01-.1-.03l.76.32s-.08-.04-.11-.06l.65.5s-.09-.08-.12-.12c.17.22.33.43.5.65-.05-.06-.09-.13-.12-.2.11.25.22.51.32.76-.03-.07-.05-.15-.06-.22l.11.85c0-.07-.01-.14,0-.21-.04.28-.08.57-.11.85,0-.06.02-.12.05-.18l-.32.76s.04-.08.07-.11c-.17.22-.33.43-.5.65.03-.03.06-.06.09-.09-.22.17-.43.33-.65.5.04-.03.08-.05.13-.07l-.76.32s.09-.03.14-.04l-.85.11s.08,0,.12,0l-.85-.11s.08.02.12.03l-.76-.32s.07.03.1.06l-.65-.5s.05.05.08.08l-.5-.65s.03.05.04.07c-.11-.25-.22-.51-.32-.76,0,.02.01.04.02.06l-.11-.85s0,.05,0,.08c.04-.28.08-.57.11-.85-.01.07-.04.14-.06.21.11-.25.22-.51.32-.76-.05.11-.11.22-.18.32.17-.22.33-.43.5-.65-.04.06-.09.11-.15.15l.65-.5s-.1.07-.16.09l.76-.32s-.09.03-.14.04l.85-.11s-.1,0-.15,0l.85.11s-.1-.02-.14-.04l.76.32s-.08-.04-.11-.06l.65.5s-.06-.06-.09-.09l.5.65s-.03-.05-.05-.08c.11.25.22.51.32.76-.01-.03-.02-.06-.03-.1l.11.85s0-.08,0-.12l-.11.85s.02-.08.03-.11l-.32.76s.03-.07.06-.1l-.5.65s.04-.04.06-.05l-.65.5s.04-.03.07-.04l-.76.32s.04-.01.06-.02l-.85.11s.04,0,.06,0l-.85-.11s.02,0,.03,0l-.76-.32s.02,0,.02.01l-.65-.5s.01.01.02.02l-.5-.65s.02.02.02.04c-.11-.25-.22-.51-.32-.76,0,0,0,.02,0,.02-.04-.28-.08-.57-.11-.85h0c.04-.27.08-.56.11-.84h0c.11-.24.22-.5.32-.75h0c.17-.21.33-.42.5-.64h0c.22-.16.43-.33.65-.49h0c.25-.1.51-.21.76-.32h-.01c-.42.1-.78.29-1.09.57-.35.23-.62.53-.82.9-.23.37-.36.76-.38,1.19-.1.43-.08.85.06,1.28l.32.76c.28.48.67.86,1.15,1.15l.76.32c.57.15,1.13.15,1.7,0h0Z"/>
    </g>
    <g>
      <path class="cls-16" d="M255.92,211.32c-.17-.12-.41-.05-.53.12-.12.17-.12.4-.06.61.1.35.41.65.75.67s.68-.26.67-.63-.39-.69-.71-.57c-.08.03-.15.08-.18.16-.12.23.15.55.4.5s.37-.38.29-.63-.32-.44-.57-.52c-.13-.04-.28-.05-.4.02-.21.12-.22.46-.08.68.13.22.36.36.57.48"/>
      <path class="cls-16" d="M257.54,208.56c-.51-.34-1.2-.48-1.8-.5s-1.26.18-1.81.48c-.02.01-.04.02-.06.04l-.32.25c-.11.09-.23.18-.34.26-.02.02-.03.03-.05.05v.02c-.18.22-.35.43-.51.65-.17.25-.33.72-.38.87-.02.05-.03.1-.04.15l-.06.43c-.02.15-.04.3-.06.45,0,.03,0,.05,0,.08,0,.04,0,.09,0,.13.02.19.06.66.14.96s.31.76.36.88c.04.08.08.16.14.24.15.21.35.47.52.67.02.02.03.04.05.06.03.04.07.07.11.1.18.15.54.47.83.61.79.37.95.41,1.83.49.04,0,.08,0,.12,0-.11,0,.67-.06.94-.13.34-.09.68-.22.97-.42.66-.46.84-.63,1.29-1.29.2-.29.33-.64.42-.97s.16-.71.13-1.06c-.06-.81-.13-1.1-.5-1.82-.02-.04-.04-.07-.07-.1-.14-.19-.36-.49-.51-.67-.01-.02-.03-.03-.05-.05-.24-.24-.52-.47-.83-.63-.66-.32-1.04-.46-1.79-.48-.68-.02-1.21.17-1.81.47-.49.24-1.03.8-1.3,1.27-.3.54-.5,1.17-.48,1.79,0,.04.04.67.14.95l.16.38c.05.14.11.27.17.4,0,.02.02.04.03.05v.02c.18.22.35.43.51.65.01.02.03.03.04.05.22.22.47.4.73.57.02.01.04.02.05.03l.38.16c.13.06.27.12.4.17.3.09.62.12.93.13.57.02,1.32-.18,1.8-.49.58-.37.89-.69,1.26-1.26.19-.29.33-.62.4-.96.16-.82.16-1.09,0-1.9-.07-.35-.22-.68-.4-.99s-.39-.59-.64-.82c-.23-.21-.48-.39-.74-.57-.04-.03-.08-.05-.13-.08-.29-.14-.58-.27-.89-.37-.05-.02-.11-.03-.16-.04l-.43-.06c-.15-.03-.3-.05-.45-.06-.04,0-.07,0-.11,0-.76.07-1.03.1-1.72.47-.27.14-.52.34-.73.56-.1.1-.26.33-.28.35-.04.05-.22.25-.28.37s-.15.36-.18.42c-.04.08-.14.3-.18.44-.08.31-.12.64-.13.96-.01.29.13,1,.12.96,0,.04.02.09.03.13.1.29.21.6.37.87.01.02.03.04.04.07.09.12.18.23.27.34.09.12.18.23.27.34.03.04.07.08.11.11.24.21.49.4.75.58.09.07.19.12.29.18.37.23.76.36,1.19.38.43.1.85.08,1.28-.06.42-.1.78-.29,1.09-.57.35-.23.62-.53.82-.9l.32-.76c.15-.57.15-1.13,0-1.7l-.32-.76c-.28-.48-.67-.86-1.15-1.15-.11-.06-.21-.12-.31-.2l.65.5c-.08-.06-.15-.12-.21-.2l.5.65c-.04-.05-.07-.11-.1-.17l.32.76s-.03-.1-.04-.15l.11.85c0-.06,0-.12,0-.18-.04.28-.08.57-.11.85,0-.03.01-.07.03-.1-.11.25-.22.51-.32.76.01-.03.03-.06.05-.09l-.5.65s.03-.04.06-.06c-.22.17-.43.33-.65.5.03-.02.05-.03.08-.05l-.76.32s.05-.02.08-.02l-.85.11s.09,0,.14,0l-.85-.11c.08.01.15.03.23.06l-.76-.32c.08.03.15.07.21.12l-.65-.5c.05.04.1.09.14.14-.17-.22-.33-.43-.5-.65.04.05.07.11.1.17l-.32-.76s.03.09.04.13c-.04-.28-.08-.57-.11-.85,0,.05,0,.1,0,.15.04-.28.08-.57.11-.85,0,.05-.02.1-.04.15.11-.25.22-.51.32-.76-.02.04-.04.07-.06.11.17-.22.33-.43.5-.65-.02.03-.04.05-.07.07l.65-.5s-.05.04-.08.05l.76-.32s-.05.02-.08.02l.85-.11s-.05,0-.08,0l.85.11s-.05-.01-.08-.02l.76.32s-.06-.03-.09-.05l.65.5s-.06-.06-.09-.09l.5.65s-.04-.06-.05-.09c.11.25.22.51.32.76-.01-.03-.02-.06-.03-.1.04.28.08.57.11.85,0-.03,0-.05,0-.08l-.11.85s0-.04.02-.06c-.11.25-.22.51-.32.76.01-.02.02-.04.04-.06l-.5.65s.04-.05.07-.07l-.65.5s.06-.03.09-.05l-.76.32s.05-.02.08-.02l-.85.11s.08,0,.12,0l-.85-.11s.08.02.12.03l-.76-.32s.09.05.13.08l-.65-.5s.09.08.13.13l-.5-.65s.06.09.08.13c-.11-.25-.22-.51-.32-.76.02.05.03.1.04.15l-.11-.85s0,.09,0,.14l.11-.85c0,.05-.02.11-.04.16.11-.25.22-.51.32-.76-.02.05-.05.09-.08.14l.5-.65s-.08.09-.13.13l.65-.5s-.09.06-.14.08l.76-.32c-.06.02-.11.04-.17.05l.85-.11c-.05,0-.11,0-.16,0l.85.11c-.06-.01-.12-.03-.18-.05.25.11.51.22.76.32-.07-.03-.13-.07-.18-.11.22.17.43.33.65.5-.06-.05-.12-.11-.17-.17.17.22.33.43.5.65-.06-.07-.1-.15-.14-.24.11.25.22.51.32.76-.03-.07-.05-.15-.06-.22l.11.85c-.01-.08-.01-.16,0-.24-.04.28-.08.57-.11.85,0-.05.02-.1.04-.15l-.32.76s.04-.07.06-.11c-.17.22-.33.43-.5.65.02-.03.05-.05.08-.08-.22.17-.43.33-.65.5.02-.02.05-.03.08-.04l-.76.32s.07-.02.11-.03l-.85.11s.07,0,.11,0l-.85-.11s.06.01.08.02l-.76-.32s.04.02.06.03c.37.23.76.36,1.19.38.43.1.85.08,1.28-.06.42-.1.78-.29,1.09-.57.35-.23.62-.53.82-.9.11-.25.22-.51.32-.76.15-.57.15-1.13,0-1.7-.11-.25-.22-.51-.32-.76-.28-.48-.67-.86-1.15-1.15h0Z"/>
    </g>
    <g>
      <path class="cls-16" d="M276.65,205.87c0-.27-.33-.48-.54-.34-.15.1-.2.31-.18.5.04.36.34.7.68.72s.67-.3.63-.66c-.04-.35-.44-.61-.73-.47s-.33.65-.05.85"/>
      <path class="cls-16" d="M279.85,205.87c0-.33-.03-.67-.14-.98-.27-.76-.36-.9-.88-1.51-.2-.23-.56-.46-.73-.58-.02-.01-.04-.03-.06-.04,0,0-.02,0-.03-.01l-.76-.32s-.02,0-.03-.01c-.02,0-.04-.01-.06-.01h-.01c-.28-.04-.57-.08-.85-.12,0,0-.02,0-.03,0-.3,0-.61.06-.9.12-.15.03-.32.13-.45.18-.49.21-.68.28-1.13.73,0,0-.02.02-.02.03h-.01c-.17.23-.33.45-.5.66-.02.03-.03.05-.05.08v.02c-.11.25-.22.51-.33.76,0,.01-.01.03-.02.04,0,.03-.01.06-.02.08-.05.3-.1.6-.12.91,0,.03,0,.06,0,.1,0,.01,0,.03,0,.04.03.26.08.61.12.87,0,.03,0,.06.02.08.08.3.28.71.37.91.02.05.05.1.08.14.18.27.37.54.6.77.02.02.04.03.05.05.01,0,.02.02.04.03.19.15.46.37.66.51.04.03.09.06.14.08.04.02.61.31.89.36.3.06.61.1.91.12.03,0,.06,0,.09,0,.68-.05,1.27-.15,1.87-.53s.95-.74,1.34-1.34c.18-.27.28-.59.39-.89,0-.02.01-.05.02-.07.07-.3.1-.61.13-.92,0-.02,0-.05,0-.07-.01-.31-.06-.62-.12-.91,0-.03-.01-.05-.02-.07,0-.01,0-.02-.01-.03-.05-.13-.11-.27-.17-.4-.05-.13-.11-.27-.17-.4-.02-.04-.04-.08-.07-.11-.08-.11-.37-.56-.6-.75s-.48-.42-.75-.57c0,0-.02,0-.03-.01h-.01c-.25-.11-.51-.22-.76-.33-.03,0-.05-.02-.08-.03-.15-.04-.39-.06-.49-.07s-.33-.06-.49-.06c-.28,0-1.13.16-.9.12-.03,0-.05,0-.08.02-.3.1-.62.2-.88.38.16-.11-.51.34-.69.54,0,0-.01.01-.02.02-.09.11-.17.22-.26.34-.09.11-.18.22-.26.34-.18.26-.27.59-.38.88,0,.02-.02.05-.02.07-.07.3-.09.61-.12.91,0,.05,0,.1,0,.15.02.23.08.64.12.87,0,.01,0,.03,0,.04,0,.02.01.04.02.06.1.28.2.62.39.88.51.71.53.72,1.24,1.23.37.23.76.36,1.19.38.43.1.85.08,1.28-.06.42-.1.78-.29,1.09-.57.35-.23.62-.53.82-.9l.32-.76c.15-.57.15-1.13,0-1.7l-.32-.76c-.28-.48-.67-.86-1.15-1.15h-.01c.22.16.43.32.65.49-.03-.02-.05-.04-.07-.07.17.22.33.43.5.65-.02-.03-.04-.06-.06-.1.11.25.22.51.32.76-.02-.05-.03-.09-.04-.14l.11.85c0-.06,0-.11,0-.16-.04.28-.08.57-.11.85,0-.05.02-.1.04-.14l-.32.76s.03-.07.06-.1c-.17.22-.33.43-.5.65.02-.03.04-.05.07-.07l-.65.5s.06-.04.09-.05l-.76.32s.07-.02.11-.03l-.85.11s.07,0,.11,0l-.85-.11s.09.02.14.04l-.76-.32s.09.05.13.07l-.65-.5s.08.07.12.12c-.17-.22-.33-.43-.5-.65.03.04.06.08.08.13-.11-.25-.22-.51-.32-.76.02.04.03.08.04.13l-.11-.85s0,.1,0,.15c.04-.28.08-.57.11-.85,0,.05-.02.11-.04.16.11-.25.22-.51.32-.76-.02.05-.05.09-.08.14l.5-.65s-.07.08-.11.11l.65-.5s-.09.06-.14.08l.76-.32s-.1.03-.15.04l.85-.11s-.09,0-.14,0l.85.11c-.05,0-.1-.02-.15-.04l.76.32c-.06-.02-.11-.05-.16-.09.22.17.43.33.65.5-.06-.05-.11-.1-.16-.16.17.22.33.43.5.65-.05-.06-.08-.12-.11-.19.11.25.22.51.32.76-.03-.07-.05-.14-.06-.22.04.28.08.57.11.85,0-.06,0-.13,0-.19l-.11.85c0-.05.02-.1.04-.15l-.32.76s.03-.06.05-.1c-.17.22-.33.43-.5.65.02-.02.04-.04.06-.06l-.65.5s.04-.03.07-.04l-.76.32s.05-.02.07-.02l-.85.11s.05,0,.07,0l-.85-.11s.07.01.1.03l-.76-.32s.07.03.1.06l-.65-.5s.06.05.08.08c-.17-.22-.33-.43-.5-.65.02.03.04.05.05.08l-.32-.76s.02.06.03.09l-.11-.85s0,.03,0,.05c-.02.44.08.85.28,1.23.13.4.35.74.66,1.03.29.31.63.53,1.03.66.38.2.79.29,1.23.28l.85-.11c.54-.15,1.01-.43,1.41-.82l.5-.65c.29-.5.44-1.04.44-1.62h0Z"/>
    </g>
    <g>
      <path class="cls-16" d="M296.81,201.63c-.17.18-.51.09-.6-.16-.14.09-.18.31-.14.48.08.34.46.58.76.46s.38-.62.12-.83-.84-.45-.74-.11"/>
      <path class="cls-16" d="M294.55,199.37s-.02.02-.03.03l.65-.5s-.04.03-.06.04l.76-.32s-.06.02-.09.02l.85-.11s-.06,0-.09,0l.85.11s-.07-.01-.1-.03l.76.32s-.06-.03-.09-.05l.65.5s-.05-.04-.07-.07c.17.22.33.43.5.65-.02-.02-.03-.05-.04-.08l.32.76s0-.01,0-.02c-.15-.54-.43-1.01-.82-1.41-.29-.31-.63-.53-1.03-.66-.38-.2-.79-.29-1.23-.28-.58,0-1.12.15-1.62.44-.25.17-.52.33-.72.56-.13.14-.42.46-.55.73-.31.66-.47,1.06-.48,1.81,0,.32.07.64.12.95,0,.04.02.07.03.11.11.29.21.58.36.85.02.03.04.06.06.09.05.07.36.52.56.72.22.21.49.39.72.56.03.02.06.04.09.06.13.07.31.13.42.18s.28.13.43.18c.03.01.07.02.1.02.29.05.59.1.89.12.02,0,.04,0,.05,0,0,0,.02,0,.02,0h.01c.28-.04.57-.08.85-.12.02,0,.03,0,.05-.01.02,0,.03,0,.05-.01.13-.05.37-.16.4-.17.08-.03.27-.11.4-.17.01,0,.02-.01.04-.02.24-.16.46-.34.68-.52.02-.02.04-.04.06-.06h0c.17-.22.33-.44.5-.66,0,0,0-.01.01-.02,0-.01.02-.03.03-.04.15-.26.25-.57.36-.84.01-.03.02-.06.03-.09.07-.31.1-.62.13-.93,0-.03,0-.06,0-.09-.01-.15-.05-.34-.06-.46-.01-.11-.03-.32-.06-.47s-.15-.37-.19-.46c-.03-.08-.11-.33-.2-.46-.17-.25-.34-.5-.55-.71-.01-.01-.02-.02-.03-.03-.11-.09-.27-.21-.34-.26-.11-.08-.23-.18-.34-.26-.1-.08-.21-.14-.33-.19-.2-.09-.57-.26-.85-.36-.03,0-.06-.02-.09-.02-.3-.07-.61-.11-.92-.12-.01,0-.02,0-.03,0,0,0-.01,0-.02,0-.07,0-.79.1-.86.12-.28.07-.55.2-.81.34-.43.24-.94.74-1.17,1.18h0c-.05.13-.11.26-.16.39-.09.21-.12.26-.16.39-.09.28-.12.58-.12.88,0,.31.04.63.13.92.1.42.29.78.57,1.09.23.35.53.62.9.82.37.23.76.36,1.19.38.43.1.85.08,1.28-.06l.76-.32c.48-.28.86-.67,1.15-1.15.11-.25.22-.51.32-.76.15-.57.15-1.13,0-1.7,0-.01,0-.03,0-.04l.11.85s0-.03,0-.04l-.11.85s0-.02,0-.02l-.32.76s0-.01.01-.02c-.17.22-.33.43-.5.65,0,0,0-.01.01-.01l-.65.5s.02,0,.02-.01l-.76.32s.02,0,.04,0l-.85.11s.06,0,.08,0l-.85-.11c.08.01.15.04.22.07l-.76-.32c.12.05.24.12.34.2l-.65-.5s.06.05.08.08l-.5-.65s.04.06.05.09c-.11-.25-.22-.51-.32-.76.02.04.03.08.03.12l-.11-.85c0,.05,0,.11,0,.16l.11-.85c0,.05-.02.1-.04.15.11-.25.22-.51.32-.76-.02.04-.04.08-.07.12l.5-.65s-.05.05-.07.07l.65-.5s-.05.03-.08.05l.76-.32s-.07.03-.11.03l.85-.11s-.08,0-.12,0l.85.11c-.05,0-.1-.02-.15-.04l.76.32s-.1-.05-.14-.08l.65.5s-.09-.08-.13-.13l.5.65s-.07-.1-.09-.16l.32.76s-.03-.1-.04-.15c.04.28.08.57.11.85,0-.05,0-.1,0-.15-.04.28-.08.57-.11.85,0-.04.02-.09.03-.13-.11.25-.22.51-.32.76.01-.03.03-.05.04-.08l-.5.65s.03-.04.05-.05c-.22.17-.43.33-.65.5,0,0,.01-.01.02-.01-1.57-.64-3.13-1.28-4.7-1.91.05.14.12.29.17.4.02.04.11.28.17.4,0,.01.02.03.03.04.16.24.34.46.52.68.01.01.02.03.04.04.11.09.26.2.34.26.03.02.22.18.34.26.02.01.03.02.05.03,0,0,.02,0,.02.01h0c.25.11.51.22.76.33.02,0,.03.01.05.02.02,0,.03,0,.05,0,.14.02.29.04.43.06.15.02.29.04.44.06,0,0,.01,0,.02,0,.02,0,.04,0,.05,0h.01c.28-.04.57-.08.85-.12,0,0,.02,0,.03,0,.02,0,.03,0,.05-.01.27-.1.54-.2.8-.34.02,0,.03-.02.04-.03.22-.17.43-.33.65-.5h0s.02-.02.02-.03c.31-.29.53-.63.66-1.03.2-.38.29-.79.28-1.23.02-.44-.08-.85-.28-1.23-.13-.4-.35-.74-.66-1.03l-.65-.5c-.5-.29-1.04-.44-1.62-.44l-.85.11c-.54.15-1.01.43-1.41.82h0Z"/>
    </g>
    <path class="cls-16" d="M460.36,168.37c7.05-.54,14.15-.31,21.19.32,1.86.17,3.72.36,5.57.58.5.06,1.01.12,1.51.19.22.03.43.06.65.08.73.09-.64-.09-.62-.08,1.01.15,2.02.28,3.03.43,3.75.56,7.48,1.22,11.2,1.96,7.14,1.43,14.23,3.16,21.21,5.23,1.59.47,3.19.96,4.76,1.49.79.27,1.58.55,2.37.84.36.14.73.28,1.09.42.18.07.36.15.54.22.78.3-1.21-.53-.45-.2,1.6.71,3.17,1.45,4.69,2.32.67.38,1.33.79,1.97,1.21.37.25.74.5,1.11.76,1.15.83-.72-.62.08.05,1.29,1.07,2.5,2.21,3.58,3.49.13.15.24.3.37.45.45.52-.41-.54-.4-.52.2.39.55.76.79,1.14.47.72.9,1.47,1.29,2.24.1.19.75,1.67.34.68-.4-.96.1.29.18.52.31.87.58,1.76.8,2.65.19.77.32,1.55.46,2.34.13.71-.09-.76-.09-.72,0,.26.06.53.08.79.04.46.07.93.1,1.39.08,1.74-.04,3.46-.18,5.19-.06.72.11-.75.1-.71-.04.19-.06.4-.09.59-.07.46-.16.92-.25,1.37-.17.84-.38,1.68-.61,2.51s-.5,1.64-.79,2.44c-.13.36-.31.72-.42,1.09,0,.02.57-1.28.26-.62-.15.32-.29.65-.45.97-.79,1.66-1.69,3.26-2.69,4.8-.46.71-.93,1.4-1.43,2.08-.12.16-1.12,1.5-.51.7.58-.76-.38.46-.55.67-1.16,1.41-2.39,2.75-3.66,4.06-2.48,2.54-5.14,4.92-7.87,7.19-.42.35-.84.69-1.26,1.03-.21.16-.41.33-.62.49-.23.18-1.17.91-.21.17.94-.73.08-.07-.14.1-.27.21-.54.41-.81.61-.52.39-1.05.78-1.58,1.17-2.37,1.73-4.78,3.4-7.21,5.03-5.27,3.52-10.68,6.86-16.24,9.92-2.61,1.44-5.25,2.82-7.94,4.09-.63.3-1.25.59-1.89.87-.28.13-.57.25-.85.38-.14.06-.28.12-.42.18-.65.29,1.63-.67.56-.23-1.13.46-2.27.91-3.43,1.31-1.02.35-2.05.67-3.1.94-3.24.84-5.52,4.62-4.47,7.87,1.08,3.35,4.4,5.37,7.87,4.47,5.61-1.44,10.97-4.03,16.1-6.68,5.89-3.04,11.59-6.43,17.15-10.02,11.16-7.21,22.44-15.26,30.63-25.86,5.3-6.86,8.72-14.54,9.66-23.19.94-8.63-1.45-17.27-6.78-24.1-4.9-6.27-12.21-10.01-19.54-12.69-6.83-2.5-13.97-4.3-21.05-5.92-15.48-3.55-31.59-6.06-47.51-5.65-1.72.04-3.44.13-5.16.26-3.33.26-6.56,2.76-6.4,6.4.15,3.25,2.83,6.68,6.4,6.4h0Z"/>
    <g>
      <path class="cls-5" d="M219.97,131.15l5,32.11,18.01-43.15s4.6,32.11,4.27,31.37-27.28-20.32-27.28-20.32Z"/>
      <line class="cls-5" x1="252.91" y1="116.61" x2="257.93" y2="146.24"/>
      <polyline class="cls-5" points="277.88 110.93 265.53 127.84 283.6 123.97 270.16 144.47"/>
    </g>
    <path class="cls-16" d="M287.94,33.22c.34.25-.45-.41-.56-.52-.15-.15-.29-.31-.42-.48.09.12.27.39-.07-.12-.2-.32-.39-.64-.56-.98-.24-.48.13.38-.06-.13-.1-.25-.18-.51-.26-.77-.29-1.02-.28-1.03-.29-1.87,0-.21,0-.43.01-.64,0-.08.07-.74.02-.37-.05.33.04-.18.05-.2.08-.3.16-.61.25-.91.03-.09.23-.56.02-.1.06-.14.13-.28.21-.41.23-.38.37-.59.48-.72.7-.79,1.45-1.28,2.38-1.79,1.89-1.03,3.93-1.8,5.95-2.54,4.51-1.65,9.21-2.87,14.03-2.8,2.24.03,4.51.28,6.64.99-.56-.19.37.2.52.29s.31.2.46.31c-.13-.09-.39-.38,0,.02.22.23.45.45.66.69.32.36-.25-.4,0,0,.12.19.25.38.36.58.09.16.17.32.25.48-.2-.4-.06-.17.04.12.13.39.22.78.31,1.18.04.18.02.58,0-.05,0,.18.02.36.03.53s-.01.36,0,.53c.02.76.17-.53-.02.2-.09.34-.17.68-.28,1.01.21-.65-.2.3-.33.53-.22.41.33-.35.02,0-.15.17-.32.33-.47.49-.38.41-.14.12,0,.03-.26.19-.54.34-.83.5-1.52.81-2,2.93-1.15,4.38.9,1.54,2.85,1.97,4.38,1.15,4.22-2.26,5.97-7.28,4.66-11.8-.59-2.04-1.76-3.99-3.39-5.36-2.09-1.77-4.6-2.44-7.26-2.83-6.51-.95-13.02.1-19.2,2.24-2.84.98-5.75,2.07-8.41,3.48-2.37,1.26-4.56,3.11-5.68,5.6-2.47,5.48-.57,12.09,4.29,15.55,1.41,1,3.56.25,4.38-1.15.94-1.61.26-3.37-1.15-4.38h0Z"/>
    <path class="cls-4" d="M216,284.06l.91-4.05c2.57-11.39,11.96-19.86,23.27-20.31.11,0,.22,0,.34-.01,4.55-.13,9.08,1.05,13.16,3.26l6.28,3.39"/>
    <path class="cls-9" d="M294.97,254.89l7.23-10.9c7.59-11.44,22.31-15.1,34.39-8.54l10.95,5.94"/>
  </g>
  <path class="cls-9" d="M363.28,345.67c-18.47,28.56-63.6,33.61-63.6,33.61,0,0,2.69,18.5,24.66,15.78"/>
  <polygon class="cls-16" points="57.28 631.11 68.37 634.37 75.78 605.43 64.68 602.17 57.28 631.11"/>
  <line class="cls-1" x1="351.15" y1="520.98" x2="374.37" y2="536.16"/>
  <g>
    <line class="cls-12" x1="221.51" y1="618.75" x2="252.66" y2="711.39"/>
    <path class="cls-16" d="M221.51,618.75c8.59,14.15,14.58,29.33,19.92,44.85,5.13,15.59,9.53,31.31,11.22,47.78-8.61-14.14-14.59-29.33-19.92-44.85-5.11-15.6-9.52-31.31-11.22-47.78h0Z"/>
  </g>
  <g>
    <line class="cls-12" x1="434.94" y1="708" x2="446.21" y2="776.76"/>
    <path class="cls-16" d="M434.94,708c3.86,11.08,6.2,22.46,8.15,33.97,1.83,11.52,3.25,23.06,3.12,34.79-3.87-11.07-6.21-22.46-8.15-33.97-1.82-11.52-3.24-23.06-3.12-34.79h0Z"/>
  </g>
  <g>
    <line class="cls-12" x1="415.57" y1="713.67" x2="446.19" y2="776.16"/>
    <path class="cls-16" d="M415.57,713.67c6.89,9.47,12.41,19.69,17.6,30.12,5.08,10.49,9.76,21.11,13.01,32.37-6.9-9.47-12.42-19.68-17.6-30.12-5.07-10.49-9.75-21.12-13.01-32.37h0Z"/>
  </g>
  <path class="cls-16" d="M448.99,297.59c3.35,0,6.56-2.94,6.4-6.4-.16-3.47-2.81-6.4-6.4-6.4-3.35,0-6.56,2.94-6.4,6.4.16,3.47,2.81,6.4,6.4,6.4h0Z"/>
</svg>